<?xml version="1.0" encoding="UTF-8"?>
<svg width="40px" height="40px" viewBox="0 0 40 40" version="1.1" xmlns="http://www.w3.org/2000/svg" xmlns:xlink="http://www.w3.org/1999/xlink">
    <!-- Generator: Sketch 58 (84663) - https://sketch.com -->
    
    <desc>Created with Sketch.</desc>
        <g id="图标汇总" transform="translate(-590.000000, -316.000000)">
            <g id="面积图" transform="translate(590.000000, 316.000000)">
                <rect id="矩形" fill="#000000" fill-rule="nonzero" opacity="0" x="0" y="0" width="40" height="40"></rect>
                <g id="编组" transform="translate(1.000000, 1.000000)">
                    <path d="M1.70786517,-1 C2.84644195,-1 3.41573034,-0.431421446 3.41573034,0.705735661 L3.415,33.588 L36.2921348,33.5885287 C37.3707865,33.5885287 37.9384979,34.0988319 37.9952691,35.1194382 L38,35.2942643 C38,36.4314214 37.4307116,37 36.2921348,37 L1.70786517,37 C0.629213483,37 0.0615020698,36.4896968 0.00473092844,35.4690904 L0,35.2942643 L8.89800749e-05,35.2714181 C2.96600252e-05,35.2632693 3.57491814e-13,35.2550908 3.57491814e-13,35.2468828 L3.57491814e-13,0.705735661 C3.57491814e-13,-0.371571072 0.510940272,-0.938574616 1.53282082,-0.99527497 L1.70786517,-1 Z" id="形状结合"></path>
                    <path d="M6.97348485,31.5719697 L35.0416667,31.5719697 C35.8333333,31.5719697 36.3371212,30.780303 36.3371212,29.9166667 L36.3371212,13.3636364 C36.3371212,12.7878788 36.0492424,12.2121212 35.4734848,11.9962121 C34.8977273,11.780303 34.3219697,11.9242424 33.9621212,12.3560606 L25.5416667,21.6401515 L15.969697,16.4583333 C15.4659091,16.1704545 14.8901515,16.2424242 14.4583333,16.530303 L6.03787879,22.2878788 C5.6780303,22.5757576 5.31818182,23.0075758 5.31818182,23.4393939 L5.31818182,29.9166667 C5.31818182,30.780303 6.10984848,31.5719697 6.97348485,31.5719697 Z" id="路径" fill-rule="nonzero"></path>
                </g>
            </g>
    </g>
</svg>