<?xml version="1.0" encoding="UTF-8"?>
<svg width="40px" height="40px" viewBox="0 0 40 40" version="1.1" xmlns="http://www.w3.org/2000/svg" xmlns:xlink="http://www.w3.org/1999/xlink">
    <!-- Generator: Sketch 58 (84663) - https://sketch.com -->
    
    <desc>Created with Sketch.</desc>
        <g id="图标汇总" transform="translate(-1042.000000, -316.000000)" fill-rule="nonzero">
            <g id="条形图" transform="translate(1042.000000, 316.000000)">
                <rect id="矩形" fill="#000000" opacity="0" x="0" y="0" width="40" height="40"></rect>
                <path d="M3.71433892,36.2857143 L3.71433892,1.53742857 C3.71161192,1.24698963 3.48075636,1.01015301 3.19048257,1 L1.52391365,1 C1.23115699,1.0044659 0.997035578,1.244653 1.00002838,1.53742857 L1.00002838,38.4625714 C1.00154202,38.7587679 1.24128907,38.9985153 1.53748506,39 L38.4625722,39 C38.7530107,38.997273 38.989847,38.7664171 39,38.4761429 L39,36.8095714 C38.9955341,36.5168143 38.7553474,36.2826926 38.4625722,36.2857143 L3.71433892,36.2857143 L3.71433892,36.2857143 Z M24.0633082,3.71428571 C24.8178785,3.71428571 25.4285919,4.29514286 25.4285919,5.085 L25.4285919,7.77214286 C25.4227304,8.52461561 24.8157507,9.13400969 24.0633082,9.14285714 L7.7939042,9.14285714 C7.42951801,9.14730416 7.07883312,9.00414042 6.82166576,8.74595013 C6.5644984,8.48775985 6.4227276,8.13650908 6.4284439,7.77214286 L6.4284439,5.085 C6.4284439,4.32771429 7.06104816,3.71428571 7.7939042,3.71428571 L24.0633082,3.71428571 Z M34.9258633,11.8571429 C35.6777193,11.8571429 36.2857184,12.438 36.2857184,13.2278571 L36.2857184,15.915 C36.2857184,16.6722857 35.6614336,17.2857599 34.9258633,17.2857599 L7.78576135,17.2857599 C7.42255262,17.2887035 7.07354622,17.1448051 6.81799112,16.886694 C6.56243601,16.628583 6.42201754,16.2781616 6.42839777,15.915 L6.42839777,13.2278571 C6.42839777,12.4705714 7.05290532,11.8571429 7.78847563,11.8571429 L34.9285776,11.8571429 L34.9258633,11.8571429 Z M18.6483164,20 C19.3947438,20 20.0000286,20.5808571 20.0000286,21.3707143 L20.0000286,24.0578571 C20.0066053,24.4200713 19.8669256,24.7696506 19.6125536,25.0275985 C19.3581817,25.2855463 19.0105866,25.4300919 18.6483164,25.4286182 L7.78033279,25.4286182 C7.41760256,25.4315988 7.06912225,25.2875323 6.81442062,25.0292502 C6.559719,24.770968 6.42053064,24.4205103 6.42862054,24.0578571 L6.42862054,21.3707143 C6.42862054,20.6134286 7.01219109,20 7.78033279,20 L18.6483164,20 Z M26.7857327,28.1428571 C27.5348744,28.1428571 28.1428735,28.7237143 28.1428735,29.5135714 L28.1428735,32.2007143 C28.1428735,32.958 27.5185887,33.5714286 26.7857327,33.5714286 L7.78576135,33.5714286 C7.42232378,33.5751744 7.07287352,33.4315173 6.81715248,33.1732387 C6.56143144,32.91496 6.42125868,32.5640971 6.42862054,32.2007143 L6.42862054,29.5135714 C6.42862054,28.7562857 7.05290532,28.1428571 7.78576135,28.1428571 L26.7857327,28.1428571 Z" id="形状" ></path>
        </g>
    </g>
</svg>