<?xml version="1.0" encoding="UTF-8"?>
<svg width="14px" height="14px" viewBox="0 0 14 14" version="1.1" xmlns="http://www.w3.org/2000/svg" xmlns:xlink="http://www.w3.org/1999/xlink">
    <!-- Generator: Sketch 58 (84663) - https://sketch.com -->
    <title>编辑</title>
    <desc>Created with Sketch.</desc>
        <g id="背景管理" transform="translate(-399.000000, -275.000000)">
            <g id="编辑备份-5" transform="translate(398.000000, 274.000000)">
                <rect id="矩形" opacity="0" x="0" y="0" width="16" height="16"></rect>
                <path d="M11.3909662,14 L4.43354268,14 C2.99261309,14 2,12.8242372 2,11.3738602 L2,4.37082067 C2,3.26026051 2.99261309,2 4.43354268,2 L8.35662557,2 C8.59151603,2 8.78193237,2.19041634 8.78193237,2.4253068 C8.78193237,2.66019726 8.59151603,2.8506136 8.35662557,2.8506136 L4.92056232,2.8506136 L4.92056232,2.8506136 C3.69410065,2.8506136 2.83913313,3.81402173 2.83913313,4.78093971 L2.83913313,10.7991768 C2.83913313,12.3947954 3.81671604,13.0841626 4.92056232,13.0841626 L10.9039465,13.0841626 C11.8645663,13.0841626 13.0951989,12.5104127 12.9618851,10.8810213 L12.9618851,7.51601792 C12.9618851,7.22935041 13.1942751,6.99696049 13.4809426,6.99696049 C13.7676101,6.99696049 14,7.22935041 14,7.51601792 L14,11.3738602 L14,11.3738602 C14,12.8242372 12.8318958,14 11.3909662,14 Z M12.196799,3.12635705 L12.3983988,3.35334573 C12.5192408,3.48940624 12.5139931,3.69583069 12.386394,3.82557546 L6.40260409,9.90998503 C6.27671546,10.0379905 6.07381861,10.0484003 5.93549059,9.93395071 L5.66759808,9.71230222 C5.52041283,9.59052432 5.49981612,9.37248661 5.62159401,9.22530137 C5.62827752,9.21722344 5.63532484,9.20945357 5.64271415,9.20201581 L11.6927968,3.11226606 C11.827435,2.97674515 12.0464422,2.97602954 12.1819631,3.1106677 C12.1870705,3.11574181 12.1920182,3.12097415 12.196799,3.12635705 Z" id="形状" stroke-width="0.1"></path>
            </g>
    </g>
</svg>