<?xml version="1.0" encoding="UTF-8"?>
<svg width="18px" height="18px" viewBox="0 0 18 18" version="1.1" xmlns="http://www.w3.org/2000/svg" xmlns:xlink="http://www.w3.org/1999/xlink">
    <!-- Generator: Sketch 58 (84663) - https://sketch.com -->
    <title>编组 18</title>
    <desc>Created with Sketch.</desc>
    <g id="最新版" stroke="none" stroke-width="1" fill="none" fill-rule="evenodd">
        <g id="工程设计-基础信息" transform="translate(-1202.000000, -218.000000)" fill-rule="nonzero">
            <g id="修改母版备份" transform="translate(1202.000000, 218.000000)">
                <rect id="矩形" fill="#000000" opacity="0" x="0" y="0" width="18" height="18"></rect>
                <path d="M3,13.3684577 C3,14.2450662 3.71153292,14.9565991 4.58956454,14.9565991 L6.18909053,14.9565991 L6.18909053,6.9860074 L3,6.9860074 L3,13.3684577 Z M14.1639515,3 L4.58956454,3 C3.71295598,3 3,3.71153292 3,4.58814147 L3,6.18909053 L15.7520929,6.18909053 L15.7520929,6.9860074 L6.9860074,6.9860074 L6.9860074,14.9565991 L14.1639515,14.9565991 C15.04056,14.9565991 15.753516,14.2450662 15.753516,13.3684577 L15.753516,4.58814147 C15.753516,3.71153292 15.0419831,3 14.1639515,3 Z" id="形状" fill="#0091FF"></path>
                <g id="关--闭" transform="translate(11.000000, 10.000000)" stroke="#FAFAFA">
                    <path d="M2.5,-0.0118554687 C3.88407216,-0.0118554687 5.01185547,1.11592784 5.01185547,2.5 C5.01185547,3.88407056 3.88406888,5.01185547 2.5,5.01185547 C1.11592784,5.01185547 -0.0118554687,3.88407216 -0.0118554687,2.5 C-0.0118554687,1.11592944 1.11593112,-0.0118554687 2.5,-0.0118554687 Z" id="路径" stroke-width="0.5" fill="#0091FF"></path>
                    <path d="M2.68256836,2.5 L3.65085938,1.53171387 C3.69842773,1.48414063 3.69842773,1.40471191 3.65085938,1.34914551 L3.64285645,1.34128418 C3.59439717,1.29369267 3.51674541,1.29369267 3.46828613,1.34128418 L2.5,2.31743164 L1.53171387,1.34914063 C1.48325459,1.30154912 1.40560283,1.30154912 1.35714355,1.34914063 L1.34914063,1.35714355 C1.30157227,1.40471191 1.30157227,1.48414551 1.34914063,1.53971191 L2.31743164,2.5 L1.34914063,3.46828613 C1.30157227,3.51585938 1.30157227,3.59528809 1.34914063,3.65085449 L1.35714355,3.65885742 C1.40560283,3.70644893 1.48325459,3.70644893 1.53171387,3.65885742 L2.5,2.68271484 L3.46828613,3.65100098 C3.51674541,3.69859249 3.59439717,3.69859249 3.64285645,3.65100098 L3.65085938,3.64299805 C3.69842773,3.59542969 3.69842773,3.51599609 3.65085938,3.46042969 L2.68256836,2.5 Z" id="路径" stroke-width="0.2" fill="#FFFFFF"></path>
                </g>
            </g>
        </g>
    </g>
</svg>