<?xml version="1.0" encoding="UTF-8"?>
<svg width="15px" height="16px" viewBox="0 0 15 16" version="1.1" xmlns="http://www.w3.org/2000/svg" xmlns:xlink="http://www.w3.org/1999/xlink">
    <!-- Generator: Sketch 63.1 (92452) - https://sketch.com -->
    <title>复制</title>
    <desc>Created with Sketch.</desc>
        <g id="工程设计-基础信息" transform="translate(-1008.000000, -214.000000)" fill-rule="nonzero">
            <g id="复制" transform="translate(1006.000000, 212.000000)">
                <rect id="矩形" fill="#000000" opacity="0" x="0" y="0" width="18" height="18"></rect>
                <path d="M10.5713258,10.6643012 L10.5713258,13.3402597 C10.5713258,13.6037088 10.3577582,13.8172764 10.0943091,13.8172764 C9.83086002,13.8172764 9.61729235,13.6037088 9.61729235,13.3402597 L9.61729235,10.6643012 L6.87786338,10.6052596 C6.62496969,10.5913785 6.42702037,10.382266 6.42702037,10.1289917 C6.42702037,9.8757173 6.62496969,9.66660478 6.87786338,9.65272369 L9.56118211,9.65272369 L9.62025558,6.91769177 C9.61057373,6.74130202 9.69917305,6.57400584 9.85052108,6.4828968 C10.0018691,6.39178776 10.191178,6.39178776 10.342526,6.4828968 C10.4938741,6.57400584 10.5824734,6.74130202 10.5727915,6.91769177 L10.5727915,9.59365022 L13.3122205,9.65272369 C13.5651142,9.66660478 13.7630635,9.8757173 13.7630635,10.1289917 C13.7630635,10.382266 13.5651142,10.5913785 13.3122205,10.6052596 L10.6303674,10.6052596 L10.5713258,10.6643012 L10.5713258,10.6643012 Z M3.033754,12.8543851 C3.033754,13.1398484 2.80234028,13.3712621 2.516877,13.3712621 C2.23141371,13.3712621 2,13.1398484 2,12.8543851 L2,3.99365022 C2,2.89196491 2.89199677,2 3.99368208,2 L12.854417,2 C13.138288,2.00222884 13.3672358,2.23298133 13.3672358,2.51686107 C13.3672358,2.8007408 13.138288,3.03149329 12.854417,3.03372213 L3.99368208,3.03372213 C3.46352844,3.03372213 3.033754,3.46349658 3.033754,3.99365022 L3.033754,12.8543851 L3.033754,12.8543851 Z M5.66242817,5.25630597 C5.41775025,5.25630597 5.21940895,5.45467914 5.21940895,5.69935706 L5.21940895,14.5600919 C5.21940895,14.8047823 5.41776967,15.003143 5.66246003,15.003143 L14.5231949,15.003143 C14.7678853,15.003143 14.966246,14.8047823 14.966246,14.5600919 L14.966246,5.69935706 C14.966246,5.4546667 14.7678853,5.25630597 14.5231949,5.25630597 L5.66246003,5.25630597 L5.66242817,5.25630597 Z M5.66242817,4.22255198 L14.5231949,4.22255198 C15.3388118,4.22255198 16,4.88374013 16,5.69935706 L16,14.5600919 C16,14.951765 15.8444085,15.3273962 15.5674538,15.6043508 C15.2904991,15.8813055 14.914868,16.036897 14.5231949,16.036897 L5.66246003,16.036897 C5.27078697,16.036897 4.89515582,15.8813055 4.61820114,15.6043508 C4.34124647,15.3273962 4.18565495,14.951765 4.18565495,14.5600919 L4.18565495,5.69935706 C4.18565495,4.88374013 4.84684311,4.22255198 5.66246003,4.22255198 L5.66242817,4.22255198 Z" id="形状"></path>
            </g>
        </g>
</svg>