<?xml version="1.0" encoding="UTF-8"?>
<svg width="18px" height="18px" viewBox="0 0 18 16" version="1.1" xmlns="http://www.w3.org/2000/svg" xmlns:xlink="http://www.w3.org/1999/xlink">
    <!-- Generator: Sketch 63.1 (92452) - https://sketch.com -->
    <title>编辑</title>
    <desc>Created with Sketch.</desc>
        <g id="工程设计-基础信息" transform="translate(-980.000000, -214.000000)" fill-rule="nonzero">
            <g id="编辑备份-5" transform="translate(978.000000, 212.000000)">
                <rect id="矩形" opacity="0" x="0" y="0" width="18" height="18"></rect>
                <path d="M12.814837,15.75 L4.98773551,15.75 C3.36668973,15.75 2.25,14.4272668 2.25,12.7955927 L2.25,4.91717325 C2.25,3.66779307 3.36668973,2.25 4.98773551,2.25 L9.40120377,2.25 C9.66545553,2.25 9.87967392,2.46421838 9.87967392,2.72847015 C9.87967392,2.99272192 9.66545553,3.2069403 9.40120377,3.2069403 L5.53563262,3.2069403 L5.53563262,3.2069403 C4.15586323,3.2069403 3.19402477,4.29077445 3.19402477,5.37855718 L3.19402477,12.1490739 C3.19402477,13.9441448 4.29380555,14.7196829 5.53563262,14.7196829 L12.2669399,14.7196829 C13.347637,14.7196829 14.7320988,14.0742143 14.5821208,12.2411489 L14.5821208,8.45552016 C14.5821208,8.13301921 14.8435595,7.87158055 15.1660604,7.87158055 C15.4885613,7.87158055 15.75,8.13301921 15.75,8.45552016 L15.75,12.7955927 L15.75,12.7955927 C15.75,14.4272668 14.4358827,15.75 12.814837,15.75 Z M13.6908362,3.48274003 L13.9750346,3.80272959 C14.0958766,3.93879009 14.090629,4.14521454 13.9630298,4.27495932 L7.1751095,11.1770211 C7.04922086,11.3050266 6.84632401,11.3154364 6.70799599,11.2009868 L6.3395598,10.8961506 C6.19237456,10.7743727 6.17177784,10.556335 6.29355574,10.4091497 C6.30023924,10.4010718 6.30728656,10.3933019 6.31467587,10.3858642 L13.186834,3.46864903 C13.3214722,3.33312812 13.5404794,3.33241252 13.6760003,3.46705068 C13.6811077,3.47212479 13.6860554,3.47735712 13.6908362,3.48274003 Z" id="形状" stroke="#1F4170" stroke-width="0.1"></path>
            </g>
        </g>
</svg>