<?xml version="1.0" encoding="UTF-8"?>
<svg width="18px" height="18px" viewBox="0 0 18 18" version="1.1" xmlns="http://www.w3.org/2000/svg" xmlns:xlink="http://www.w3.org/1999/xlink">
    <!-- Generator: Sketch 58 (84663) - https://sketch.com -->
    <title>编组 18</title>
    <desc>Created with Sketch.</desc>
    <g id="最新版" stroke="none" stroke-width="1" fill="none" fill-rule="evenodd">
        <g id="工程设计-基础信息" transform="translate(-1174.000000, -218.000000)" fill-rule="nonzero">
            <g id="修改母版" transform="translate(1174.000000, 218.000000)">
                <rect id="矩形" fill="#000000" opacity="0" x="0" y="0" width="18" height="18"></rect>
                <path d="M3,13.3684577 C3,14.2450662 3.71153292,14.9565991 4.58956454,14.9565991 L6.18909053,14.9565991 L6.18909053,6.9860074 L3,6.9860074 L3,13.3684577 Z M14.1639515,3 L4.58956454,3 C3.71295598,3 3,3.71153292 3,4.58814147 L3,6.18909053 L15.7520929,6.18909053 L15.7520929,6.9860074 L6.9860074,6.9860074 L6.9860074,14.9565991 L14.1639515,14.9565991 C15.04056,14.9565991 15.753516,14.2450662 15.753516,13.3684577 L15.753516,4.58814147 C15.753516,3.71153292 15.0419831,3 14.1639515,3 Z" id="形状" fill="#0091FF"></path>
            </g>
        </g>
    </g>
</svg>