<?xml version="1.0" encoding="UTF-8"?>
<svg width="22px" height="22px" viewBox="0 0 22 22" version="1.1" xmlns="http://www.w3.org/2000/svg" xmlns:xlink="http://www.w3.org/1999/xlink">
    <!-- Generator: Sketch 58 (84663) - https://sketch.com -->
    <title>编组 14</title>
    <desc>Created with Sketch.</desc>
    <g id="页面-1" stroke="none" stroke-width="1" fill="none" fill-rule="evenodd">
        <g id="数据管理-展开" transform="translate(-24.000000, -496.000000)" fill="#FFFFFF">
            <g id="编组-14" transform="translate(24.000000, 496.000000)">
                <polygon id="矩形" fill-opacity="0.01" points="0 -4.88498131e-15 22 -4.88498131e-15 22 22 0 22"></polygon>
                <g id="分组-4" transform="translate(2.000000, 2.000000)" fill-rule="nonzero">
                    <path d="M3.47113758,18.6554555 C2.94922945,18.6554555 2.52613931,18.2323653 2.52613931,17.7104572 L2.52613931,1.32384921 C2.52613931,0.801941072 2.94922944,0.378850922 3.47113758,0.378850922 L17.0840624,0.378850922 C17.6059705,0.378850922 18.0290606,0.801941072 18.0290606,1.32384921 L18.0290606,17.7107272 C18.0290606,18.2326353 17.6059705,18.6557255 17.0840624,18.6557255 L3.47113758,18.6554555 Z M16.8950627,1.89084816 C16.8950627,1.68208491 16.7258267,1.51284886 16.5170634,1.51284886 L4.03813655,1.51284886 C3.8293733,1.51284886 3.66013723,1.68208491 3.66013723,1.89084816 L3.66013723,17.1437282 C3.66013723,17.3524915 3.82937329,17.5217276 4.03813655,17.5217276 L16.5173334,17.5217276 C16.7260967,17.5217276 16.8953327,17.3524915 16.8953327,17.1437282 L16.8950627,1.89084816 Z" id="形状" stroke="#FFFFFF" stroke-width="0.2"></path>
                    <path d="M2.54769992,8.88005682 C2.54769992,9.11846638 2.80095945,9.31205604 3.11307889,9.31205604 C3.42519834,9.31205604 3.68007786,9.1187364 3.68007786,8.88005682 L3.68007786,5.5077891 C3.68007786,5.26937954 3.42681833,5.07578988 3.11307889,5.07578988 C2.79933945,5.07578988 2.54769992,5.26910952 2.54769992,5.5077891 L2.54769992,8.88005682 Z" id="路径" stroke="#FFFFFF" stroke-width="0.1" transform="translate(3.113889, 7.193923) rotate(90.000000) translate(-3.113889, -7.193923) "></path>
                    <path d="M2.54769992,14.7719664 C2.54769992,15.0103759 2.80095945,15.2039656 3.11307889,15.2039656 C3.42519834,15.2039656 3.68007786,15.0106459 3.68007786,14.7719664 L3.68007786,11.3996987 C3.68007786,11.1612891 3.42681833,10.9676994 3.11307889,10.9676994 C2.79933945,10.9676994 2.54769992,11.1610191 2.54769992,11.3996987 L2.54769992,14.7719664 Z" id="路径备份-5" stroke="#FFFFFF" stroke-width="0.1" transform="translate(3.113889, 13.085833) rotate(90.000000) translate(-3.113889, -13.085833) "></path>
                    <path d="M9.52325754,14.4607847 C9.52325754,14.6991942 9.77651707,14.8927839 10.0886365,14.8927839 C10.400756,14.8927839 10.6556355,14.6994642 10.6556355,14.4607847 L10.6556355,9.89807405 C10.6556355,9.65966449 10.402376,9.46607483 10.0886365,9.46607483 C9.77489708,9.46607483 9.52325754,9.65939447 9.52325754,9.89807405 L9.52325754,14.4607847 Z" id="路径备份-7" stroke="#FFFFFF" stroke-width="0.1" transform="translate(10.089447, 12.179429) rotate(90.000000) translate(-10.089447, -12.179429) "></path>
                    <path d="M10.1771177,17.6356752 C10.1771177,17.8740847 10.4303772,18.0676744 10.7424967,18.0676744 C11.0546161,18.0676744 11.3094957,17.8743548 11.3094957,17.6356752 L11.3103057,11.7644342 C11.3103057,11.5260247 11.0570461,11.332435 10.7433067,11.332435 C10.4295672,11.332435 10.1779277,11.5257547 10.1779277,11.7644342 L10.1771177,17.6356752 Z" id="路径备份-8" stroke="#FFFFFF" stroke-width="0.1" transform="translate(10.743712, 14.700055) rotate(90.000000) translate(-10.743712, -14.700055) "></path>
                    <path d="M12.802801,6.35087277 L9.07298155,9.81177111 C9.0495971,9.82930945 9.02621265,9.84684779 8.99698209,9.85854001 C8.93267486,9.88192446 8.87421374,9.89361668 8.81575262,9.89361668 C8.72221482,9.89361668 8.64621537,9.86438612 8.59360036,9.805925 C8.50590868,9.72407943 8.5176009,9.61884942 8.52344701,9.58961885 C8.52344701,9.57792663 8.52929312,9.56623441 8.53513924,9.55454218 L9.35359493,7.4791724 L7.86283635,7.4791724 C7.68745299,7.4791724 7.61145353,7.39732683 7.58222297,7.35055793 C7.52376185,7.25702014 7.55299241,7.15763623 7.60560742,7.093329 C7.61145353,7.08748289 7.61145353,7.08163678 7.61729964,7.07579067 L10.7975846,3.77273735 C10.8151229,3.75519901 10.8326613,3.74350679 10.8560457,3.73181456 C10.8794302,3.72012234 10.972968,3.67919955 11.0723519,3.67919955 C11.1658897,3.67919955 11.2418891,3.70843011 11.3003502,3.76689123 C11.3646575,3.83119847 11.393888,3.92473626 11.3821958,4.0416585 L11.3821958,4.05919684 L10.9554296,5.91241436 L12.6098793,5.92410659 L12.6274177,5.92410659 C12.7852627,5.93579881 12.8495699,6.02349049 12.8729544,6.05856717 C12.9255694,6.17548941 12.8495699,6.29241165 12.8261855,6.32748832 C12.8203394,6.33333443 12.8144933,6.34502666 12.802801,6.35087277 Z" id="路径备份-6"></path>
                </g>
            </g>
        </g>
    </g>
</svg>