<?xml version="1.0" encoding="UTF-8"?>
<svg width="40px" height="40px" viewBox="0 0 40 40" version="1.1" xmlns="http://www.w3.org/2000/svg" xmlns:xlink="http://www.w3.org/1999/xlink">
    <!-- Generator: Sketch 63.1 (92452) - https://sketch.com -->
    <title>立体柱状图</title>
    <desc>Created with Sketch.</desc>
        <g id="图标汇总" transform="translate(-1184.000000, -807.000000)">
            <g id="堆叠柱状图备份-2" transform="translate(1184.000000, 807.000000)">
                <rect id="矩形"  fill-rule="nonzero" opacity="0" x="0" y="0" width="40" height="40"></rect>
                <g id="编组-16">
                    <path d="M0,39.9720536 L4.46428566e-05,-2.30418859e-13 L3.1228125,-2.30418859e-13 L3.122,36.849 L39.9720982,36.8492857 L39.9720982,39.9720536 L0,39.9720536 Z" id="形状结合"  fill-rule="nonzero"></path>
                    <g id="分组-90-copy-4" transform="translate(7.429330, 6.241339)">
                        <polygon id="路径"  points="8.09314823 27.770655 2.44944021 28.5565206 2.53219884 2.10629017 8.17590685 1.32042458"></polygon>
                        <polygon id="路径"  points="0 27.236096 0.0827586207 0.785865596 2.53219884 2.10629017 2.44944021 28.5565206"></polygon>
                        <polygon id="路径"  points="0.0827586207 0.785865596 5.72646664 -3.54635888e-13 8.17590685 1.32042458 2.53219884 2.10629017"></polygon>
                    </g>
                    <g id="分组-90-copy-4备份" transform="translate(18.857902, 13.098482)">
                        <polygon id="路径"  points="8.09314823 20.9135121 2.44944021 21.6993777 2.53219884 2.10629017 8.17590685 1.32042458"></polygon>
                        <polygon id="路径"  points="0 20.3789531 0.0827586207 0.785865596 2.53219884 2.10629017 2.44944021 21.6993777"></polygon>
                        <polygon id="路径"  points="0.0827586207 0.785865596 5.72646664 6.02258608e-13 8.17590685 1.32042458 2.53219884 2.10629017"></polygon>
                    </g>
                    <g id="分组-90-copy-4备份-2" transform="translate(30.286473, 13.098482)">
                        <polygon id="路径"  points="8.09314823 20.9135121 2.44944021 21.6993777 2.53219884 2.10629017 8.17590685 1.32042458"></polygon>
                        <polygon id="路径"  points="0 20.3789531 0.0827586207 0.785865596 2.53219884 2.10629017 2.44944021 21.6993777"></polygon>
                        <polygon id="路径"  points="0.0827586207 0.785865596 5.72646664 6.02258608e-13 8.17590685 1.32042458 2.53219884 2.10629017"></polygon>
                    </g>
                </g>
            </g>
    </g>
</svg>