<?xml version="1.0" encoding="UTF-8"?>
<svg width="40px" height="40px" viewBox="0 0 40 40" version="1.1" xmlns="http://www.w3.org/2000/svg" xmlns:xlink="http://www.w3.org/1999/xlink">
    <!-- Generator: Sketch 58 (84663) - https://sketch.com -->
    <title>矩形</title>
    <desc>Created with Sketch.</desc>
        <g id="工程设计-基础信息" transform="translate(-156.000000, -899.000000)">
            <g id="仪表盘-(2)" transform="translate(156.000000, 899.000000)">
                <rect id="矩形" fill="#000000" opacity="0" x="0" y="0" width="40" height="40"></rect>
                <path d="M16.4550095,27.7333096 L19.6688948,30.58064 L22.3079947,27.7333096 L19.4972506,9.23945754 L19.4432793,9.23945754 L16.4550095,27.7333096 Z M19.3815237,3.75 C8.67739508,3.75 0,12.4273951 0,23.1315237 C0,28.1594145 1.91463941,32.740053 5.05444392,36.1843973 L7.81329258,34.4146327 C5.16402982,31.6989005 3.4633294,28.0537208 3.24584422,24.0143519 L5.73051191,24.0143519 L5.73051191,22.4321893 L3.23702199,22.4321893 C3.59207337,14.0944499 10.2647472,7.3924552 18.5904641,6.99113038 L18.5904641,9.23950079 L20.1726267,9.23950079 L20.1726267,6.99113038 C28.4983003,7.39249845 35.1709741,14.0944499 35.5260255,22.4321893 L33.025573,22.4321893 L33.025573,24.0143519 L35.5172033,24.0143519 C35.3020966,28.0094799 33.6361229,31.6189815 31.0364636,34.3250698 L33.7086036,36.1843973 C36.8484081,32.740053 38.7630475,28.1594145 38.7630475,23.1315237 C38.7630475,12.4273951 30.0856092,3.75 19.3815237,3.75 Z"></path>
        </g>
    </g>
</svg>