<?xml version="1.0" encoding="UTF-8"?>
<svg width="19px" height="19px" viewBox="0 0 19 19" version="1.1" xmlns="http://www.w3.org/2000/svg" xmlns:xlink="http://www.w3.org/1999/xlink">
    <!-- Generator: Sketch 58 (84663) - https://sketch.com -->
    <desc>Created with Sketch.</desc>
    <g id="页面-1" stroke="none" stroke-width="1" fill="none" fill-rule="evenodd">
        <g id="数据管理-展开" transform="translate(-26.000000, -109.000000)" fill-rule="nonzero">
            <g id="资源管理备份-2" transform="translate(24.000000, 107.000000)">
                <rect id="矩形" fill-opacity="0.01" fill="#2E314F" opacity="0.01" x="0" y="0" width="22" height="22"></rect>
                <path d="M9.84546495,2.27948922 C10.0231704,2.17350359 10.2463353,2.17350359 10.4240407,2.27948922 L10.4240407,2.27948922 L17.7843504,6.61866547 C17.9620558,6.72257295 18.0695056,6.91376271 18.0695056,7.11949951 L18.0695056,7.11949951 L18.0695056,11.4773791 L16.7470468,11.4773791 L16.7470468,8.36223294 L10.7959822,11.8493679 L10.7959822,18.8714352 L11.4613443,18.4807431 L11.4634106,18.4807431 L11.4634106,20.0351989 L10.4240407,20.6482531 C10.2463353,20.7542387 10.0231704,20.7542387 9.84546495,20.6482531 L9.84546495,20.6482531 L2.48515518,16.3090768 C2.30744978,16.2051693 2.2,16.0139796 2.2,15.8082428 L2.2,15.8082428 L2.2,7.11949951 C2.2,6.91376271 2.30744978,6.72257295 2.48515518,6.61866547 L2.48515518,6.61866547 Z M20.0531938,18.1378484 C20.4189363,18.1378484 20.7144232,18.4350238 20.7144232,18.8028563 C20.7144232,19.1706887 20.4189363,19.4678641 20.0531938,19.4678641 L13.4822267,19.4678641 C13.1164841,19.4678641 12.8209973,19.1706887 12.8209973,18.8028563 C12.8209973,18.4350238 13.1164841,18.1378484 13.4822267,18.1378484 L20.0531938,18.1378484 Z M3.5224588,8.36223294 L3.5224588,15.3635188 L9.47352341,18.8714352 L9.47352341,11.8493679 L3.5224588,8.36223294 Z M20.0531938,15.4840514 C20.4189363,15.4840514 20.7144232,15.7812268 20.7144232,16.1490593 C20.7144232,16.5168918 20.4189363,16.8140671 20.0531938,16.8140671 L13.4822267,16.8140671 C13.1164841,16.8140671 12.8209973,16.5168918 12.8209973,16.1490593 C12.8209973,15.7812268 13.1164841,15.4840514 13.4822267,15.4840514 L20.0531938,15.4840514 Z M20.0531938,12.8323326 C20.4189363,12.8323326 20.7144232,13.129508 20.7144232,13.4973405 C20.7144232,13.8651729 20.4189363,14.1623483 20.0531938,14.1623483 L13.4822267,14.1623483 C13.1164841,14.1623483 12.8209973,13.8651729 12.8209973,13.4973405 C12.8209973,13.129508 13.1164841,12.8323326 13.4822267,12.8323326 L20.0531938,12.8323326 Z M10.1347528,3.66769312 L4.16095844,7.1901566 L10.1347528,10.6918386 L16.1085472,7.1901566 L10.1347528,3.66769312 Z" id="形状结合" fill="#FFFFFF"></path>
            </g>
        </g>
    </g>
</svg>