<?xml version="1.0" encoding="UTF-8"?>
<svg width="37px" height="37px" viewBox="0 0 37 37" version="1.1" xmlns="http://www.w3.org/2000/svg" xmlns:xlink="http://www.w3.org/1999/xlink">
    <!-- Generator: Sketch 63.1 (92452) - https://sketch.com -->
    <title>日期时间</title>
    <desc>Created with Sketch.</desc>
        <g id="图标汇总" transform="translate(-1185.000000, -684.000000)" fill-rule="nonzero">
            <g id="时钟" transform="translate(1183.000000, 682.000000)">
                <rect id="矩形" fill="#000000" opacity="0" x="0" y="0" width="40" height="40"></rect>
                <path d="M34.8579707,14.163768 C34.6999997,13.531884 33.5942026,12.1101448 33.1202896,11.7942028 L35.1739127,10.2144927 C35.9637678,10.6884057 36.9115938,12.5840579 37.0695649,13.3739129 L34.8579707,14.163768 L34.8579707,14.163768 Z M25.853623,37.5434779 L25.0637679,35.0159417 C26.011594,34.6999997 27.1173911,34.2260867 27.9072461,33.7521736 L29.1710142,35.9637678 C28.2231882,36.5956519 27.1173911,37.0695649 25.853623,37.5434779 L25.853623,37.5434779 Z M32.3304345,33.7521736 L30.5927534,31.8565214 C31.3826084,31.0666664 32.1724635,30.2768113 32.8043475,29.4869563 L34.8579707,31.0666664 C34.0681157,32.0144925 33.2782606,32.9623185 32.3304345,33.7521736 L32.3304345,33.7521736 Z M36.7536229,27.7492751 L34.3840577,26.643478 C34.8579707,25.6956519 35.1739127,24.5898548 35.4898548,23.6420288 L38.0173909,24.2739128 C37.7014489,25.3797099 37.2275359,26.643478 36.7536229,27.7492751 Z M38.333333,20.4826085 L35.8057968,20.4826085 L35.8057968,20.1666665 C35.8057968,19.2188404 35.6478258,18.2710143 35.4898548,17.3231883 L38.0173909,16.8492752 C38.175362,17.9550723 38.333333,19.0608694 38.333333,20.1666665 L38.333333,20.4826085 L38.333333,20.4826085 Z M20.1666665,38.333333 L20.1666665,35.8057968 C20.7985506,35.8057968 21.4304346,35.8057968 21.9043476,35.6478258 L22.2202897,38.175362 C21.5884056,38.333333 20.7985506,38.333333 20.1666665,38.333333 L20.1666665,38.333333 Z M32.9623185,2.31594205 L32.6463765,9.10869558 L25.853623,8.79275357 L32.9623185,2.31594205 Z M20.7985506,8.31884053 C14.321739,8.31884053 9.10869558,13.531884 9.10869558,20.0086955 C9.10869558,26.485507 14.321739,31.6985505 20.7985506,31.6985505 C27.2753621,31.6985505 32.4884055,26.485507 32.4884055,20.0086955 C32.4884055,13.531884 27.2753621,8.31884053 20.7985506,8.31884053 Z M28.2231882,22.8521737 L18.9028984,22.8521737 L18.9028984,12.7420289 L21.4304346,12.7420289 L21.4304346,20.3246375 L28.2231882,20.3246375 L28.2231882,22.8521737 L28.2231882,22.8521737 Z M20.1666665,38.333333 C10.0565217,38.333333 2,30.2768113 2,20.1666665 C2,10.0565217 10.0565217,2 20.1666665,2 C23.6420288,2 27.1173911,2.94782608 30.1188403,5.00144926 L28.6971012,7.21304343 C26.169565,5.63333329 23.1681158,4.68550721 20.1666665,4.68550724 C11.4782608,4.68550724 4.52753622,11.6362318 4.52753622,20.3246375 C4.52753622,29.0130432 11.4782608,35.9637678 20.1666665,35.9637678 L20.1666665,38.333333 Z" id="形状" ></path>
            </g>
        </g>
</svg>