<?xml version="1.0" encoding="UTF-8"?>
<svg width="40px" height="40px" viewBox="0 0 40 40" version="1.1" xmlns="http://www.w3.org/2000/svg" xmlns:xlink="http://www.w3.org/1999/xlink">
    <!-- Generator: Sketch 58 (84663) - https://sketch.com -->
    
    <desc>Created with Sketch.</desc>
        <g id="图标汇总" transform="translate(-181.000000, -316.000000)" fill-rule="nonzero">
            <g id="看板" transform="translate(181.000000, 316.000000)">
                <rect id="矩形" fill="#000000" opacity="0" x="0" y="0" width="40" height="40"></rect>
                <path d="M30.1552632,37 L9.84473684,37 C8.93056024,37 8.18947368,36.2511503 8.18947368,35.3273974 C8.18947368,34.4036444 8.93056024,33.6547947 9.84473684,33.6547947 L30.1552632,33.6547947 C31.0694398,33.6547947 31.8105263,34.4036444 31.8105263,35.3273974 C31.8105263,36.2511503 31.0694398,37 30.1552632,37 Z M35.1769737,4.00000089 L4.82302632,4.00000089 C4.3400042,3.99952197 3.87657682,4.19295174 3.53469301,4.53773869 C3.19280921,4.88252564 3.00047436,5.35042658 3,5.83850853 L3,29.736836 C3.00047436,30.224918 3.19280921,30.6928189 3.53469301,31.0376058 C3.87657682,31.3823928 4.3400042,31.5758226 4.82302632,31.5753436 L35.1769737,31.5753436 C35.6599958,31.5758226 36.1234232,31.3823928 36.465307,31.0376058 C36.8071908,30.6928189 36.9995256,30.224918 37,29.736836 L37,5.83850853 C36.9995256,5.35042658 36.8071908,4.88252564 36.465307,4.53773869 C36.1234232,4.19295174 35.6599958,3.99952197 35.1769737,4.00000089 Z M31.5577632,22.7010556 C30.916706,22.9959072 30.1604397,22.7104996 29.8676053,22.0632063 L26.6143421,14.8565491 C26.5588561,14.7334266 26.4411221,14.6508746 26.3075629,14.6414435 C26.1740036,14.6320125 26.0460513,14.6972158 25.9741579,14.8113437 L20.3775789,23.7547952 C20.2691517,23.9278284 20.0944215,24.047531 19.8952087,24.0852533 C19.6959958,24.1229755 19.4902294,24.0753224 19.3271579,23.9536993 L13.6728684,19.7346722 C13.5303638,19.6283261 13.3328667,19.6407156 13.2044737,19.7640557 L10.0330789,22.8054802 C9.5236108,23.2964424 8.71672777,23.277114 8.23085526,22.762309 C7.74498275,22.247504 7.7641108,21.4321685 8.27357895,20.9412063 L12.7763421,16.6204669 C13.0332483,16.3743541 13.4278128,16.3497807 13.7126842,16.5621518 L18.8721842,20.4095899 C18.9741624,20.4855467 19.1027798,20.5152936 19.2273022,20.4917225 C19.3518247,20.4681514 19.4610656,20.3933798 19.5289211,20.2852749 L25.9786316,9.98385077 C26.1220445,9.75542417 26.3776766,9.62462841 26.6447694,9.64301719 C26.9118622,9.66140597 27.1475747,9.82602977 27.259,10.0720015 L32.1903421,20.9972611 C32.3304795,21.307906 32.3425408,21.6621276 32.2238648,21.9817707 C32.1051888,22.3014138 31.8655288,22.5602089 31.5577632,22.7010556 Z" id="形状"></path>
            </g>
    </g>
</svg>