<?xml version="1.0" encoding="UTF-8"?>
<svg width="40px" height="40px" viewBox="0 0 40 40" version="1.1" xmlns="http://www.w3.org/2000/svg" xmlns:xlink="http://www.w3.org/1999/xlink">
    <!-- Generator: Sketch 58 (84663) - https://sketch.com -->
    <title>矩形</title>
    <desc>Created with Sketch.</desc>
    <defs>
        <path d="M17.4935216,34.1379567 C15.2510397,34.1379567 13.0757813,33.6970072 11.0264724,32.8319351 C9.04855168,31.996268 7.27221755,30.7952464 5.74365986,29.2708534 C4.21926683,27.7465024 3.01824519,25.9701683 2.18257813,23.9880409 C1.31750601,21.938732 0.87655649,19.7634736 0.87655649,17.5210337 C0.87655649,15.2785096 1.31750601,13.1032512 2.18257813,11.0539423 C3.01824519,9.07602163 4.21926683,7.2996875 5.74365986,5.77112981 C7.26801082,4.24673678 9.04434495,3.04571514 11.0264724,2.21004808 C13.0715745,1.34497596 15.2510397,0.904026442 17.4934796,0.904026442 C19.7359195,0.904026442 21.911262,1.34497596 23.9605709,2.21004808 C25.9384916,3.04571514 27.7148257,4.24673678 29.2433834,5.77112981 C30.7677764,7.29552284 31.9687981,9.07185697 32.8044651,11.0539423 C33.6695373,13.1032512 34.1104868,15.2785096 34.1104868,17.5209916 C34.1104868,19.7634736 33.6695373,21.938732 32.8044651,23.9880409 C31.9687981,25.9659615 30.7677764,27.7422957 29.2433834,29.2708534 C27.7189904,30.7952464 25.9426563,31.996268 23.9605709,32.8319351 C21.911262,33.6970072 19.7360036,34.1379567 17.4935216,34.1379567 Z M17.4935216,2.24365986 C9.06954327,2.24365986 2.21614784,9.09705529 2.21614784,17.5209916 C2.21614784,25.9449279 9.06954327,32.7983654 17.4935216,32.7983654 C25.9175,32.7983654 32.7708534,25.94497 32.7708534,17.5209916 C32.7708534,9.09701322 25.9174579,2.24365986 17.4935216,2.24365986 Z" id="path-1"></path>
        <polygon id="path-3" points="0 0 32.5 0 32.5 5 16.25 7.46597843 0 5"></polygon>
    </defs>
    <g id="最新版" stroke="none" stroke-width="1">
        <g id="工程设计-基础信息" transform="translate(-156.000000, -1019.000000)">
            <g id="水球图" transform="translate(156.000000, 1019.000000)">
                <rect id="矩形" fill="#000000" opacity="0" x="0" y="0" width="40" height="40"></rect>
                <g id="分组-7" transform="translate(2.500000, 2.500000)">
                    <mask id="mask-2" fill="white">
                        <use xlink:href="#path-1"></use>
                    </mask>
                    <use id="形状" fill-rule="nonzero" xlink:href="#path-1"></use>
                    <path d="M7.43125,10.7175 L12.1,10.7175 L12.1,11.53875 L8.185,11.53875 L7.915,14.2275 L7.96,14.2275 C8.185,13.9575 8.4775,13.755 8.82625,13.62 C9.14125,13.485 9.47875,13.42875 9.85,13.42875 C10.615,13.42875 11.23375,13.665 11.70625,14.14875 C12.17875,14.64375 12.42625,15.31875 12.42625,16.185 C12.42625,16.995 12.13375,17.65875 11.56,18.17625 C11.02,18.66 10.345,18.9075 9.5575,18.9075 C8.84875,18.9075 8.24125,18.71625 7.74625,18.33375 C7.18375,17.90625 6.88,17.32125 6.82375,16.59 L7.735,16.59 C7.78,17.09625 7.9825,17.49 8.3425,17.76 C8.6575,17.99625 9.07375,18.12 9.56875,18.12 C10.13125,18.12 10.5925,17.94 10.96375,17.58 C11.32375,17.22 11.515,16.75875 11.515,16.19625 C11.515,15.555 11.335,15.06 10.9975,14.71125 C10.67125,14.35125 10.21,14.1825 9.625,14.1825 C9.2425,14.1825 8.905,14.26125 8.60125,14.43 C8.28625,14.5875 8.03875,14.835 7.88125,15.15 L7.00375,15.15 L7.43125,10.7175 Z M15.6212578,10.56 C16.5775078,10.56 17.2975078,10.97625 17.7925078,11.83125 C18.2200078,12.55125 18.4337578,13.51875 18.4337578,14.73375 C18.4337578,15.94875 18.2200078,16.91625 17.7925078,17.63625 C17.2975078,18.48 16.5775078,18.9075 15.6212578,18.9075 C14.6537578,18.9075 13.9337578,18.48 13.4500078,17.63625 C13.0225078,16.91625 12.8087578,15.94875 12.8087578,14.73375 C12.8087578,13.51875 13.0225078,12.55125 13.4500078,11.83125 C13.9337578,10.97625 14.6537578,10.56 15.6212578,10.56 Z M15.6212578,11.3475 C14.9012578,11.3475 14.3837578,11.73 14.0687578,12.50625 C13.8437578,13.04625 13.7312578,13.78875 13.7312578,14.73375 C13.7312578,15.6675 13.8437578,16.41 14.0687578,16.96125 C14.3837578,17.72625 14.9012578,18.12 15.6212578,18.12 C16.3412578,18.12 16.8587578,17.72625 17.1737578,16.96125 C17.3987578,16.41 17.5225078,15.6675 17.5225078,14.73375 C17.5225078,13.78875 17.3987578,13.04625 17.1737578,12.50625 C16.8587578,11.73 16.3412578,11.3475 15.6212578,11.3475 Z M26.2975078,14.35125 C26.8937578,14.35125 27.3550078,14.565 27.6812578,15.015 C27.9625078,15.3975 28.1087578,15.915 28.1087578,16.55625 C28.1087578,17.18625 27.9625078,17.70375 27.6812578,18.0975 C27.3550078,18.525 26.8937578,18.75 26.2975078,18.75 C25.6900078,18.75 25.2287578,18.525 24.9137578,18.0975 C24.6212578,17.6925 24.4862578,17.18625 24.4862578,16.55625 C24.4862578,15.915 24.6212578,15.3975 24.9137578,15.015 C25.2287578,14.565 25.6900078,14.35125 26.2975078,14.35125 Z M25.3300078,10.56 L26.0500078,10.56 L21.5500078,18.9075 L20.8187578,18.9075 L25.3300078,10.56 Z M20.5825078,10.7175 C21.1787578,10.7175 21.6400078,10.93125 21.9662578,11.38125 C22.2475078,11.76375 22.3937578,12.28125 22.3937578,12.9225 C22.3937578,13.5525 22.2475078,14.07 21.9662578,14.46375 C21.6400078,14.89125 21.1787578,15.11625 20.5825078,15.11625 C19.9750078,15.11625 19.5137578,14.89125 19.1987578,14.46375 C18.9062578,14.05875 18.7712578,13.5525 18.7712578,12.9225 C18.7712578,12.28125 18.9062578,11.76375 19.1987578,11.38125 C19.5137578,10.93125 19.9750078,10.7175 20.5825078,10.7175 Z M26.2975078,14.95875 C25.9487578,14.95875 25.7012578,15.11625 25.5437578,15.43125 C25.3975078,15.70125 25.3300078,16.0725 25.3300078,16.55625 C25.3300078,17.0175 25.3975078,17.38875 25.5437578,17.65875 C25.7012578,17.97375 25.9487578,18.1425 26.2975078,18.1425 C26.6350078,18.1425 26.8825078,17.97375 27.0512578,17.6475 C27.1862578,17.3775 27.2650078,17.0175 27.2650078,16.55625 C27.2650078,16.08375 27.1862578,15.7125 27.0512578,15.4425 C26.8825078,15.11625 26.6350078,14.95875 26.2975078,14.95875 Z M20.5825078,11.325 C20.2337578,11.325 19.9862578,11.4825 19.8287578,11.7975 C19.6825078,12.0675 19.6150078,12.43875 19.6150078,12.9225 C19.6150078,13.38375 19.6825078,13.755 19.8287578,14.025 C19.9862578,14.34 20.2337578,14.50875 20.5825078,14.50875 C20.9200078,14.50875 21.1675078,14.34 21.3362578,14.01375 C21.4712578,13.74375 21.5500078,13.38375 21.5500078,12.9225 C21.5500078,12.45 21.4712578,12.07875 21.3250078,11.80875 C21.1675078,11.4825 20.9200078,11.325 20.5825078,11.325 Z" id="50%"></path>
                    <path d="M22.2303846,20.9854868 L21.4115445,20.9854868 L24.153744,15.7026743 C22.3437981,16.5803245 20.9118269,18.8101863 18.2031971,19.053756 C18.010024,19.6122837 17.7244712,20.0490264 17.3507452,20.3555709 C16.964399,20.6705288 16.4814663,20.8300901 15.8935337,20.8300901 C15.1208834,20.8300901 14.5119591,20.5529507 14.0710096,19.9986298 C13.5628786,19.3561358 13.2983173,18.3188822 13.2773257,16.8953245 C11.8369411,15.7488642 10.4091767,14.6905769 8.48165264,15.2659315 L8.35986779,15.8790204 C8.84280048,15.5430709 9.34672476,15.3750962 9.87584736,15.3750962 C10.5771094,15.3750962 11.1650421,15.6186659 11.6479748,16.1015986 C12.1309075,16.5845313 12.3702704,17.2102404 12.3702704,17.9703125 C12.3702704,18.6968149 12.1603125,19.322524 11.7361478,19.8516466 C11.2238522,20.5025541 10.5183413,20.8259255 9.63227764,20.8259255 C8.90156851,20.8259255 8.30947115,20.6201322 7.84753005,20.2127945 C7.38558894,19.8054567 7.12102764,19.263756 7.05805288,18.5876502 L8.09109976,18.4994351 C8.16669471,19.0034014 8.34728966,19.3813341 8.62442909,19.6332752 C8.90156851,19.8852163 9.23751803,20.0154147 9.63227764,20.0154147 C10.1067969,20.0154147 10.5057632,19.8348618 10.8332993,19.4779207 C11.1608353,19.1209796 11.3246454,18.6464183 11.3246454,18.0543209 C11.3246454,17.4915865 11.1650421,17.0506791 10.8501262,16.7273077 C10.5351262,16.4039784 10.1236238,16.2401683 9.61124399,16.2401683 C9.29212139,16.2401683 9.00656851,16.3115565 8.75458534,16.454375 C8.4984375,16.5971514 8.29689303,16.7861178 8.15407452,17.0128606 L7.23023438,16.8910757 L7.45697716,15.6984675 C6.65071514,16.1477885 3.89173077,17.4159916 1.70385216,18.3860637 C1.70385216,16.7440925 2.40932091,32.8655469 17.4935216,33.0041166 C17.4935216,33.0041166 33.1529928,33.0041166 33.2957692,17.0758774 C30.9903125,14.7368089 26.4172175,15.1819231 25.123774,15.3877163 L22.2303846,20.9854868 Z" id="路径"></path>
                    <g id="分组-8" transform="translate(1.250000, 15.000000)">
                        <mask id="mask-4" fill="white">
                            <use xlink:href="#path-3"></use>
                        </mask>
                        <use id="矩形" xlink:href="#path-3"></use>
                        <path d="M6.18125,-4.2825 L10.85,-4.2825 L10.85,-3.46125 L6.935,-3.46125 L6.665,-0.7725 L6.71,-0.7725 C6.935,-1.0425 7.2275,-1.245 7.57625,-1.38 C7.89125,-1.515 8.22875,-1.57125 8.6,-1.57125 C9.365,-1.57125 9.98375,-1.335 10.45625,-0.85125 C10.92875,-0.35625 11.17625,0.31875 11.17625,1.185 C11.17625,1.995 10.88375,2.65875 10.31,3.17625 C9.77,3.66 9.095,3.9075 8.3075,3.9075 C7.59875,3.9075 6.99125,3.71625 6.49625,3.33375 C5.93375,2.90625 5.63,2.32125 5.57375,1.59 L6.485,1.59 C6.53,2.09625 6.7325,2.49 7.0925,2.76 C7.4075,2.99625 7.82375,3.12 8.31875,3.12 C8.88125,3.12 9.3425,2.94 9.71375,2.58 C10.07375,2.22 10.265,1.75875 10.265,1.19625 C10.265,0.555 10.085,0.06 9.7475,-0.28875 C9.42125,-0.64875 8.96,-0.8175 8.375,-0.8175 C7.9925,-0.8175 7.655,-0.73875 7.35125,-0.57 C7.03625,-0.4125 6.8225,-0.315 6.665,3.64153152e-14 L5.7875,3.64153152e-14 L6.18125,-4.2825 Z M14.3712578,-4.44 C15.3275078,-4.44 16.0475078,-4.02375 16.5425078,-3.16875 C16.9700078,-2.44875 17.1837578,-1.48125 17.1837578,-0.26625 C17.1837578,0.94875 16.9700078,1.91625 16.5425078,2.63625 C16.0475078,3.48 15.3275078,3.9075 14.3712578,3.9075 C13.4037578,3.9075 12.6837578,3.48 12.2000078,2.63625 C11.7725078,1.91625 11.5587578,0.94875 11.5587578,-0.26625 C11.5587578,-1.48125 11.7725078,-2.44875 12.2000078,-3.16875 C12.6837578,-4.02375 13.4037578,-4.44 14.3712578,-4.44 Z M14.3712578,-3.6525 C13.6512578,-3.6525 13.1337578,-3.27 12.8187578,-2.49375 C12.5937578,-1.95375 12.4812578,-1.21125 12.4812578,-0.26625 C12.4812578,0.6675 12.5937578,1.41 12.8187578,1.96125 C13.1337578,2.72625 13.6512578,3.12 14.3712578,3.12 C15.0912578,3.12 15.6087578,2.72625 15.9237578,1.96125 C16.1487578,1.41 16.2725078,0.6675 16.2725078,-0.26625 C16.2725078,-1.21125 16.1487578,-1.95375 15.9237578,-2.49375 C15.6087578,-3.27 15.0912578,-3.6525 14.3712578,-3.6525 Z M25.0475078,-0.64875 C25.6437578,-0.64875 26.1050078,-0.435 26.4312578,0.015 C26.7125078,0.3975 26.8587578,0.915 26.8587578,1.55625 C26.8587578,2.18625 26.7125078,2.70375 26.4312578,3.0975 C26.1050078,3.525 25.6437578,3.75 25.0475078,3.75 C24.4400078,3.75 23.9787578,3.525 23.6637578,3.0975 C23.3712578,2.6925 23.2362578,2.18625 23.2362578,1.55625 C23.2362578,0.915 23.3712578,0.3975 23.6637578,0.015 C23.9787578,-0.435 24.4400078,-0.64875 25.0475078,-0.64875 Z M24.0800078,-4.44 L24.8000078,-4.44 L20.3000078,3.9075 L19.5687578,3.9075 L24.0800078,-4.44 Z M19.3325078,-4.2825 C19.9287578,-4.2825 20.3900078,-4.06875 20.7162578,-3.61875 C20.9975078,-3.23625 21.1437578,-2.71875 21.1437578,-2.0775 C21.1437578,-1.4475 20.9975078,-0.93 20.7162578,-0.53625 C20.3900078,-0.10875 19.9287578,9.32587341e-14 19.3325078,9.32587341e-14 C18.7250078,9.32587341e-14 18.2637578,-0.10875 17.9487578,-0.53625 C17.6562578,-0.94125 17.5212578,-1.4475 17.5212578,-2.0775 C17.5212578,-2.71875 17.6562578,-3.23625 17.9487578,-3.61875 C18.2637578,-4.06875 18.7250078,-4.2825 19.3325078,-4.2825 Z M25.0475078,-0.04125 C24.6987578,-0.04125 24.4512578,0.11625 24.2937578,0.43125 C24.1475078,0.70125 24.0800078,1.0725 24.0800078,1.55625 C24.0800078,2.0175 24.1475078,2.38875 24.2937578,2.65875 C24.4512578,2.97375 24.6987578,3.1425 25.0475078,3.1425 C25.3850078,3.1425 25.6325078,2.97375 25.8012578,2.6475 C25.9362578,2.3775 26.0150078,2.0175 26.0150078,1.55625 C26.0150078,1.08375 25.9362578,0.7125 25.8012578,0.4425 C25.6325078,0.11625 25.3850078,-0.04125 25.0475078,-0.04125 Z M19.3325078,-3.675 C18.9837578,-3.675 18.7362578,-3.5175 18.5787578,-3.2025 C18.4325078,-2.9325 18.3650078,-2.56125 18.3650078,-2.0775 C18.3650078,-1.61625 18.4325078,-1.245 18.5787578,-0.975 C18.7362578,-0.66 18.9837578,-0.49125 19.3325078,-0.49125 C19.6700078,-0.49125 19.9175078,-0.66 20.0862578,-0.98625 C20.2212578,-1.25625 20.3000078,-1.61625 20.3000078,-2.0775 C20.3000078,-2.55 20.2212578,-2.92125 20.0750078,-3.19125 C19.9175078,-3.5175 19.6700078,-3.675 19.3325078,-3.675 Z" id="50%"  mask="url(#mask-4)"></path>
                    </g>
                </g>
            </g>
        </g>
    </g>
</svg>