<?xml version="1.0" encoding="UTF-8"?>
<svg width="64px" height="40px" viewBox="0 0 64 40" version="1.1" xmlns="http://www.w3.org/2000/svg" xmlns:xlink="http://www.w3.org/1999/xlink">
    <!-- Generator: Sketch 63.1 (92452) - https://sketch.com -->
    <title>退出</title>
    <desc>Created with Sketch.</desc>
    <g id="最新版" stroke="none" stroke-width="1" fill="none" fill-rule="evenodd">
        <g id="图标汇总备份" transform="translate(-681.000000, -255.000000)">
            <g id="编组-11" transform="translate(681.000000, 255.000000)">
                <path d="M3,0 L61,0 C62.6568542,-3.04359188e-16 64,1.34314575 64,3 L64,37 C64,38.6568542 62.6568542,40 61,40 L3,40 C1.34314575,40 2.02906125e-16,38.6568542 0,37 L0,3 C-2.02906125e-16,1.34314575 1.34314575,3.04359188e-16 3,0 Z" id="矩形备份-25" fill="#041329" opacity="0.199148996"></path>
                <g id="退出备份" transform="translate(18.000000, 6.000000)" fill-rule="nonzero">
                    <rect id="矩形" fill="#000000" opacity="0" x="0" y="0" width="28" height="28"></rect>
                    <path d="M24.6865103,15.407555 L21.3055215,18.7885438 C21.1081807,18.9964722 20.813523,19.0808903 20.5360164,19.0090036 C20.2585098,18.9371168 20.0418969,18.7202566 19.9703268,18.4426682 C19.8987567,18.1650797 19.9835109,17.8705186 20.1916643,17.6734151 L22.4003058,15.4647737 L13.1219773,15.4647737 C12.6865856,15.4647737 12.3336309,15.111819 12.3336309,14.6764273 C12.3336309,14.2410356 12.6865856,13.8880809 13.1219773,13.8880809 L22.3329149,13.8880809 L20.1916643,11.7455589 C19.8975821,11.4356988 19.9038126,10.9479815 20.2057145,10.6457351 C20.5076163,10.3434886 20.9953261,10.3367016 21.3055215,10.6304302 L24.6877818,14.0126905 C24.8885757,14.1414655 25.0202644,14.3542319 25.0459559,14.5913839 C25.0716473,14.828536 24.9885784,15.0645678 24.8200206,15.2333559 C24.7829772,15.2972843 24.7384694,15.3559147 24.6865103,15.407555 Z M21.4619193,8.11087443 C21.218004,8.25169897 20.9174881,8.25169897 20.6735728,8.11087443 C20.4296576,7.9700499 20.2793996,7.70979543 20.2793997,7.42814637 L20.2793997,5.05987283 C20.2793997,4.79301986 20.0630726,4.57669279 19.7962196,4.57669279 L5.66505497,4.57669279 C5.398202,4.57669279 5.18187492,4.79301986 5.18187492,5.05987283 L5.18187492,23.3787543 C5.18187492,23.6457748 5.39803442,23.8619343 5.66505497,23.8619343 L19.4490929,23.8619343 C19.7161134,23.8619343 19.9322729,23.6457748 19.9322729,23.3787543 L19.9322729,21.7288932 C19.9322729,21.2935015 20.2852276,20.9405468 20.7206193,20.9405468 C21.156011,20.9405468 21.5089657,21.2935015 21.5089657,21.7288932 L21.5089657,23.3774827 C21.5089657,24.5151191 20.5867292,25.4373556 19.4490929,25.4373556 L5.66378344,25.4373556 C4.52614709,25.4373556 3.60391061,24.5151191 3.60391061,23.3774827 L3.60391061,5.05987283 C3.60391061,3.9231282 4.5270388,3 5.66378344,3 L19.7949481,3 C20.9329642,3 21.8548368,3.9231282 21.8548368,5.05987283 L21.8548368,7.4294179 C21.8560925,7.70979543 21.7058345,7.9700499 21.4619193,8.11087443 Z" id="形状" fill="#FFFFFF"></path>
                </g>
            </g>
        </g>
    </g>
</svg>