<?xml version="1.0" encoding="UTF-8"?>
<svg width="64px" height="40px" viewBox="0 0 64 40" version="1.1" xmlns="http://www.w3.org/2000/svg" xmlns:xlink="http://www.w3.org/1999/xlink">
    <!-- Generator: Sketch 63.1 (92452) - https://sketch.com -->
    <title>背景</title>
    <desc>Created with Sketch.</desc>
    <g id="最新版" stroke="none" stroke-width="1" fill="none" fill-rule="evenodd">
        <g id="图标汇总备份" transform="translate(-429.000000, -255.000000)">
            <g id="编组-8" transform="translate(429.000000, 255.000000)">
                <path d="M3,0 L61,0 C62.6568542,-3.04359188e-16 64,1.34314575 64,3 L64,37 C64,38.6568542 62.6568542,40 61,40 L3,40 C1.34314575,40 2.02906125e-16,38.6568542 0,37 L0,3 C-2.02906125e-16,1.34314575 1.34314575,3.04359188e-16 3,0 Z" id="矩形备份-22" fill="#041329" opacity="0.199148996"></path>
                <g id="背景备份" transform="translate(18.000000, 6.000000)" fill-rule="nonzero">
                    <rect id="矩形" fill="#000000" opacity="0" x="0" y="0" width="28" height="28"></rect>
                    <g id="编组-23" transform="translate(2.000000, 2.000000)" fill="#FFFFFF">
                        <path d="M3.42853125,1.56782894 C2.29240817,1.56782894 1.37139844,2.48883867 1.37139844,3.62496176 L1.37139844,20.082118 C1.37139844,21.2182411 2.29240817,22.1392508 3.42853125,22.1392508 L19.8856875,22.1392508 C21.0218106,22.1392508 21.9428203,21.2182411 21.9428203,20.082118 L21.9428203,3.62496176 C21.9428203,2.48883867 21.0218106,1.56782894 19.8856875,1.56782894 L3.42853125,1.56782894 Z M19.8856875,0.196407068 C21.7792206,0.196407068 23.3142422,1.73142865 23.3142422,3.62496176 L23.3142422,20.082118 C23.3142422,21.9756511 21.7792206,23.5106727 19.8856875,23.5106727 L3.42853125,23.5106727 C1.5350073,23.5106727 9.09494702e-13,21.975642 9.09494702e-13,20.082118 L9.09494702e-13,3.62496176 C9.09494702e-13,1.73144696 1.53501645,0.196407068 3.42853125,0.196407068 L19.8856875,0.196407068 Z" id="形状"></path>
                        <path d="M13.9645313,4.10667269 C13.7852981,3.93385921 13.7138195,3.67747188 13.7777916,3.43685479 C13.8417638,3.19623769 14.0311342,3.00920153 14.2725261,2.94821843 C14.5139181,2.88723533 14.7693992,2.9618882 14.9399766,3.14325082 L20.3742188,8.62896176 C20.5463217,8.80350972 20.6122311,9.05661451 20.5471196,9.292934 C20.4820081,9.52925349 20.2957676,9.71288513 20.0585532,9.77465666 C19.8213388,9.83642819 19.5691889,9.76695503 19.3970859,9.59240707 L13.9645313,4.10667269 Z M2.7408149,14.4024429 C2.80360811,14.1574077 2.99620326,13.966843 3.24189018,13.9066503 C3.48757709,13.8464576 3.74644923,13.9264139 3.91539844,14.1146727 L9.3496875,19.6004071 C9.60467448,19.8715164 9.59684548,20.2965321 9.33204693,20.5580667 C9.06724839,20.8196013 8.64216829,20.8221586 8.37424219,20.5638289 L2.94,15.078118 C2.75522983,14.907183 2.67802169,14.647478 2.7408149,14.4024429 Z M8.51310938,4.10838363 C8.34039518,3.93444693 8.27359481,3.68158085 8.33787132,3.44503762 C8.40214783,3.20849439 8.58773609,3.02421054 8.8247268,2.96160402 C9.0617175,2.8989975 9.31410613,2.96757973 9.48682031,3.14151644 L20.3725313,14.1129383 C20.5452454,14.286875 20.6120458,14.5397411 20.5477693,14.7762843 C20.4834928,15.0128275 20.2979045,15.1971114 20.0609138,15.2597179 C19.8239231,15.3223244 19.5715345,15.2537422 19.3988203,15.0798055 L8.51310938,4.10838363 Z M2.9416875,9.59411801 C2.6746945,9.32523515 2.67622652,8.89082194 2.94510938,8.62382894 C3.21399223,8.35683594 3.64840544,8.35836797 3.91539844,8.62725082 L14.8011094,19.5986961 C14.9738236,19.7726328 15.0406239,20.0254989 14.9763474,20.2620421 C14.9120709,20.4985854 14.7264827,20.6828692 14.489492,20.7454757 C14.2525012,20.8080823 14.0001126,20.7395 13.8273984,20.5655633 L2.9416875,9.59411801 Z M3.62910938,4.79582894 C3.45578392,4.6225035 3.38809263,4.36987615 3.45153414,4.13310918 C3.51497566,3.89634222 3.69991171,3.71140617 3.93667868,3.64796465 C4.17344565,3.58452313 4.42607299,3.65221443 4.59939844,3.82553988 L19.6851094,18.9112508 C19.9530473,19.1791887 19.9530473,19.6136019 19.6851093,19.8815398 C19.4171714,20.1494778 18.9827582,20.1494778 18.7148203,19.8815399 L3.62910938,4.79582894 Z" id="形状"></path>
                    </g>
                </g>
            </g>
        </g>
    </g>
</svg>