<?xml version="1.0" encoding="UTF-8"?>
<svg width="40px" height="40px" viewBox="0 0 40 40" version="1.1" xmlns="http://www.w3.org/2000/svg" xmlns:xlink="http://www.w3.org/1999/xlink">
    <!-- Generator: Sketch 58 (84663) - https://sketch.com -->
    
    <desc>Created with Sketch.</desc>
        <g id="图标汇总" transform="translate(-494.000000, -316.000000)" fill-rule="nonzero">
            <g id="热力地图" transform="translate(494.000000, 316.000000)">
                <rect id="矩形" fill="#000000" opacity="0" x="0" y="0" width="40" height="40"></rect>
                <path d="M31.3134375,3.00552487 C31.474913,2.96701357 31.6576353,3.14245393 31.8191107,3.14245393 L31.8191107,3.151012 C32.1165656,3.13389587 32.2822905,3.10822167 32.5415011,3.2280346 L32.5415011,3.23659267 L32.575496,3.24515074 L32.575496,3.2537088 L32.5924934,3.2537088 L32.7114753,3.38635884 C32.9579379,3.66877504 33.5061047,4.30635101 33.5061047,4.45611718 L33.5146034,4.45611718 L33.5316008,4.51174461 L33.5740944,4.54597688 L33.5740944,4.56309301 C33.7100738,4.69146401 33.8588012,4.84978824 33.9905312,4.96104311 L33.9905312,4.98671731 L33.9990299,4.98671731 C33.9990299,5.21778511 34.1137625,5.34187708 34.2667393,5.46596905 C34.2667393,5.48736421 34.2709886,5.48736421 34.287986,5.50020131 C34.3049835,5.56010778 34.3559757,5.86391915 34.4324641,5.86391915 L34.4409628,5.88103528 C34.6236851,5.88103528 34.9593841,5.83824495 35.0996129,5.89815142 C35.0996129,5.98373208 35.44806,5.89815142 35.5542939,5.93238368 C35.5542939,5.94949982 35.6945226,6.00940628 35.7157693,6.03508048 C35.7327668,6.20624182 36.0599671,6.30465959 36.2426894,6.35172895 C36.2426894,6.54856449 36.5103987,7.12623399 36.7271159,7.12623399 L36.7271159,7.13479206 C37.0713136,7.24176789 37.3900152,6.84809682 37.5897349,6.63842419 C37.7597091,6.31749669 38.2781305,5.79545462 38.6308269,5.79545462 C38.8262973,5.86391915 38.6350763,6.39024025 38.8432947,6.56995965 C38.8687908,6.58279675 39.0260169,6.78819035 38.9962715,6.80530649 C38.907035,7.05776946 38.7498089,8.72231343 38.8517934,8.79077797 C38.8390453,8.9619393 38.847544,9.06891513 38.7285621,9.18872807 C38.6010814,9.3984007 38.2866292,9.2443555 38.1124056,9.2443555 C38.0486653,9.35561037 37.8489456,9.436912 37.8107014,9.55672494 C37.6577246,10.0616509 38.4651021,10.8832253 38.3163747,11.4266625 L38.3078759,11.4266625 C38.3078759,11.486569 38.2058914,11.9315884 38.1846446,12.0214481 C38.1633979,12.0984707 38.1421511,12.1583772 38.0699121,12.1797724 C38.0699121,12.2140047 37.7682078,12.1070288 37.7129662,12.1027498 C37.5939843,11.9487046 37.6534753,11.61494 37.5897349,11.623498 C37.5004985,11.6363351 37.4325088,11.7818223 37.4197607,11.7818223 C37.398514,11.9315884 37.2710333,12.3980031 37.1265552,12.4793047 C37.0415681,12.5948386 36.8460978,12.6119548 36.7228665,12.6119548 L36.7228665,12.6205128 C36.6803729,12.646187 36.6803729,12.641908 36.6803729,12.7060935 C36.8163523,12.7959532 36.8928407,12.9542774 36.884342,13.0612533 C36.9225862,13.2580888 36.6676249,13.4335292 36.6081339,13.3950179 C36.3361752,13.3950179 36.1364555,13.2366936 35.8942423,13.2366936 L35.8942423,13.2452517 C35.7922577,13.279484 35.7667616,13.6474808 35.6902732,13.6474808 C35.6265329,13.925618 35.388569,14.1010584 35.2440909,14.3321262 L35.2270935,14.3321262 L35.2185948,14.3492423 C35.0443712,14.4091488 34.9211399,14.5760311 34.7894099,14.695844 C34.7894099,14.8413311 34.6831761,15.0253296 34.6661786,15.1922119 C34.2327444,15.5816039 33.688827,15.3762103 33.3743747,16.1507153 C33.365876,16.3175976 33.1704057,16.6470832 33.1704057,16.6470832 C33.0046808,16.6513622 32.8304573,16.6684784 32.6647324,16.6727574 C32.6519843,16.5058751 32.7752156,16.2106218 32.9579379,16.2106218 C32.9579379,16.1293202 32.6392363,15.7056959 32.7837143,15.7056959 L32.7922131,15.6457894 L32.8007118,15.6457894 C32.8007118,15.3676522 33.1449095,15.2735135 33.0514237,14.8884005 C33.0004315,14.6658908 32.7667169,14.5888682 32.588244,14.6616117 C32.588244,14.6701698 31.2411985,16.4202944 31.2369491,16.4202944 C31.1732088,16.5229912 30.6632862,16.621409 30.5400549,16.6556413 C30.3785794,16.8054074 30.2765949,17.1819624 30.5230575,17.3146124 C30.5613016,17.4729366 30.63779,17.5414012 30.63779,17.6997254 C30.697281,17.7339577 31.1052191,17.5028899 31.3091881,17.5970286 C31.3729285,17.7339577 31.4069233,17.8880029 31.415422,18.0420481 L31.4239207,18.0420481 C31.4579156,18.1190707 31.6746327,18.3586966 31.7553704,18.3715337 L31.7553704,18.3800917 C31.7681185,18.3800917 31.7553704,18.3715337 31.7638691,18.3715337 C32.0740721,18.3715337 32.0740721,17.5884705 32.6732311,17.5884705 C32.9281924,17.5114479 33.1576576,17.8024222 33.4551124,17.7082835 C33.6335854,17.652656 33.7440686,17.7168415 33.880048,17.7853061 C33.880048,17.8366545 33.9140428,18.1960933 33.7908115,18.1960933 C33.7568167,18.2474417 33.1194134,18.542695 33.1066653,18.5341369 C33.1619069,18.6368337 32.5499998,19.3043629 32.4650127,19.2401774 C32.4437659,19.312921 32.2397969,19.6338485 32.2397969,19.6381275 C32.2100514,19.6638017 32.1505604,19.7536614 32.1505604,19.7878937 L32.1420617,19.7878937 C32.1123162,19.8691953 32.0358279,20.3912374 32.0358279,20.4040745 C32.0528253,20.4169116 32.0443266,20.4254697 32.0528253,20.4383068 L32.0783214,20.4554229 C32.0783214,20.5024923 32.1675579,20.5281665 32.1675579,20.5538407 C33.0684211,20.6822117 33.102416,22.1499201 33.425367,22.3210814 C33.425367,22.3424766 33.4338657,22.3424766 33.4423644,22.3638718 C33.6675802,22.5778234 33.9480376,22.6976364 34.2072483,22.907309 L34.2072483,22.9244251 C34.5217006,23.0913074 33.8970454,23.1084236 33.8842973,23.2196784 C34.0755183,23.3352123 34.287986,23.4507462 34.3984693,23.7845108 L34.3899706,23.7845108 C34.3899706,24.1653448 33.6123386,24.4991094 33.438115,24.7087821 L33.4296163,24.7087821 L33.4296163,24.7344563 C33.4933566,24.7601305 33.6335854,24.7515724 33.7058244,24.7515724 C33.8970454,24.3621804 34.466459,24.6574337 34.729919,24.7686885 C34.7256696,24.7858047 34.729919,24.7772466 34.7214203,24.7858047 C34.670428,24.9911983 34.3219809,25.1024531 34.3219809,25.2736145 C34.3857212,25.2736145 34.5769422,25.0468257 34.6364332,25.1623596 C34.6364332,25.2308241 34.7086722,25.4105435 34.6449319,25.474729 C34.5514461,25.5902629 34.4622096,25.4961242 34.3814719,25.5731468 L34.3729731,25.5731468 C34.3729731,26.0224453 34.8531503,26.6429051 34.1520067,26.6429051 C33.9437883,27.0322972 33.892796,27.0836456 33.8757986,27.5971296 C33.688827,27.7340586 33.7185725,28.0464281 33.5528476,28.2004733 C33.4593618,28.2004733 33.2978863,28.1919152 33.2681408,28.2518217 C33.2681408,28.3673556 33.4636112,28.4486572 33.5528476,28.4700524 C33.5316008,28.6583298 33.2681408,28.5770282 33.3403799,28.8380492 C33.3573773,29.0562799 33.4083695,29.1846509 33.3573773,29.3943236 C32.970686,29.4242768 33.2426447,29.7751575 32.9409405,29.9334818 C32.8559534,30.2116189 32.4607634,30.2073399 32.4352672,30.2971996 C32.3545295,30.3956174 31.9550901,31.238587 31.7936146,31.238587 L31.7851159,31.2557031 C31.5981443,31.3241676 31.1859568,31.4011902 31.1859568,31.6408161 C31.1647101,31.7050016 31.1987049,31.7392339 31.2029543,31.8076984 C30.8120136,32.0473243 30.2978416,32.6078776 29.7794203,32.4367163 C29.5669526,32.3639727 29.5414564,32.8560616 29.3417367,32.8560616 C29.2312535,32.9673164 28.9422974,32.6463889 28.9422974,32.5522502 C28.7808219,32.4367163 28.7765725,32.6421099 28.746827,32.7020164 C28.6618399,33.0700132 28.0924263,33.4594053 27.7482286,33.4594053 C27.5145141,33.5364279 26.3714375,33.6647989 26.3246946,33.8958667 L26.3161959,33.8958667 C26.3161959,34.0028425 26.2482062,34.2339103 26.1207256,34.2339103 C26.0144917,34.3708394 26.078232,34.3152119 26.1122269,34.4606991 C26.1802166,34.4606991 26.2312088,34.4692571 26.2822011,34.4778152 C26.3161959,34.5420007 26.3119466,34.7217201 26.2991985,34.7987427 C26.1419724,34.8928814 26.078232,34.8843234 25.8955098,34.8757653 L25.8955098,34.8672072 C25.8190214,34.8500911 25.670294,34.4906523 25.6023043,34.3965136 C25.3388443,34.2510264 25.6023043,33.9643312 25.6193017,33.8017279 C25.6023043,33.7974489 25.5895562,33.7931699 25.5725588,33.7931699 L25.5725588,33.8017279 C25.4068339,33.8530763 25.2836026,33.9472151 25.1178778,33.9600522 L25.1178778,33.9514941 C25.0881323,33.942936 24.7354358,33.3738246 24.7184384,33.6647989 C24.8034255,33.7118682 24.8289217,33.7974489 24.7184384,33.814565 C24.7184384,33.8701925 24.0980326,33.7931699 24.0470403,33.7888908 C23.8345726,33.7888908 23.0696887,33.5621021 23.1376783,33.2069423 L23.1291796,33.2069423 C23.0951848,33.0956874 23.19292,32.8432245 23.19292,32.7276906 L23.1291796,32.6677841 C22.8572209,32.6207147 22.5852622,32.5693663 22.3175528,32.5137389 C22.1943215,32.4795066 22.224067,32.3297405 22.1560773,32.3040663 C22.1178331,32.269834 21.9648563,32.3169034 21.9436096,32.3297405 C21.8841186,32.4281582 21.637656,32.7576438 21.5016766,32.7576438 L21.5016766,32.7662019 C21.3826947,32.7747599 21.2892089,32.7576438 21.1957231,32.8432245 C21.1957231,33.0742923 20.9067669,32.9844326 20.8132811,32.9844326 C20.7792863,32.9373632 20.6942992,32.8860148 20.6730524,32.8432245 C20.6390576,32.8432245 20.3586001,32.9288051 20.3586001,32.9416422 C20.1546311,33.0058277 20.0144024,32.8004341 19.8316801,32.8004341 C19.7764385,32.8817358 19.7041994,32.9544793 19.627711,33.0101068 C19.5682201,33.0657342 19.2622665,32.9288051 19.2027755,32.9844326 C19.1177884,33.0058277 19.1347859,33.0999665 19.1390352,33.2112213 C19.2282717,33.292523 19.2495184,33.6006134 19.2452691,33.7161473 C19.3260068,33.7161473 19.3217575,34.1611667 19.3047601,34.2210732 C19.2750146,34.3665603 19.1645313,34.319491 19.0625468,34.2980958 L19.0625468,34.2895377 C18.8415804,34.2424684 18.7183491,33.9900054 18.7183491,33.7674957 C18.7183491,33.6091714 18.7013516,33.6947521 18.6291126,33.5749392 C18.4038968,33.5749392 18.4081461,33.8188441 18.2636681,33.8188441 L18.2636681,33.8274021 C18.1574342,33.8188441 18.1404368,33.7717747 18.0427016,33.7674957 C18.0044574,33.5877763 17.6177661,33.2668488 17.6177661,33.2540117 C17.5582751,33.2326165 17.401049,33.296802 17.3585554,33.2540117 C17.3118125,33.2411746 17.2438228,33.1427568 17.2310748,33.0999665 L17.2225761,33.0999665 C17.1885812,32.8817358 17.2650696,32.5051808 17.2013293,32.3254614 C17.0993448,32.2869501 17.0313551,32.2869501 16.9591161,32.1928114 C16.8273861,32.0986727 16.7806431,31.5851887 16.6404144,31.4011902 C16.4151986,31.2343079 16.300466,31.5381193 16.1219931,31.5381193 L16.1219931,31.5466774 C15.8712812,31.4739338 15.9732657,31.3284467 15.9265228,31.0759837 C15.8500344,30.7807304 15.9860137,30.5838949 16.0497541,30.3185948 L16.0667515,30.3100367 C16.0667515,30.1431544 16.5044351,29.9377608 16.6106689,29.8136688 C16.6489131,29.8051108 16.6531625,29.7922737 16.6744093,29.7580414 C16.7339002,29.7238091 17.0143577,28.418704 16.8613809,28.2347055 C16.8613809,28.1448458 16.5554273,28.0250329 16.5554273,27.9308942 C16.5299312,27.909499 16.5044351,27.8281974 16.4959364,27.8281974 C16.4959364,27.5628973 16.4066999,27.4730376 16.2707205,27.2847601 C16.1814841,27.263365 16.0752502,27.2162956 16.0115099,27.3018763 C15.8585331,27.3831779 16.0157592,27.8025232 15.7820447,27.8410345 C15.6290679,27.8923829 15.4590937,27.5842925 15.3103663,27.4730376 C15.1701376,27.4730376 14.8896801,27.2419698 14.732454,27.1949004 L14.732454,27.2034585 C14.5922253,27.2334117 14.3882562,27.4473634 14.2947704,27.5714554 C13.8910817,27.6185247 13.5341359,28.1491249 13.1559433,28.2860539 C13.0029665,28.3759136 11.9703732,28.5941443 11.7706535,28.2860539 C11.6856664,28.2004733 11.7834016,27.8752667 11.7919003,27.7554538 C11.6559209,27.657036 11.5709338,27.6142457 11.5709338,27.4088521 C11.5199416,27.3788989 11.1969906,27.3061553 11.1969906,27.3061553 C10.9250319,27.2334117 10.7380602,26.8012294 10.3853638,26.8012294 C10.3853638,26.7969503 9.84144631,26.9895068 9.77770599,27.1135988 C9.77770599,27.2248537 9.81170083,27.4131311 9.75220986,27.5115489 C9.5779863,27.6056876 9.57373694,27.6099667 9.3697679,27.5372231 C9.2465366,27.2762021 9.37401726,27.0836456 9.37826661,26.8311826 C9.25503531,26.7456019 8.99582465,26.7413229 8.85984529,26.7969503 C8.71961658,26.8269036 8.59638528,27.0194601 8.43490979,26.9681117 C8.26068623,26.9124842 8.16720042,26.749881 8.05246783,26.6043938 C7.81025459,26.5530454 7.61903361,26.5616035 7.37682037,26.5573245 C7.18984875,26.3776051 7.02837326,26.0823518 6.87114712,25.859842 C6.73941711,25.7699823 6.57794162,25.8641211 6.44621161,25.6801226 L6.38672064,25.6244952 C6.27623741,25.4148226 6.20824773,25.1837548 6.19549966,24.9441289 C6.09351514,24.8713853 5.804559,24.9441289 5.75356673,24.8414321 C5.69407576,24.8414321 5.54959769,24.5461788 5.54959769,24.5033885 C5.42636639,24.4049707 5.20539993,24.3365061 5.11191412,24.2166932 C5.10766476,24.2124142 5.10341541,24.2124142 5.0949167,24.2081351 C5.0949167,24.1054383 4.75921765,23.677535 4.75071894,23.677535 C4.40652118,23.7374415 4.0070818,23.938556 3.74362179,23.5705592 C3.66713339,23.4806995 3.64588662,23.2753059 3.64588662,23.1084236 C3.2974395,22.8088912 3.18270692,22.4408944 2.70252979,22.4408944 C2.60054527,22.4109411 2.6260414,22.4023831 2.57079979,22.3510347 C2.58354785,22.1713153 2.55380237,22.0728975 2.67703366,21.9616426 L2.67703366,21.9445265 C2.85550658,21.8161555 2.74077399,21.2641602 2.74077399,21.0801618 L2.73227528,21.0801618 C2.73227528,20.849094 2.7110285,20.9560698 2.77476883,20.8191407 C2.96174045,20.8191407 3.08072239,20.9731859 3.24644724,20.977465 C3.26769402,20.9047214 3.28894079,20.9475117 3.28894079,20.853373 L3.2974395,20.853373 C3.2974395,20.5024923 3.19545498,20.2029599 3.14446272,19.8606373 L3.13171466,19.8606373 C3.05097691,19.5910582 3.32718499,19.4498501 3.32718499,19.2444565 C3.30593821,19.1160855 3.28469144,19.1118064 3.23794853,19.0690161 C2.93624432,19.0048306 2.89375077,18.6068805 2.96174045,18.3544175 C3.03822884,18.0677223 2.18835783,17.3402866 2.02688234,17.4900528 C1.96739137,17.4857737 1.88240426,17.3702398 1.89090297,17.3616818 C1.89090297,17.1947995 2.03113169,16.74978 1.9546433,16.6128509 C1.73792619,16.4630848 1.5382065,16.2876444 1.35548424,16.0908089 L1.3299881,16.0736927 C1.17701132,15.8255088 1.3682323,15.594441 1.59769747,15.5345345 C1.72092877,15.2649554 1.6614378,14.9825392 1.6614378,14.700123 L1.65293909,14.700123 C1.65293909,14.3877536 1.33423746,14.5888682 1.17276197,14.5974262 C1.05802938,14.5032875 0.926299373,14.439102 1.04953067,14.1438487 C1.30449197,14.0839422 1.23650229,13.7416196 1.113271,13.7416196 C1.07927616,13.668876 1.38098037,13.4848776 1.41922456,13.3051582 C1.64868974,13.3051582 2.34558397,12.6547451 2.75352205,12.8002322 C3.03822884,12.8515806 2.81301302,13.2152985 3.19120563,13.2366936 C3.73937243,12.7446048 4.02407922,12.7146516 4.72947216,12.7146516 L4.72947216,12.7060935 C4.78896313,12.6846983 5.47735866,12.6076757 5.47735866,12.5691644 C5.70257447,12.4407934 5.71957189,12.3295386 5.69832512,12.1840514 C5.71957189,12.1626563 6.3527258,11.3410818 6.35697515,11.3196867 C6.43346355,10.9645269 6.44196226,10.59653 6.37822193,10.2413703 L6.38672064,10.2413703 C6.42071548,10.1301154 6.43346355,9.97179117 6.34422709,9.90332664 C6.2677387,9.79207177 6.32298031,9.70221207 6.45046097,9.70221207 C6.96038358,9.53532977 7.36832166,9.8605363 7.84849879,9.8605363 C7.85274814,9.85197824 7.8569975,9.84342017 7.8569975,9.8348621 C7.98022879,9.67653787 7.71676878,9.2186813 8.20544461,8.95338123 C8.27768365,8.82928927 8.52414624,8.3457585 8.53689431,8.27301493 L8.54539302,8.27301493 C8.60488399,8.1788762 8.71961658,8.21310846 8.80460368,8.22166653 C8.80460368,8.4612924 9.84569567,8.6281747 9.89243857,8.61961663 L9.89243857,8.61105856 C10.0496647,8.6025005 10.0836596,8.5639892 10.1304025,8.409944 C10.1304025,8.409944 10.113405,7.86650676 10.1473999,7.79376319 L10.1558986,7.79376319 C10.245135,7.41720826 10.7508083,7.45571956 11.0270164,7.35730179 L11.0270164,7.34874372 C11.1799932,7.21181466 11.1205022,6.92939846 11.4392038,6.92939846 C11.5921806,6.87805005 11.8216458,6.98502589 11.8216458,7.17330336 L11.8301445,7.17330336 C11.8343938,7.28027919 11.8938848,7.42576632 11.8938848,7.48567279 C11.8513913,7.62260186 12.4675477,8.1403649 12.578031,8.11896973 C12.6715168,8.14892296 12.9477249,8.31580526 12.9689716,8.38854883 C12.9689716,8.58538436 12.9944678,8.99617157 13.1304471,9.1031474 C13.1814394,9.36844747 13.3811591,9.78779274 13.0964523,10.0188605 L13.0964523,10.0359767 C12.841491,10.3183929 12.7862494,10.5366236 13.032712,10.8275978 C13.1814394,10.9431317 13.4703955,10.981643 13.6658659,11.0287124 C13.7848478,11.0201543 15.773546,11.7861013 15.6970576,12.3167015 L15.7055563,12.3167015 C15.714055,12.513537 15.7820447,12.8387435 15.964767,12.9328823 L15.9732657,12.9671145 L15.9817644,12.9671145 L15.9817644,13.1040436 C15.9817644,13.2110194 15.9902631,13.3436695 16.0242579,13.3436695 L16.0242579,13.3607856 L16.0837489,13.416413 L16.1007463,13.4420872 C16.3217128,13.4420872 16.5681754,13.5490631 16.8273861,13.5490631 C17.0228564,13.6089695 17.4095477,13.7758518 17.5752725,13.7758518 C17.5795219,13.7801309 17.5795219,13.7886889 17.5837713,13.792968 C18.059699,13.792968 18.5101307,13.7672938 18.9818091,13.7672938 L18.9818091,13.7758518 C19.4662356,13.8400373 19.7169475,14.3663584 20.0738933,14.4219859 C20.2353688,14.2251503 20.5795666,14.4990085 20.6518056,14.6017053 L20.6518056,14.6102633 C20.9960034,14.6102633 21.0809905,14.8113779 21.2849595,14.9739812 C21.3274531,15.0338876 21.374196,15.0424457 21.446435,15.0424457 C21.5484195,14.7129601 23.5838606,14.2465455 23.5838606,13.929897 L23.600858,13.929897 L23.600858,13.925618 C23.9280584,13.8229212 24.3614926,14.1224535 24.7524333,14.0368729 C24.8119242,13.8528744 25.1773688,13.4805985 25.3133481,13.3479485 C25.4705743,13.1939033 26.0952295,12.6975354 26.0229904,12.6076757 C25.9634995,12.3723289 25.5895562,11.3410818 26.1674685,11.3453609 L26.1674685,11.3539189 C26.1717179,11.3539189 26.8813602,11.8374497 26.8813602,11.6491722 C27.0810798,11.6491722 27.4762699,11.1314092 27.5230128,10.9345737 C27.7609767,10.8832253 28.1859122,10.8746672 28.292146,10.6393204 C28.4451228,10.5152284 28.5896009,10.074488 28.6363438,10.074488 C28.7425777,9.9375589 28.9337987,9.89048954 29.0910248,9.8476992 L29.0910248,9.83914114 L29.1165209,9.83914114 C29.18876,9.74072337 29.4734667,9.5010975 29.5627032,9.5010975 C29.5627032,9.45402814 30.3573326,9.44119104 30.4720652,9.40695877 C30.4720652,9.2957039 30.4465691,9.17161193 30.4465691,9.09458933 C30.3445845,8.75226667 29.9536439,8.538315 29.643441,8.35431656 C29.5074616,8.35003753 29.4607187,8.52119886 29.2779964,8.52119886 C29.1972587,8.61961663 29.1845106,8.71375536 29.1037729,8.81645217 C28.9168012,8.8078941 28.5683541,8.6410118 28.4451228,8.6795231 L28.4451228,8.68808116 C28.2624006,8.68808116 28.1051744,8.85496347 27.8204676,8.8464054 C27.7779741,8.76510377 27.7184831,8.7180344 27.7142337,8.59394243 C27.8204676,8.46557143 28.0031899,8.3072472 27.9521976,8.10613263 C27.9521976,7.68678736 28.0669302,7.41720826 28.147668,6.98502589 C28.1519173,6.98074686 28.1561667,6.97646782 28.1646654,6.97646782 C28.1986602,6.91656136 28.2539018,6.87377102 28.3133928,6.84809682 C28.7085828,6.84809682 29.129269,6.88660812 29.4097264,6.54428545 L29.4819655,6.47582092 C29.4819655,6.24903215 29.6264435,5.90670948 29.6264435,5.64140941 L29.6349422,5.64140941 C29.6349422,5.29480771 30.0088855,4.70858014 30.0173842,4.70858014 C30.1151194,4.46895428 29.8389113,4.20793324 29.6604384,4.10951547 C29.6604384,4.09239934 29.6519397,4.01109771 29.643441,4.01109771 C29.6774358,3.76291377 29.6986826,3.73296054 29.8559087,3.60458954 C30.0343816,3.55752017 30.1958571,3.4976137 30.3658313,3.43770724 C30.4763145,3.19808137 31.0839723,3.00552487 31.3134375,3.00552487 L31.3134375,3.00552487 Z M18.3316577,22.4794057 C17.2863164,22.8559606 16.6574118,23.8957657 16.8231367,24.9698031 C16.9803628,25.3335209 18.3274084,25.6630065 18.4336423,26.5872777 C18.5398761,27.5115489 18.7013516,27.913778 18.8033362,29.069117 C18.9053207,30.224456 19.7594411,30.220177 20.0611453,29.8735753 C20.6815511,29.6339494 21.3232037,29.4413929 21.973355,29.2959058 C22.619257,28.9493041 22.9762028,29.4199978 23.4266345,30.0746899 C23.911061,30.7464981 24.7524333,31.0717047 25.5768081,30.9091014 C26.2227101,30.6780336 29.1250196,30.8491949 29.3374874,29.6425075 C29.9408958,26.2492341 28.2496525,23.5962334 24.0682871,25.1580806 C23.6178555,25.3848693 23.0866861,25.4062645 22.619257,25.213708 C22.151828,25.0211515 21.7991315,24.6360385 21.6546534,24.1610658 C21.0299982,22.9672155 19.6957007,22.2911282 18.3316577,22.4794057 L18.3316577,22.4794057 Z M24.8161736,16.7626171 C23.9535545,17.8323754 24.0470403,19.3899436 25.0328907,20.3484471 C25.5130678,21.2128118 26.1547204,21.9787588 26.9281031,22.5992186 C30.9224968,26.244955 30.0301323,24.5461788 30.1491142,22.7190315 C30.433821,21.1828586 29.7029319,19.6381275 28.3388889,18.8892967 C27.4870949,18.1559063 27.0886028,17.020591 27.2935476,15.9110895 L26.520165,15.9110895 C25.551312,15.7399281 25.5343146,15.4232797 24.8161736,16.7626171 L24.8161736,16.7626171 Z M7.93348589,14.6359375 C7.07086681,15.7056959 7.16435262,17.263264 8.15445235,18.2217675 C8.63462947,19.0861322 9.27628209,19.8520792 10.0496647,20.472539 C14.0440585,24.1182754 13.1516939,22.4194992 13.2706759,20.592352 C13.5553826,19.056179 12.8244936,17.5114479 11.4604506,16.7668961 C10.6086565,16.0335057 10.2101645,14.8981905 10.4151092,13.7886889 L9.63747727,13.7886889 C8.66862431,13.6132486 8.65162689,13.3008791 7.93348589,14.6359375 Z M32.6689818,31.5466774 C32.7029766,31.242866 32.7497195,30.9732869 32.7667169,30.6480804 L32.779465,30.6480804 C32.779465,30.2586883 33.0046808,30.1816657 33.0046808,29.8479011 L33.0174289,29.8479011 C33.0174289,29.4970204 33.4126189,28.8637234 33.7355699,28.6112605 C33.7865621,28.547075 34.2242457,28.4828895 34.3304796,28.5128427 L34.3304796,28.5214008 C35.125109,28.6198185 34.6151864,29.0306057 34.6151864,29.3301381 L34.6024383,29.3301381 C34.6024383,29.7623204 34.7979087,30.3870593 34.6661786,30.7764514 C34.6661786,30.9476127 34.479207,31.0888208 34.479207,31.2171918 C34.3687238,31.3583999 33.9947805,31.4054693 33.9947805,31.6408161 L33.9820325,31.6408161 C33.8078089,32.0601614 34.024526,32.3297405 33.6208373,32.7490857 L33.6080892,32.7490857 L33.6080892,32.7405277 L33.5953412,32.7405277 C33.5953412,32.6121567 33.2851382,32.4709486 33.2596421,32.2869501 L33.2553928,32.2869501 C32.970686,31.9874178 32.7837143,31.9061162 32.6689818,31.5466774 L32.6689818,31.5466774 Z M24.5994565,35.1496234 C24.9351555,35.1111121 25.6660446,34.7473943 26.0314891,34.9228347 C26.124975,34.9442298 26.2949492,35.0298105 26.3204453,35.1496234 C26.4054324,35.2865525 26.1759672,35.611759 25.9762475,36.3135205 C25.9719982,36.3177995 25.9634995,36.3220786 25.9592501,36.3263576 L25.9592501,36.3477528 C25.7977746,36.7243077 25.0456388,37.0709094 25.0201426,36.9853288 L24.9861478,36.9853288 L24.9861478,36.9938868 C24.8501684,37.0409562 24.3020016,36.8056094 24.3020016,36.6515642 L24.2850042,36.6430061 C24.0597884,35.5989219 24.5612123,35.8898962 24.5994565,35.1496234 Z" id="形状"></path>
            </g>
    </g>
</svg>