<?xml version="1.0" encoding="UTF-8"?>
<svg width="40px" height="40px" viewBox="0 0 40 40" version="1.1" xmlns="http://www.w3.org/2000/svg" xmlns:xlink="http://www.w3.org/1999/xlink">
    <!-- Generator: Sketch 58 (84663) - https://sketch.com -->
    
    <desc>Created with Sketch.</desc>
        <g id="图标汇总" transform="translate(-678.000000, -316.000000)" fill-rule="nonzero">
            <g id="折线图" transform="translate(678.000000, 316.000000)">
                <rect id="矩形" fill="#000000" opacity="0" x="0" y="0" width="40" height="40"></rect>
                <path d="M2.70786517,1 C3.84644195,1 4.41573034,1.56857855 4.41573034,2.70573566 L4.415,35.588 L37.2921348,35.5885287 C38.3707865,35.5885287 38.9384979,36.0988319 38.9952691,37.1194382 L39,37.2942643 C39,38.4314214 38.4307116,39 37.2921348,39 L2.70786517,39 C1.62921348,39 1.06150207,38.4896968 1.00473093,37.4690904 L1,37.2942643 L1.00008898,37.2714181 C1.00002966,37.2632693 1,37.2550908 1,37.2468828 L1,2.70573566 C1,1.62842893 1.51094027,1.06142538 2.53282082,1.00472503 L2.70786517,1 Z M23.8915131,23.0958155 C25.3084719,23.9273142 27.1212759,23.598581 28.1551511,22.3226908 L37.9299276,10.2599651 C38.5233159,9.52768329 38.40998,8.4536384 37.676784,7.86099002 C36.943588,7.26834165 35.8682022,7.38148878 35.274814,8.11381796 L25.5513683,20.1131471 L20.6281623,17.2241521 C19.2605893,16.4216983 17.5157678,16.6971272 16.4626792,17.8816658 L10.5113858,24.5758254 L7.22202762,23.0958155 C6.35704135,22.7200798 5.35087157,23.1158579 4.97466682,23.9797182 C4.59846208,24.8436259 4.9946868,25.8484938 5.85967306,26.2242294 L9.21217478,27.7316259 C10.529603,28.3039002 12.0660175,27.965217 13.0199076,26.8923092 L18.9651286,20.2049726 L23.8915131,23.0958155 Z" id="形状"></path>
            </g>
        </g>
</svg>