<?xml version="1.0" encoding="UTF-8"?>
<svg width="40px" height="40px" viewBox="0 0 40 40" version="1.1" xmlns="http://www.w3.org/2000/svg" xmlns:xlink="http://www.w3.org/1999/xlink">
    <!-- Generator: Sketch 58 (84663) - https://sketch.com -->
    
    <desc>Created with Sketch.</desc>
        <g id="图标汇总" transform="translate(-285.000000, -316.000000)" fill-rule="nonzero">
            <g id="中国地图" transform="translate(285.000000, 316.000000)">
                <rect id="矩形" fill="#000000" opacity="0" x="0" y="0" width="40" height="40"></rect>
                <path d="M34.0123682,32.9608154 C33.8872183,32.9442727 33.9933237,32.7623026 33.827364,32.6988888 L33.827364,32.6272036 L33.7919956,32.5886039 C33.7321413,32.5472471 33.6559631,32.5665469 33.5770642,32.5279472 C33.5770642,32.4672905 33.5308132,32.4286908 33.5117686,32.3459771 C33.4355904,32.3459771 33.4519143,32.2549921 33.4165458,32.1943354 L33.2614688,32.0344223 C33.2805133,31.9020804 33.3757361,31.7394101 33.3566915,31.5877684 C33.337647,31.5271117 33.337647,31.4471552 33.2805133,31.4057983 C33.3115255,31.1408879 33.3967779,30.8854582 33.5308132,30.655861 C33.5308132,30.5759044 33.5117686,30.4463197 33.5797849,30.3470632 L33.6967728,30.2836494 C33.7348619,30.2422926 33.7348619,30.1292506 33.7511858,30.0327513 C33.7919956,29.9307377 33.9579552,29.9114379 33.9933237,29.757039 C34.0722225,29.7377392 34.1484007,29.7184393 34.208255,29.6357256 C34.2735506,29.6357256 34.371494,29.5750689 34.4476722,29.5750689 C34.5048059,29.6357256 34.5238504,29.7184393 34.651721,29.7377392 C34.7823122,30.2422926 34.651721,30.859888 34.6299558,31.4250982 C34.4857613,31.6759963 34.5809841,32.0316651 34.371494,32.2742919 C34.3116397,32.4066338 34.3497288,32.5665469 34.3306843,32.7181887 C34.3116397,32.8202022 34.2925952,32.9001587 34.1864898,32.9442727 C34.1293562,32.9222157 34.0885464,32.9828724 34.0123682,32.9608154 L34.0123682,32.9608154 Z M24.8981904,36.9972429 C24.862822,36.955886 24.7675992,36.9338291 24.6723765,36.8952293 L24.6315667,36.8345726 C24.5635504,36.8152728 24.4683277,36.8345726 24.3921495,36.7739159 L24.3322952,36.7105021 C24.3132506,36.6415741 24.3322952,36.5616175 24.2751615,36.481661 L24.2261898,36.4403041 C24.2261898,36.3162336 24.1690562,36.2087058 24.1881007,36.0653354 C24.2071453,36.0046788 24.3132506,35.966079 24.2942061,35.853037 C24.465607,35.7096666 24.6478906,35.5414822 24.8818665,35.3981118 C25.026061,35.3981118 25.1049598,35.3595121 25.2382717,35.2960983 C25.3253325,35.2960983 25.3253325,35.3595121 25.4205552,35.3788119 L25.5375432,35.3595121 L25.5946768,35.2547414 L25.5565877,35.2051132 C25.4994541,35.1858134 25.4042313,35.1665135 25.3253325,35.1251567 C25.2790814,35.0645 25.2001826,35.0231431 25.1620935,34.9431866 C25.1620935,34.8108447 25.0641501,34.7308881 25.0478262,34.570975 L24.9879719,34.5075612 C24.9689273,34.435876 24.9689273,34.3366196 24.9498828,34.2594202 L24.9226763,34.2153062 C24.8247329,34.1960063 24.7485547,34.1960063 24.6315667,34.1739494 C24.5853156,34.1243212 24.5064168,34.1050213 24.4683277,34.0223076 C24.3333849,33.9809404 24.1930452,33.9604903 24.0520682,33.9616509 C23.9187564,33.9616509 23.9568455,34.0829643 23.8344162,34.1243212 C23.7147076,34.1546495 23.6167642,34.1546495 23.4752904,34.1546495 C23.322934,34.1022642 23.2249906,34.0443646 23.0590309,33.9616509 C22.9855734,33.9616509 22.8577028,33.9809508 22.7597594,33.9202941 C22.6835812,33.7989807 22.5502694,33.7079957 22.444164,33.5673824 C22.4060749,33.5453254 22.4060749,33.4653689 22.3679858,33.3743838 C22.3489413,33.2337706 22.4223988,33.0711003 22.3870304,32.9001587 L22.3271761,32.861559 C22.2727631,32.861559 22.1639371,32.8808589 22.0877589,32.8808589 C21.8600117,32.7991432 21.6411993,32.693814 21.4348028,32.5665469 C21.4130376,32.6685604 21.2606812,32.7181887 21.2198715,32.8422592 C21.1654585,32.9194586 21.0185434,32.9608154 20.9586891,33.0904002 C20.8607457,33.1731139 20.6811828,33.131757 20.5451503,33.131757 C20.485296,33.153814 20.4662514,33.2144707 20.3601461,33.2337706 C20.0826397,33.131757 19.7724856,33.2337706 19.4732141,33.1124572 C19.4079185,33.1124572 19.3317403,33.1345142 19.2909306,33.175871 L19.2337969,33.2944273 C19.1548981,33.2944273 19.0297482,33.2944273 18.9345254,33.2751274 C18.8583472,33.2944273 18.7604038,33.2751274 18.6923875,33.3578411 C18.6542984,33.647339 18.8175375,34.0002506 18.6352539,34.2759629 C18.5400311,34.2539059 18.5209866,34.3531623 18.4039986,34.3752193 C18.3359824,34.3752193 18.2978933,34.3531623 18.2217151,34.3366196 C18.1237717,34.2759629 18.1618608,34.1546495 18.0176663,34.1243212 C17.9986218,34.0223076 17.9632533,33.9423511 17.9224436,33.8210377 L17.8816338,33.7796808 C17.7646459,33.7796808 17.8054556,33.9202941 17.6803057,33.9616509 C17.6041275,33.9616509 17.4871396,33.9837079 17.3891962,33.9202941 C17.3420331,33.8574513 17.2871807,33.8009371 17.2259571,33.7521096 C17.187868,33.7300526 17.187868,33.6087392 17.1307344,33.5701395 C17.0926453,33.5480825 17.0355116,33.5260256 17.0164671,33.4267692 C16.9639356,33.3838386 16.8989246,33.3596171 16.8314629,33.3578411 C16.7906531,33.3137271 16.7362401,33.2944273 16.6791065,33.2365277 C16.6491793,33.175871 16.5920457,33.153814 16.5702805,33.0435291 C16.5702805,32.9222157 16.5920457,32.8229593 16.5920457,32.6713176 C16.6954304,32.6272036 16.6110902,32.5279472 16.6791065,32.4286908 C16.6301348,32.365277 16.5512359,32.3459771 16.4560132,32.2935918 C16.4152034,32.1943354 16.3199807,32.1557357 16.271009,32.0123653 C16.271009,31.8800234 16.2519644,31.7780099 16.2519644,31.6401537 L16.1975514,31.5078118 C16.0207092,31.4057983 15.7622474,31.5298688 15.5391541,31.466455 L15.4602552,31.4057983 C15.4108697,31.1395644 15.3989618,30.8675815 15.4248868,30.5979614 C15.4412107,30.4876765 15.5772432,30.5042192 15.6153323,30.385663 L15.6153323,30.2671067 C15.7023931,30.1650932 15.7785713,29.9748517 15.9526929,29.914195 C16.0207092,29.8314813 16.099608,29.7211964 16.2138753,29.6605397 C16.271009,29.62194 16.271009,29.5199265 16.271009,29.4068845 C16.3289594,29.3357344 16.3715883,29.2530902 16.3961589,29.1642577 C16.379835,29.0346729 16.4152034,28.9326594 16.434248,28.7920461 C16.4941023,28.5797477 16.434248,28.4997911 16.434248,28.3784777 L16.3580698,28.2681928 L16.2329199,28.2295931 C16.1312557,28.0099054 16.0377807,27.7864205 15.9526929,27.5596123 C15.8955593,27.5403125 15.8547495,27.5596123 15.781292,27.5403125 C15.7404822,27.6009692 15.6180529,27.7333111 15.5772432,27.8325675 C15.4602552,27.934581 15.2589271,27.8711672 15.1038501,27.8932242 C14.8807568,27.8105105 14.7501656,27.620269 14.5651614,27.4989556 L14.3311855,27.4989556 L14.186991,27.6009692 C14.1053715,27.6009692 14.070003,27.6698972 13.9557357,27.6891971 L13.8877195,27.6891971 L13.7707315,27.7333111 C13.6945533,27.7912106 13.5993306,27.8711672 13.47146,27.934581 C13.3762373,28.0862227 13.153144,28.0641658 12.9626985,28.1441223 L12.9246094,28.204779 C12.8565931,28.226836 12.8375486,28.2874927 12.7396051,28.3067925 L12.6253378,28.3067925 C12.5654835,28.3288495 12.546439,28.4005347 12.4403336,28.4170775 C12.2048487,28.4708691 11.959838,28.4642352 11.7275233,28.3977776 L11.5914908,28.2461359 C11.5534017,28.1441223 11.5914908,28.0641658 11.5724463,27.9318239 C11.4779213,27.8179509 11.3635729,27.7226292 11.2350856,27.6505974 C11.1921656,27.5581864 11.1204728,27.4826264 11.0310369,27.4355418 L10.9766239,27.3169855 L10.8596359,27.2453004 L10.7997816,27.1267441 C10.6963969,27.0633303 10.5222753,27.0440304 10.3780809,27.0054307 L10.2610929,26.8923887 L9.9074084,26.8923887 C9.8257889,26.9833737 9.70063899,27.0440304 9.64350534,27.1405297 C9.64350534,27.2453004 9.58365104,27.3169855 9.54556194,27.4382989 C9.52651739,27.4768987 9.45033919,27.4768987 9.36327838,27.5210126 C9.30614473,27.5210126 9.20820133,27.4768987 9.13202313,27.4575988 C8.98782867,27.2976857 9.15106768,26.9833737 8.98782867,26.7903751 C8.89260592,26.8124321 8.81370706,26.8896315 8.68855716,26.8703317 C8.61237896,26.8510318 8.59333441,26.7297184 8.49811165,26.6911187 L8.19884014,26.6911187 L8.01383594,26.5891052 C7.83971433,26.5477483 7.61934167,26.4347063 7.42617552,26.3961066 C7.34727667,26.3961066 7.31734951,26.3326928 7.24389196,26.2940931 C7.12690401,26.2940931 6.963665,26.2940931 6.8276325,26.2334364 C6.7895434,26.1617512 6.75145429,26.1010945 6.71336519,25.9797811 C6.60453919,25.9577241 6.52836099,25.8970674 6.41409368,25.8584677 C6.37328393,25.8060824 6.35696003,25.7895396 6.31887093,25.706826 C6.31887093,25.6461693 6.31887093,25.6075696 6.29166443,25.5248559 C6.21276558,25.4862562 6.11754282,25.4669563 6.01959942,25.414571 L5.95430382,25.2960147 L5.83731586,25.2298438 C5.78290286,25.1747013 5.79922676,25.0230596 5.78290286,24.9182889 L5.68223881,24.8190325 L5.5570889,24.7363188 C5.4809107,24.6866906 5.34759885,24.6866906 5.25781739,24.6067341 C5.03235699,24.1643338 4.72473576,23.7702056 4.35184091,23.4459855 C4.29742791,23.4459855 4.25389751,23.4459855 4.16955736,23.4652853 C4.0906585,23.525942 4.05529005,23.6251984 3.9383021,23.6582839 C3.900213,23.6058986 3.79410764,23.6058986 3.71520879,23.547999 C3.62004339,23.358837 3.50803166,23.1788768 3.38056883,23.0103601 C3.32071453,22.9304035 3.29894933,22.7787618 3.22277113,22.6960481 C3.09434201,22.5609417 2.97611422,22.4162448 2.86908661,22.2631799 L2.74121606,22.2411229 C2.68680306,22.1721948 2.64599331,22.0508814 2.531726,22.0095246 C2.4446652,21.6345559 2.531726,21.2816442 2.4827543,20.8873757 C2.531726,20.826719 2.4827543,20.713677 2.531726,20.6364776 C2.6079042,20.5923636 2.64599331,20.534464 2.76298126,20.4931072 L2.81739426,20.4931072 C2.88541051,20.5537639 2.90717571,20.6364776 3.02144302,20.6585345 L3.08129732,20.5730637 C3.08129732,20.2201521 3.00239847,19.9278971 2.96430937,19.6549419 C3.02144302,19.5529284 3.08129732,19.4729718 3.13843097,19.3323586 C2.97843746,19.0241718 2.89883284,18.6796559 2.90717571,18.3315231 C2.90717571,18.1798814 2.74393671,18.3315231 2.68952371,18.1991812 L2.5698151,18.1991812 C2.3848109,18.0999248 2.25149904,17.8738408 2.08553939,17.6835993 C1.99031663,17.6642994 1.97127208,17.6008856 1.85428413,17.5622859 L1.80803308,17.5209291 C1.71281032,17.2286741 1.80803308,16.8950622 1.71281032,16.5835074 C1.61486692,16.5393934 1.59582237,16.3905088 1.49787897,16.3077951 C1.37544971,16.2471384 1.31559541,16.1671819 1.17956291,16.0679255 C1.1605041,15.9844767 1.1605041,15.897719 1.17956291,15.8142702 C1.25846176,15.7315565 1.37544971,15.7122567 1.51964417,15.6405715 L1.55773327,15.6019718 L1.55773327,15.3538307 C1.59582237,15.2435458 1.65567667,15.1828891 1.69376577,15.0395188 C1.69376577,14.9788621 1.67472122,14.8685772 1.67472122,14.7886206 C1.65295602,14.7279639 1.65295602,14.6452502 1.59582237,14.6038934 C1.44890727,14.5349653 1.33736061,14.6038934 1.17956291,14.5129083 C1.14419445,14.4743086 1.1142673,14.391595 1.03536845,14.3529952 L1,14.2234105 L1.0380891,14.1048542 C1.0979434,14.0414404 1.16323901,14.0028407 1.22309331,13.9008271 C1.17078241,13.735594 1.17752448,13.5569744 1.24213786,13.3962737 C1.32103671,13.3962737 1.34008126,13.335617 1.41625946,13.2942602 L1.43530401,13.2336035 C1.54413002,13.1729468 1.65839732,13.1233186 1.77538528,12.9827053 C1.93862428,12.9192915 2.07465679,12.9606483 2.25694034,12.9413485 L2.37120765,12.8779347 C2.53444665,12.8779347 2.67047916,12.9606483 2.84460076,12.9413485 C2.92894092,12.9413485 3.00783977,13.021305 3.04592887,13.1012616 C3.14387227,13.1398613 3.22821243,13.1012616 3.34520038,13.1205615 C3.46218833,13.0599048 3.50027743,12.9827053 3.64447189,12.9413485 L3.70160554,12.817278 C3.72065009,12.7676498 3.79954894,12.7676498 3.87572715,12.7262929 C4.00087705,12.7262929 4.17499866,12.7483499 4.28110401,12.6242794 C4.63750917,12.5057231 4.97486978,12.6242794 5.35304015,12.6656362 C5.50539655,12.6049795 5.69040076,12.5057231 5.88084627,12.525023 L5.98967227,12.4643663 C6.06585047,12.2906676 6.21820688,12.0921547 6.18011778,11.8384995 L6.29710573,11.7337288 C6.36512198,11.7337288 6.36512198,11.6427438 6.44130018,11.5848442 L6.49843384,11.5848442 L6.53652294,11.5490016 C6.55556749,11.1133762 6.55556749,10.6391511 6.57461204,10.1704403 C6.68071739,10.1318406 6.59365659,10.0325842 6.66167284,9.93057064 C6.75961625,9.93057064 6.75961625,9.79822876 6.8711629,9.77617178 C7.15138986,9.81752862 7.51051567,9.65761551 7.74993288,9.90851366 L8.22332599,9.90851366 L8.277739,9.81752862 C8.2995042,9.67967249 8.277739,9.55560197 8.3375933,9.38466037 L8.4464193,9.3019467 L8.48178775,9.18339043 C8.51336006,9.1217237 8.56024471,9.0694592 8.61782026,9.03174868 C8.65590936,8.94903501 8.69399846,8.82772161 8.76201471,8.71743671 C8.85995812,8.69537973 8.81914836,8.57406634 8.89804722,8.49686691 C8.99326997,8.47480993 9.01231452,8.38382488 9.12114053,8.34246804 C9.27349693,8.34246804 9.37144033,8.49410978 9.57276844,8.53546662 C9.64894664,8.55476648 9.68703574,8.67332275 9.81218565,8.69537973 L9.8693193,8.69537973 L10.08153,8.75603643 C10.2051733,8.75797513 10.327447,8.72959814 10.4379352,8.67332275 C10.5059514,8.65678002 10.4869069,8.49410978 10.5630851,8.44448158 C10.5440405,8.28456847 10.524996,8.05021305 10.6392633,7.88754282 C10.6610285,7.84618598 10.8025023,7.86824296 10.8025023,7.76898655 C10.8623566,7.74692957 10.9575793,7.76898655 11.0337575,7.74692957 C11.1317009,7.71935834 11.1997172,7.69730136 11.2595715,7.61734481 L11.278616,7.55393099 C11.3330291,7.49603141 11.3330291,7.4326176 11.4119279,7.3719609 C11.6921549,7.30303283 12.0295155,7.15966246 12.3097424,7.28373298 C12.4049652,7.49603141 12.2879772,7.80758626 12.3859206,8.06951291 C12.4620988,8.12189824 12.5301151,8.17979781 12.5899694,8.28456847 C12.6634269,8.30386833 12.7232812,8.3617679 12.7613703,8.47480993 C12.818504,8.51616676 12.8865203,8.5575236 13.0062289,8.59612332 C13.0606419,8.6181803 13.1014516,8.55476648 13.1749092,8.57406634 C13.2646906,8.6181803 13.2837352,8.73949369 13.3980025,8.75603643 C13.417047,8.80015039 13.417047,8.88837831 13.4769013,8.92973515 C13.4959459,9.08964826 13.4769013,9.3019467 13.534035,9.48115966 L13.6020512,9.52527362 C13.7353631,9.7182722 13.6374197,9.99122734 13.7544076,10.2145543 C13.6999946,10.3827387 13.6782294,10.5867658 13.5149904,10.7384076 C13.4924618,10.9036812 13.498909,11.0716881 13.534035,11.2346896 C13.6765812,11.3312968 13.8441058,11.3830912 14.01559,11.3835742 L14.1108128,11.4662879 C14.3556713,11.5269446 14.6331776,11.5490016 14.8263438,11.7171861 L14.9514937,11.7171861 C15.1256153,11.7585429 15.2235587,11.940513 15.4248868,12.0204695 C15.4248868,12.0921547 15.4629759,12.1914111 15.4792998,12.2741248 C15.5990084,12.2934247 15.5990084,12.4671234 15.7241583,12.525023 L15.781292,12.525023 C15.835705,12.54708 15.9173245,12.54708 15.9526929,12.6077367 C16.0207092,12.7069931 16.0016646,12.8999916 16.0207092,13.043362 L16.1376971,13.2143036 C16.1186526,13.2942602 16.2138753,13.335617 16.1975514,13.4569304 C16.2329199,13.4982872 16.2519644,13.5672153 16.3199807,13.627872 L16.3199807,13.7491854 C16.3199807,13.8098421 16.3988795,13.8098421 16.4179241,13.9228841 C16.4750577,13.942184 16.5321914,14.0055978 16.6301348,14.0414404 C16.7362401,14.0221405 16.7362401,14.1241541 16.8505074,14.1434539 C17.1307344,14.1434539 17.3919168,14.2041106 17.6803057,14.2757958 L17.7864111,14.3585095 C18.2570835,14.3364525 18.673343,14.4357089 19.1548981,14.4357089 C19.2337969,14.4577659 19.2528415,14.5377224 19.3671088,14.5570223 L19.606526,14.5570223 C19.6881455,14.6287075 19.7724856,14.6673072 19.8513845,14.730721 C19.8513845,14.7913777 19.8894736,14.8299774 19.9057975,14.9126911 C20.0608745,14.9816192 20.205069,14.9126911 20.3791906,15.022976 C20.4172797,15.1442894 20.5614742,15.2049461 20.640373,15.3345309 C20.8797902,15.3758877 21.0920009,15.3345309 21.3531833,15.3565879 C21.4293615,15.3758877 21.4484061,15.4558443 21.5762766,15.4751441 C21.7842813,15.4124156 21.9770399,15.3062919 22.1421719,15.1635893 C22.2101881,15.1635893 22.2509979,15.1415323 22.3271761,15.1222324 L22.4033543,15.0202189 C22.5012977,15.000919 22.5883585,14.9816192 22.7026258,14.9512908 L22.8005692,14.8492773 C23.0998407,14.7500209 23.4181568,14.7279639 23.6983837,14.6480074 C23.8507401,14.6480074 24.0520682,14.6480074 24.2261898,14.6066505 C24.5635504,14.6287075 24.745834,14.6066505 24.9879719,14.5570223 C25.0478262,14.5156655 25.0641501,14.4329518 25.1049598,14.3364525 C25.1943732,14.2278839 25.2946681,14.1290165 25.4042313,14.0414404 C25.461365,14.0414404 25.4994541,14.0414404 25.5783529,14.0193834 C25.6436485,13.9614838 25.6436485,13.8484418 25.7035028,13.7712424 C25.7645993,13.7532137 25.8138985,13.707332 25.8368147,13.6471719 L25.8368147,13.583758 L25.7415919,13.4734731 C25.6817376,13.3549169 25.5565877,13.2336035 25.4967334,13.043362 C25.5184986,12.8779347 25.4967334,12.7262929 25.5184986,12.54708 C25.5783529,12.525023 25.6436485,12.525023 25.6626931,12.4147381 C25.7225474,12.3761384 25.779681,12.3320244 25.8939483,12.2934247 C26.2503535,12.232768 26.5904348,12.4671234 26.9658845,12.3540814 C27.0529453,12.3540814 27.0719898,12.2934247 27.148168,12.254825 L27.1862571,12.1914111 L27.3032451,12.1307544 C27.428395,12.0204695 27.5263384,11.9377559 27.6569296,11.7778428 C27.7657556,11.7364859 27.8446545,11.7364859 27.9589218,11.6868577 L28.0351,11.604144 C28.1412053,11.604144 28.2391487,11.5490016 28.3343715,11.4855878 C28.353416,11.3311889 28.4404768,11.2319325 28.4404768,11.0499624 L28.4595214,11.0113627 C28.4961482,10.9566016 28.5513267,10.9173608 28.6145984,10.9010778 L28.796882,10.9010778 C28.951959,10.8183641 29.0281372,10.636394 29.2131415,10.5040521 L29.512413,10.5040521 L29.6484455,10.4047957 C29.830729,10.4047957 30.0211745,10.344139 30.2469885,10.3634389 L30.3231667,10.2807252 C30.3231667,10.1924973 30.2633124,10.1704403 30.2225026,10.0877266 C30.1463244,10.0877266 30.1463244,10.0105272 30.0810288,9.9498705 C29.9830854,9.92781352 29.9259518,9.81752862 29.8470529,9.71551508 L29.7246237,9.65761551 L29.6647694,9.52527362 C29.5885912,9.48391679 29.4525587,9.50597377 29.3654979,9.57490183 L29.2893197,9.69897235 C29.1750524,9.69897235 29.1342426,9.79822876 29.0281372,9.85888545 C28.9682829,9.83682847 28.8948254,9.85888545 28.8159265,9.79822876 L28.7098212,9.71551508 L28.4785659,9.71551508 L28.3153269,9.83682847 C28.2220552,9.88293406 28.1198259,9.90742129 28.0160554,9.90851366 L27.8990675,9.81752862 L27.8609784,9.77617178 C27.8419338,9.71551508 27.7848002,9.69897235 27.7657556,9.59695881 C27.7657556,9.38466037 27.8228893,9.1310051 27.8609784,8.90767817 L27.9208327,8.84977859 C27.9398772,8.65678002 28.0160554,8.53546662 28.0650271,8.34522517 L28.1248814,8.30386833 C28.143926,8.09984126 28.2772378,7.96749937 28.353416,7.78828641 L28.4051084,7.74692957 C28.633643,7.71935834 28.8567363,7.74692957 29.1151981,7.74692957 C29.1750524,7.71935834 29.2512306,7.71935834 29.2920403,7.65594452 C29.3872631,7.51257415 29.5314575,7.39401788 29.66749,7.24237614 C29.7436682,7.07970591 29.7055791,6.92806417 29.7436682,6.74609408 C29.830729,6.61650932 29.8688181,6.41523937 29.9640409,6.24154065 L30.0238952,6.20018381 C30.0810288,6.15882697 30.0810288,6.05681343 30.0810288,5.95755702 C30.102794,5.93550004 30.1898548,5.84727212 30.2252233,5.80591528 L30.2850776,5.68460189 C30.2469885,5.5632885 30.3041221,5.45300359 30.266033,5.30963322 L30.2252233,5.2710335 C30.1300005,5.2710335 30.0429397,5.24897652 29.9259518,5.24897652 L29.7926399,5.0752778 L29.7926399,4.95947865 C29.8497736,4.89606483 29.8878627,4.80783691 29.9449963,4.72788036 L30.1000734,4.70582338 C30.1680896,4.70582338 30.2088994,4.66722366 30.2633124,4.60656696 C30.2823569,4.56521013 30.2823569,4.48525357 30.3422112,4.43286824 L30.4564785,4.41356838 L30.483685,4.35291169 L30.5244948,4.31155485 C30.6377631,4.26968589 30.7576239,4.24912984 30.8781793,4.25089815 C30.9761227,4.25089815 30.9951673,4.14888462 31.1094346,4.12958476 C31.199216,4.12958476 31.2373051,4.0606567 31.3515724,4.03859972 C31.4495158,4.03859972 31.5937103,4.0606567 31.7052569,4 C31.8222449,4.0606567 31.9310709,4.01929986 32.0643828,4.03859972 C32.2032279,4.07083789 32.3321467,4.13710816 32.4398325,4.2315983 C32.4996868,4.2315983 32.5486585,4.19024146 32.6030715,4.12958476 C32.7010149,4.07719943 32.7771931,4.12958476 32.902343,4.09925641 C32.9404321,4.19024146 33.0764646,4.1709416 33.1335982,4.25089815 C33.174408,4.27019801 33.174408,4.39426853 33.2424242,4.43286824 C33.337647,4.52385329 33.3757361,4.64516668 33.5280925,4.74442309 C33.5471371,4.82713677 33.5280925,4.93742167 33.6151533,4.99807837 L33.6750076,5.03943521 C33.7321413,5.07803492 33.7130967,5.23243379 33.7892749,5.29309048 C33.8951823,5.35614526 33.9686971,5.46286202 33.990603,5.58534548 C34.0314128,5.66805915 34.0885464,5.74801571 34.1456801,5.82797226 C34.2055344,5.82797226 34.2436235,5.8693291 34.3306843,5.88587184 C34.3497288,5.93550004 34.3497288,6.0402707 34.425907,6.05957056 C34.4449516,6.22224079 34.5020852,6.37112541 34.542895,6.55585262 C34.5809841,6.55585262 34.6299558,6.63580917 34.6490003,6.70473724 L34.7442231,6.80675077 C34.986361,6.88946445 35.304677,6.84810761 35.5740214,6.87016459 C35.6774061,6.94736402 35.7780701,6.98872086 35.8732929,7.08246303 C35.9494711,7.08246303 36.074621,7.06040605 36.1725644,7.12106275 C36.229698,7.20377642 36.3085969,7.30303283 36.4337468,7.3719609 C36.4527914,7.4326176 36.4718359,7.47397443 36.5480141,7.51533127 C36.5861032,7.57598797 36.6078684,7.63664467 36.6432369,7.74692957 L36.6622814,7.86824296 L36.7302977,7.88754282 C36.8091965,7.9095998 36.8853747,8.00885621 36.9615529,8.06951291 C37.162881,8.06951291 37.3179581,7.9702565 37.5410514,7.9095998 C37.6362741,7.82688612 37.6362741,7.69730136 37.7804686,7.65594452 C37.7804686,7.57598797 37.878412,7.53738825 37.8593674,7.41331774 C37.9355457,7.30303283 38.0307684,7.28373298 38.1776835,7.24237614 C38.2729063,7.10176289 38.4551898,6.98872086 38.5912223,6.87016459 L38.7054896,6.87016459 L38.8143156,6.78745091 L38.8687286,6.78745091 L38.9857166,6.89222157 C39.0047611,6.95012115 39.0047611,6.99147798 38.9857166,7.08246303 C38.9312157,7.13129612 38.8907876,7.19418028 38.8687286,7.26443312 C38.8687286,7.37471802 38.9068177,7.4574317 38.8687286,7.57598797 C38.9541385,7.72829402 38.962234,7.9128859 38.8904938,8.07227003 L38.8306395,8.12189824 C38.6864451,8.72019383 38.8306395,9.40671735 38.7544613,10.051884 C38.7272548,10.1125407 38.7054896,10.2338541 38.6456353,10.3055393 C38.5912223,10.3275963 38.5694571,10.366196 38.531368,10.4682095 C38.2919508,10.4461526 38.049813,10.4268527 37.8185577,10.5509232 L37.7995131,10.680508 C37.7396588,10.7604645 37.5954644,10.7797644 37.5383307,10.9010778 C37.5383307,10.9617345 37.5954644,11.0747765 37.5954644,11.1519759 C37.6362741,11.3174033 37.7995131,11.4276882 37.7995131,11.648258 C37.9573109,11.8633136 37.9001772,12.1748684 37.9763554,12.4698805 C37.9001772,12.5498371 37.8403229,12.6711505 37.7451001,12.773164 C37.6961284,12.9468627 37.7451001,13.1040187 37.6389948,13.2777174 L37.6009057,13.3190743 C37.543772,13.3411313 37.5029623,13.3411313 37.4267841,13.3190743 L37.388695,13.1977609 C37.3356456,13.1572405 37.2725455,13.1324256 37.2064114,13.1260757 C37.108468,13.2363606 37.0703789,13.401788 36.9642736,13.5727296 C36.8282411,13.7105857 36.6650021,13.8539561 36.5289696,14.0469546 C36.5289696,14.1296683 36.5888239,14.1489682 36.626913,14.2289247 C36.626913,14.3392096 36.5670587,14.3612666 36.5316902,14.4632801 L36.4147022,14.5432367 C36.1344753,14.6121648 35.8732929,14.5432367 35.576742,14.48258 C35.5168877,14.5018799 35.4407095,14.5018799 35.4026204,14.5625366 C35.3618107,14.6342217 35.3237216,14.6948784 35.2747499,14.8161918 L35.2747499,14.8768485 L35.1795271,14.9871334 C35.1604826,15.0477901 35.1033489,15.0698471 35.0843044,15.1691035 L35.0843044,15.2297602 C35.0843044,15.3621021 34.9210653,15.4007018 34.8993001,15.5440722 L34.861211,15.6653856 C34.6870894,15.7563706 34.7442231,15.877684 34.6870894,15.9576406 C34.5703791,16.0150525 34.4777506,16.112834 34.425907,16.2333528 L34.425907,16.2940095 C34.20356,16.4947696 33.9126588,16.5996317 33.6151533,16.5862645 C33.5280925,16.6276214 33.4519143,16.6441641 33.3757361,16.7489347 C33.3757361,16.8178628 33.337647,16.8592197 33.3158818,16.9391762 C33.2777927,16.9998329 33.2614688,17.0411897 33.1716873,17.1211463 C33.1716873,17.1900744 33.1335982,17.2314312 33.1145537,17.3141449 L32.9975657,17.4327011 C32.9785212,17.474058 32.9785212,17.565043 32.9213875,17.6063999 L32.8560919,17.6063999 C32.8152822,17.6477567 32.7962376,17.7084134 32.739104,17.7690701 C32.5840269,17.8076698 32.4996868,17.9179547 32.3255652,17.9179547 C32.3038,17.8269697 32.2466663,17.8076698 32.2085772,17.6863564 C32.2474683,17.6298562 32.2674899,17.5622227 32.2657109,17.4933578 L32.3446097,17.4134013 C32.4996868,17.1211463 32.3065206,16.7489347 32.4207879,16.4208372 L32.5160107,16.3519091 C32.5840269,16.3105523 32.5649824,16.1726961 32.6411606,16.1092823 C32.6405729,16.0030565 32.6221732,15.8977046 32.5867476,15.7977275 C32.4779216,15.7784276 32.458877,15.877684 32.3418891,15.899741 C32.2874761,15.899741 32.2466663,15.9190409 32.1596055,15.9383407 C32.0616621,16.0210544 32.0453382,16.1313393 31.9882045,16.2498956 C31.96916,16.3133094 31.9093057,16.3326092 31.852172,16.4235943 C31.852172,16.484251 31.8032003,16.5256078 31.7841558,16.6083215 C31.6698885,16.6662211 31.5529005,16.7461776 31.370617,16.8206199 C31.2458041,16.9729215 31.1389747,17.1394776 31.0523009,17.316902 C31.0713455,17.3941014 30.9924466,17.3941014 31.0142118,17.496115 C30.9380336,17.5678002 30.8591348,17.6284568 30.772074,17.7304704 C30.6958958,17.7304704 30.6578067,17.78837 30.5408187,17.8076698 C30.483685,17.8076698 30.4347133,17.78837 30.3558145,17.7690701 C30.3014015,17.7690701 30.219782,17.78837 30.1844135,17.8297268 C30.0783082,17.879355 30.1844135,17.9813685 30.1463244,18.0806249 C30.1844135,18.2019383 30.2633124,18.2736235 30.3367699,18.3756371 C30.4537579,18.4142368 30.6197176,18.3756371 30.7530294,18.3949369 C30.9263856,18.4332768 31.0784356,18.5379779 31.1774508,18.6871919 L31.1774508,18.982204 L31.0713455,19.0428607 L31.1311998,19.1641741 C31.199216,19.1641741 31.2345845,19.205531 31.3134833,19.205531 C31.4277506,19.1035174 31.5719451,18.9849611 31.6508439,18.8112624 L31.7651112,18.7892054 C31.9283502,18.6099925 32.1813707,18.397694 32.4806422,18.4169939 L32.6057921,18.576907 C32.7010149,18.576907 32.7799137,18.6292923 32.9050636,18.6871919 L32.9649179,18.6485922 C33.05742,18.6485922 33.1172743,18.7506057 33.2641894,18.7506057 C33.3186024,18.7285488 33.3594122,18.7506057 33.4355904,18.7285488 C33.5117686,18.7285488 33.5335338,18.7892054 33.617874,18.8305623 L33.6586837,18.960147 C33.48213,19.1863759 33.2581725,19.3700156 33.003007,19.4977859 L32.9812418,19.5584426 C32.9241082,19.6190993 32.7799137,19.5804996 32.6819703,19.6411563 L32.6438812,19.6907845 C32.6057921,19.7707411 32.6248367,19.9113543 32.5486585,19.994068 L32.4806422,20.038182 C32.434813,20.1150748 32.3965405,20.1963399 32.3663749,20.2808088 C32.2085772,20.4131506 32.0290143,20.5151642 31.9310709,20.7660623 C31.8712166,20.826719 31.7841558,20.848776 31.7678319,20.9700894 C31.7079776,20.9893893 31.688933,21.0693458 31.6317994,21.1603309 C31.6317994,21.2816442 31.7460667,21.2623444 31.7841558,21.3643579 C31.8712166,21.4443145 32.0290143,21.4029576 32.140561,21.4250146 C32.2276218,21.5352995 32.3446097,21.4636143 32.4017434,21.5959562 L32.5160107,21.6566129 C32.5840269,21.7172696 32.5649824,21.8689114 32.5840269,21.9681678 L32.7200594,22.130838 C32.739104,22.423093 32.8751365,22.6960481 32.8370474,23.0103601 L32.8560919,23.0710168 C32.9404321,23.1730303 33.0955091,23.1730303 33.1934525,23.3467291 C33.2717273,23.4611707 33.3331333,23.5865578 33.3757361,23.7189406 L33.4927241,23.840254 C33.5308132,23.9395104 33.617874,24.0718523 33.617874,24.2124655 C33.6877651,24.3156747 33.7798598,24.4014622 33.8872183,24.4633637 L33.9552346,24.6067341 C33.8872183,24.7390759 33.7321413,24.7997326 33.617874,24.9182889 C33.5498577,24.9403459 33.5308132,25.0010026 33.4355904,25.0230596 L33.2614688,25.0230596 L33.1934525,25.1333445 L33.2397036,25.1747013 C33.3566915,25.213301 33.5117686,25.1526443 33.6559631,25.1747013 C33.7567468,25.3105296 33.884685,25.4232716 34.0314128,25.505556 C34.0695019,25.7481828 34.1484007,25.9797811 34.1293562,26.2554934 L34.0695019,26.4347063 C33.9742791,26.5891052 34.0695019,26.809675 34.0695019,27.0026736 L34.0314128,27.0633303 C33.9742791,27.1046871 33.8872183,27.1405297 33.7919956,27.1846437 C33.7130967,27.2783858 33.6940522,27.416242 33.5770642,27.5154984 C33.5498577,27.7305539 33.4355904,27.890467 33.3594122,28.0834656 C33.3594122,28.204779 33.2777927,28.2433787 33.2614688,28.3977776 C33.2614688,28.4777341 33.1934525,28.519091 33.174408,28.6376473 C33.174408,28.7010611 33.174408,28.811346 33.1335982,28.8913025 C33.0955091,28.9133595 33.0193309,28.9133595 32.9785212,28.9740162 C32.9785212,29.0126159 32.9785212,29.1229008 32.9050636,29.1422007 C32.8560919,29.3048709 32.9241082,29.4565127 32.9241082,29.6384827 C32.8751365,29.7597961 32.7989583,29.8507812 32.7608692,30.0134514 L32.7200594,30.0548083 L32.6629258,30.0741081 L32.6248367,30.1127078 C32.5867476,30.184393 32.6248367,30.2229927 32.5867476,30.3057064 L32.4806422,30.3884201 C32.3826988,30.4490768 32.3826988,30.6586181 32.2874761,30.7413318 L32.1813707,30.8240455 C32.086148,30.8626452 32.0099698,30.8240455 31.8929818,30.8433453 L31.805921,30.9536302 C31.7678319,31.0142869 31.805921,31.1135433 31.805921,31.1934999 L31.7079776,31.2651851 C31.5719451,31.3478987 31.5365766,31.5298688 31.370617,31.6594536 C31.3134833,31.6594536 31.2753942,31.7008104 31.199216,31.7201103 L31.1502443,31.7614671 C31.1311998,31.8441808 31.253629,31.802824 31.2753942,31.9048375 L31.2373051,31.9434372 L31.0523009,31.9434372 C31.0142118,32.073022 30.8428109,32.073022 30.772074,32.1943354 C30.772074,32.3680341 30.6360415,32.4700476 30.5217742,32.5500042 L30.4564785,32.5500042 C30.320446,32.7209458 30.0810288,32.7816025 29.8470529,32.7650597 L29.6838139,32.9029159 C29.5695466,32.9249728 29.4716032,32.8643162 29.3301294,32.9470298 L29.2702751,33.0049294 C29.1151981,33.0462862 28.9900481,33.2392848 28.796882,33.2971844 L28.7315864,33.2585847 C28.6526875,33.2806417 28.6145984,33.3412984 28.4976105,33.3605982 L28.4431975,33.3385412 C28.4214323,33.2778845 28.4431975,33.2365277 28.4214323,33.1565711 L28.3153269,33.1152143 C28.2772378,33.1372713 28.2772378,33.2172278 28.2391487,33.2806417 L28.1412053,33.3578411 L27.9589218,33.3578411 C27.8629891,33.3698323 27.7777692,33.4257139 27.7276665,33.5094828 C27.7276665,33.5921965 27.6596503,33.5921965 27.6406057,33.69421 C27.5045732,33.8044949 27.2869212,33.7548667 27.1100789,33.8044949 L27.0556659,33.9037514 C27.0004413,33.9424508 26.935078,33.9635707 26.8679411,33.9644081 C26.7536738,33.986465 26.6938195,34.1077784 26.5686696,34.1767065 C26.4557931,34.1647335 26.3417315,34.172191 26.231309,34.1987635 L26.176896,34.2594202 C26.114321,34.2814771 26.0952765,34.3421338 26.0000537,34.3586766 C25.9320374,34.3586766 25.8939483,34.3807336 25.8177701,34.4027905 L25.7551952,34.5130754 L25.8177701,34.5516752 C25.8531386,34.6123319 25.8939483,34.6757457 25.9320374,34.7943019 C25.9320374,34.9045868 25.834094,34.9873005 25.834094,35.1086139 C25.8150495,35.1692706 25.6817376,35.1472136 25.6436485,35.2409558 L25.6436485,35.2960983 C25.8721831,35.403626 26.0979971,35.2960983 26.3564589,35.3843262 L26.4326371,35.4835826 C26.4326371,35.5442393 26.4326371,35.6545242 26.394548,35.7344807 L26.2693981,35.7758376 C26.1932199,35.8364943 26.1333656,35.9385078 26.0381428,36.0487927 C26.0190982,36.1921631 26.0979971,36.4017044 26.0000537,36.5450748 L25.8749038,36.6057315 L25.8177701,36.7353162 C25.7180282,36.8111822 25.6010986,36.860477 25.4776889,36.8786866 C25.4586443,36.9586432 25.3416564,36.9393433 25.3062879,37 L24.9009111,37 L24.8981904,36.9972429 Z" id="形状" ></path>
            </g>
    </g>
</svg>