<?xml version="1.0" encoding="UTF-8"?>
<svg width="40px" height="40px" viewBox="0 0 40 40" version="1.1" xmlns="http://www.w3.org/2000/svg" xmlns:xlink="http://www.w3.org/1999/xlink">
    <!-- Generator: Sketch 58 (84663) - https://sketch.com -->
    
    <desc>Created with Sketch.</desc>
        <g id="图标汇总" transform="translate(-390.000000, -316.000000)" fill-rule="nonzero">
            <g id="导航图标-地图标注" transform="translate(390.000000, 316.000000)">
                <rect id="矩形" fill="#000000" opacity="0" x="0" y="0" width="40" height="40"></rect>
                <path d="M14.7798828,23.9276953 L14.7798828,36.6635937 C14.7798828,37.2648047 15.4305078,37.6407031 15.9513672,37.3403906 L24.8291016,32.221875 C25.0710379,32.0823791 25.2201172,31.8243491 25.2201172,31.5450781 L25.2201172,23.2411719 C25.2201172,22.5836328 24.4573828,22.2201953 23.9467188,22.6344141 L20.4376563,25.4805859 C20.1763057,25.6925433 19.8086075,25.7133644 19.525,25.5322656 L15.9815625,23.2692969 C15.4615625,22.9371484 14.7798828,23.3106641 14.7798828,23.9276953 Z M3.77613281,15.5807031 C3.25851563,15.2163281 2.54519531,15.5865625 2.54519531,16.2195313 L2.54519531,30.3651172 C2.54519531,31.2623437 3.27925781,32.4205469 4.17648438,32.9425391 L11.8133594,37.3549609 C12.3341797,37.6558984 12.9854688,37.2800391 12.9854688,36.6785156 L12.9854688,22.4609375 C12.9854688,22.2421875 12.89375,22.0334375 12.7326172,21.8854688 L3.77613281,15.5807031 Z M26.2252344,5.09402344 C22.8707031,1.73949219 17.3548047,1.73949219 14.0002734,5.09402344 C10.6457422,8.44855469 10.6457422,13.9644531 14.0002734,17.3189844 L19.5358203,22.8545313 C19.8592188,23.1779297 20.3835547,23.1779297 20.7069531,22.8545313 L26.2425,17.3189844 C29.5797266,13.9644531 29.5797266,8.46582031 26.2252344,5.09402344 Z M20.1041016,16.4025391 C17.2510547,16.4025391 14.9167188,14.0682031 14.9167188,11.2151562 C14.9167188,8.36210937 17.2510156,6.02773438 20.1041016,6.02773438 C22.9571875,6.02773438 25.2914844,8.36207031 25.2914844,11.2151172 C25.2914844,14.0681641 22.9571484,16.4025391 20.1041016,16.4025391 Z M35.8235156,20.9158203 L30.5751563,17.4096875 C30.1903516,17.1873047 29.7924219,17.3966016 29.4921484,17.7242578 C29.2382422,18.0013281 27.8090234,19.1476953 27.2253125,19.7807812 C27.0909766,19.9264844 27.0145313,20.1162891 27.0145313,20.3144922 L27.0145313,31.6594531 C27.0145313,31.9384696 27.1633349,32.1963065 27.4049219,32.3358984 L35.8234766,37.1999609 C36.7207031,37.7219922 37.4547656,37.4120312 37.4547656,36.5148047 L37.4547656,23.4932422 C37.4547656,22.5960547 36.7207422,21.4378516 35.8235156,20.9158203 L35.8235156,20.9158203 Z" id="形状"></path>
            </g>
        </g>
</svg>