<?xml version="1.0" encoding="UTF-8"?>
<svg width="40px" height="40px" viewBox="0 0 40 40" version="1.1" xmlns="http://www.w3.org/2000/svg" xmlns:xlink="http://www.w3.org/1999/xlink">
    <!-- Generator: Sketch 58 (84663) - https://sketch.com -->
    
    <desc>Created with Sketch.</desc>
        <g id="图标汇总" transform="translate(-1218.000000, -316.000000)" fill-rule="nonzero">
            <g id="混合图" transform="translate(1218.000000, 316.000000)">
                <rect id="矩形" fill="#000000" opacity="0" x="0" y="0" width="40" height="40"></rect>
                <path d="M37.6416443,36.2592593 L35.6465594,36.2592593 L35.6465594,14.4361111 L28.0058088,14.4361111 L28.0058088,36.2592593 L23.8331099,36.2592593 L23.8331099,21.2280093 L16.1923592,21.2280093 L16.1923592,36.2592593 L12.0196604,36.2592593 L12.0196604,14.4361111 L4.37890974,14.4361111 L4.37890974,36.2592593 L2.35835567,36.2592593 C1.60701519,36.2592593 1,36.8716435 1,37.6296296 C1,38.3876157 1.60701519,39 2.35835567,39 L37.6416443,39 C38.3887399,39 38.9957551,38.3876157 39,37.6296296 C39,36.8716435 38.3929848,36.2592593 37.6416443,36.2592593 L37.6416443,36.2592593 Z M7.84696157,10.2222222 C8.73413762,10.2222222 9.55339589,9.93530093 10.224084,9.45138889 L16.0692583,12.8559028 C16.4258266,14.7572917 18.0813226,16.1961806 20.0721626,16.1961806 C22.0587578,16.1961806 23.7142538,14.7615741 24.075067,12.8644676 L29.9032618,9.46851852 C30.5654602,9.94386574 31.3762288,10.2222222 32.2549151,10.2222222 C34.5046917,10.2222222 36.3299821,8.38078704 36.3299821,6.11111111 C36.3299821,3.84143519 34.5046917,2 32.2549151,2 C30.0051385,2 28.1798481,3.84143519 28.1798481,6.11111111 C28.1798481,6.49652778 28.2307864,6.86909722 28.3284182,7.22025463 L23.5784182,9.98668981 C22.8695264,8.77905093 21.562109,7.97395833 20.0721626,7.97395833 C18.5822163,7.97395833 17.2790438,8.77905093 16.5701519,9.98240741 L11.7819482,7.19027778 C11.8753351,6.84768519 11.9262735,6.48368056 11.9262735,6.11111111 C11.9262735,3.84143519 10.100983,2 7.85120643,2 C5.60142985,2 3.77613202,3.84143519 3.77613202,6.11111111 C3.77189455,8.38506944 5.59718499,10.2222222 7.84696157,10.2222222 L7.84696157,10.2222222 Z" id="形状" ></path>
            </g>
    </g>
</svg>