<?xml version="1.0" encoding="UTF-8"?>
<svg width="25px" height="25px" viewBox="0 0 25 25" version="1.1" xmlns="http://www.w3.org/2000/svg" xmlns:xlink="http://www.w3.org/1999/xlink">
    <!-- Generator: Sketch 58 (84663) - https://sketch.com -->
    <title>预览</title>
    <desc>Created with Sketch.</desc>
        <g id="模型设置-1" transform="translate(-1003.000000, -185.000000)" fill-rule="nonzero">
            <g id="预览" transform="translate(1000.000000, 182.000000)">
                <rect id="矩形" fill="#000000" opacity="0" x="0" y="0" width="30" height="30"></rect>
                <path d="M15.1151715,18.7596849 C17.322897,18.7596849 19.3739451,17.6202137 21.3252896,15.2273242 C19.3739451,12.8201912 17.322897,11.68072 15.1151715,11.68072 C12.907446,11.68072 10.8563979,12.8201912 8.90505343,15.2130808 C10.8563979,17.6202137 12.907446,18.7596849 15.1151715,18.7596849 Z M15.1151715,20.4404049 C12.2664935,20.4404049 9.6741965,18.9875791 7.30979374,16.096171 C6.89673542,15.5834089 6.89673542,14.856996 7.30979374,14.344234 C9.65995311,11.4528258 12.2664935,10 15.1151715,10 C17.9638495,10 20.5561465,11.4528258 22.9205493,14.344234 C23.3336076,14.856996 23.3336076,15.5834089 22.9205493,16.096171 C20.5561465,19.0018225 17.9638495,20.4404049 15.1151715,20.4404049 L15.1151715,20.4404049 Z" id="形状" ></path>
                <path d="M15.3676496,16.1379027 C15.7891088,16.1379027 16.1379027,15.7891088 16.1379027,15.3676495 C16.1379027,14.9461903 15.7891088,14.5973964 15.3676496,14.5973964 C14.9461903,14.5973964 14.5973964,14.9461903 14.5973964,15.3676495 C14.5973964,15.7891088 14.9316572,16.1379027 15.3676496,16.1379027 L15.3676496,16.1379027 Z M15.3676496,18.1144013 C14.3794002,18.1144013 13.4783494,17.5912105 12.9842247,16.7337589 C12.4901001,15.8763073 12.4901001,14.8299256 12.9842247,13.972474 C13.4783494,13.1150224 14.3939333,12.5918316 15.3676496,12.5918316 C16.8936228,12.5918316 18.1289344,13.8271432 18.1289344,15.3531164 C18.1289344,16.8790896 16.8936228,18.1144013 15.3676496,18.1144013 L15.3676496,18.1144013 Z M4.99103173,25.7297343 L4.99103173,21.7912701 C4.99103173,21.2390131 4.5405063,20.8030208 4.00278242,20.8030208 C3.45052545,20.8030208 3.01453311,21.2535462 3.01453311,21.7912701 L3.01453311,26.0639951 C3.01453311,26.979579 3.7557201,27.720766 4.671304,27.720766 L8.944029,27.720766 C9.49628597,27.720766 9.93227831,27.2702406 9.93227831,26.7325167 C9.93227831,26.1947927 9.48175289,25.7442673 8.944029,25.7442673 L4.99103173,25.7442673 L4.99103173,25.7297343 Z M4.99103173,4.9910317 L8.92949592,4.9910317 C9.48175289,4.9910317 9.91774524,4.54050628 9.91774524,4.00278239 C9.91774524,3.45052542 9.46721981,3.01453308 8.92949592,3.01453308 L4.65677092,3.01453308 C3.741187,3.01453308 3,3.75572007 3,4.67130397 L3,8.94402897 C3,9.49628594 3.45052542,9.93227828 3.98824934,9.93227828 C4.5405063,9.93227828 4.97649865,9.48175286 4.97649865,8.94402897 L4.97649865,4.9910317 L4.99103173,4.9910317 Z M25.7297343,4.9910317 L25.7297343,8.9294959 C25.7297343,9.48175286 26.1802597,9.91774521 26.7179836,9.91774521 C27.2557075,9.91774521 27.7062329,9.46721978 27.7062329,8.9294959 L27.7062329,4.65677089 C27.7062329,3.74118697 26.9650459,3 26.049462,3 L21.776737,3 C21.2244801,3 20.7884877,3.45052542 20.7884877,3.98824931 C20.7884877,4.54050628 21.2390131,4.97649862 21.776737,4.97649862 L25.7297343,4.97649862 L25.7297343,4.9910317 Z M25.7297343,25.7297343 L21.7912701,25.7297343 C21.2390131,25.7297343 20.8030208,26.1802597 20.8030208,26.7179836 C20.8030208,27.2557075 21.2535462,27.7062329 21.7912701,27.7062329 L26.0639951,27.7062329 C26.979579,27.7062329 27.720766,26.9650459 27.720766,26.049462 L27.720766,21.776737 C27.720766,21.22448 27.2702406,20.7884877 26.7325167,20.7884877 C26.1947928,20.7884877 25.7442674,21.2390131 25.7442674,21.776737 L25.7442674,25.7297343 L25.7297343,25.7297343 Z" id="形状" ></path>
            </g>
        </g>
</svg>