<?xml version="1.0" encoding="UTF-8"?>
<svg width="40px" height="40px" viewBox="0 0 40 40" version="1.1" xmlns="http://www.w3.org/2000/svg" xmlns:xlink="http://www.w3.org/1999/xlink">
    <!-- Generator: Sketch 63.1 (92452) - https://sketch.com -->
    <title>进度条</title>
    <desc>Created with Sketch.</desc>
        <g id="图标汇总" transform="translate(-357.000000, -807.000000)">
            <g id="进度条" transform="translate(357.000000, 807.000000)">
                <rect id="矩形" fill="#000000" opacity="0" x="0" y="0" width="40" height="40"></rect>
                <path d="M2.76380953,26.6419048 L36.04,26.6419048 L36.04,13.9752381 L2.7657143,13.9752381 L2.7657143,26.6419048 L2.76380953,26.6419048 Z M38.4514286,13.3085714 L38.4514286,27.3085714 C38.4514286,28.3605424 37.5986376,29.2133333 36.5466667,29.2133333 L2.26095238,29.2133333 C1.20898144,29.2133333 0.356190469,28.3605424 0.356190469,27.3085714 L0.356190469,13.3085714 C0.356190469,12.2566005 1.20898143,11.4038095 2.26095238,11.4038095 L36.5466667,11.4038095 C37.5986376,11.4038095 38.4514286,12.2566005 38.4514286,13.3085714 Z M4.99047617,16.4990476 L31.6571429,16.4990476 L27.8476191,24.1180952 L4.99047617,24.1180952 L4.99047617,16.4990476 Z" id="形状"></path>
            </g>
        </g>
</svg>