<?xml version="1.0" encoding="UTF-8"?>
<svg width="22px" height="22px" viewBox="0 0 22 22" version="1.1" xmlns="http://www.w3.org/2000/svg" xmlns:xlink="http://www.w3.org/1999/xlink">
    <!-- Generator: Sketch 58 (84663) - https://sketch.com -->
    <desc>Created with Sketch.</desc>
    <g id="页面-1" stroke="none" stroke-width="1" fill="none" fill-rule="evenodd">
        <g id="数据管理-展开" transform="translate(-24.000000, -384.000000)" fill="#FFFFFF">
            <g id="编组" transform="translate(24.000000, 384.000000)">
                <rect id="矩形" fill-opacity="0.01" x="0" y="0" width="22" height="22"></rect>
                <path d="M9.56200382,11.7603092 L12.2831773,11.7600701 C12.7776165,11.7600701 13.1784388,12.1608924 13.1784388,12.6553316 L13.178183,18.7948926 C13.178183,19.2893319 12.7773608,19.6901542 12.2829215,19.6901542 L9.37196803,19.6901542 C9.2349579,19.6901542 9.13014674,19.6593768 9.05021014,19.6043586 C8.93397621,19.6595372 8.80396462,19.69041 8.6667423,19.69041 L3.92246723,19.6901542 C3.42802795,19.6901542 3.02720572,19.2893319 3.02720572,18.7948926 L3.02720572,10.7952615 C3.02720572,10.3008222 3.42802794,9.9 3.92246723,9.9 L8.6667423,9.9 C9.16118159,9.9 9.56200382,10.3008222 9.56200382,10.7952615 L9.56200382,11.7603092 Z M9.56200382,18.7951484 C9.56200381,18.8830709 9.54932947,18.9680331 9.52570818,19.0483076 C9.53764354,19.049509 9.54975182,19.0501243 9.56200382,19.0501243 L11.7460203,19.0501243 C11.9437961,19.0501243 12.104125,18.8897954 12.104125,18.6920197 L12.104125,13.1924885 C12.104125,12.9947128 11.9437961,12.8343839 11.7460203,12.8343839 L9.56225961,12.8343839 L9.56200382,18.7951484 Z M8.48769,11.3324184 C8.48768999,11.1346427 8.32736109,10.9743138 8.12958538,10.9743138 L4.23351475,10.9722414 C4.03573904,10.9722414 3.87541014,11.1325703 3.87541014,11.330346 L3.87541014,18.690203 C3.87541014,18.8879787 4.03573903,19.0483076 4.23351475,19.0483076 L8.12984118,19.0503801 C8.32761689,19.0503801 8.48794579,18.8900512 8.48794579,18.6922755 L8.48769,11.3324184 Z" id="形状" stroke="#FFFFFF" stroke-width="0.2" fill-rule="nonzero"></path>
                <path d="M14.2359635,3.82354525 L14.2359635,6.67857041 C14.2359635,6.87634613 14.3962924,7.03667502 14.5940681,7.03667502 L17.5992154,7.03661789 L14.2359635,3.82354525 Z M17.9675698,8.11073305 L14.0569112,8.11073305 C13.5624719,8.11073304 13.1616497,7.70991082 13.1616497,7.21547154 L13.1616497,3.3865244 L4.47028008,3.3865244 C4.27250437,3.3865244 4.11217547,3.54685329 4.11217547,3.744629 L4.11217547,18.2579915 C4.11217547,18.4557672 4.27250437,18.6160961 4.47028008,18.6160961 L17.6096498,18.6160961 C17.8074255,18.6160961 17.9677544,18.4557672 17.9677544,18.2579915 L17.9675698,8.11073305 Z M3.93312316,19.6901542 C3.43868389,19.6901542 3.03786165,19.2893319 3.03786165,18.7948926 L3.03786165,3.2074721 C3.03786165,2.71303281 3.43868388,2.31221057 3.93312316,2.31221057 L14.2102568,2.31221057 C14.2679006,2.31221057 14.3232417,2.33483474 14.3643768,2.37521683 L18.6879698,6.61966697 L18.9759218,6.90229832 C19.0180686,6.94367367 19.0418124,7.00025572 19.0418124,7.05931735 L19.0418124,18.7951484 C19.0418124,19.2895877 18.6409902,19.69041 18.1465509,19.69041 L3.93312316,19.6901542 Z" id="形状" stroke="#FFFFFF" stroke-width="0.2" fill-rule="nonzero"></path>
                <path d="M5.75870944,14.3055958 C5.75870944,14.5314574 5.99863952,14.7148582 6.29433162,14.7148582 C6.59002373,14.7148582 6.83148854,14.5317132 6.83148854,14.3055958 L6.83263959,12.0966658 C6.83263959,11.8708041 6.59270951,11.6874033 6.29548267,11.6874033 C5.99825583,11.6874033 5.75986049,11.8705483 5.75986049,12.0966658 L5.75870944,14.3055958 Z" id="路径" stroke="#FFFFFF" stroke-width="0.1" fill-rule="nonzero" transform="translate(6.295675, 13.201131) rotate(90.000000) translate(-6.295675, -13.201131) "></path>
                <path d="M5.75870944,16.5275042 C5.75870944,16.7533659 5.99863952,16.9367666 6.29433162,16.9367666 C6.59002373,16.9367666 6.83148854,16.7536217 6.83148854,16.5275042 L6.83263959,14.3185742 C6.83263959,14.0927125 6.59270951,13.9093118 6.29548267,13.9093118 C5.99825583,13.9093118 5.75986049,14.0924567 5.75986049,14.3185742 L5.75870944,16.5275042 Z" id="路径备份-3" stroke="#FFFFFF" stroke-width="0.1" fill-rule="nonzero" transform="translate(6.295675, 15.423039) rotate(90.000000) translate(-6.295675, -15.423039) "></path>
            </g>
        </g>
    </g>
</svg>