<?xml version="1.0" encoding="UTF-8"?>
<svg width="64px" height="40px" viewBox="0 0 64 40" version="1.1" xmlns="http://www.w3.org/2000/svg" xmlns:xlink="http://www.w3.org/1999/xlink">
    <!-- Generator: Sketch 63.1 (92452) - https://sketch.com -->
    <title>另存为</title>
    <desc>Created with Sketch.</desc>
    <g id="最新版" stroke="none" stroke-width="1" fill="none" fill-rule="evenodd">
        <g id="图标汇总备份" transform="translate(-261.000000, -255.000000)">
            <g id="编组-6" transform="translate(261.000000, 255.000000)">
                <path d="M3,0 L61,0 C62.6568542,-3.04359188e-16 64,1.34314575 64,3 L64,37 C64,38.6568542 62.6568542,40 61,40 L3,40 C1.34314575,40 2.02906125e-16,38.6568542 0,37 L0,3 C-2.02906125e-16,1.34314575 1.34314575,3.04359188e-16 3,0 Z" id="矩形备份-21" fill="#041329" opacity="0.199148996"></path>
                <g id="另存为备份" transform="translate(18.000000, 6.000000)" fill-rule="nonzero">
                    <rect id="矩形" fill="#000000" opacity="0" x="0" y="0" width="28" height="28"></rect>
                    <g id="编组-4" transform="translate(3.000000, 3.000000)" fill="#FFFFFF" stroke="#FFFFFF" stroke-width="0.3">
                        <path d="M20.5273257,19.1561612 C20.3405778,20.6146865 19.1658925,21.7044824 17.7742491,21.710285 L3.97264128,21.710285 C2.44353913,21.7032536 1.20747532,20.3902627 1.20748976,18.7730427 L1.20748976,4.20176621 C1.21410333,2.58953121 2.4482381,1.28428907 3.97264128,1.27729445 L17.7380244,1.27729445 C19.269131,1.27723375 20.5140694,2.58250229 20.5273257,4.20176621 L20.5273257,10.2167278 L21.7348155,10.2167278 L21.7348155,4.20176621 C21.7215347,1.87719783 19.9359944,0.000232520516 17.7380244,0.000232520516 L3.97264128,0.000232520516 C1.78136429,0.00724476667 0.0066302309,1.88423401 -3.93240995e-13,4.20176621 L-3.93240995e-13,18.7730427 C-3.93240995e-13,21.0955605 1.77666031,22.980309 3.97264128,22.9874571 L17.7380244,22.9874571 C19.8093073,23.0030515 21.5465655,21.3377759 21.7348155,19.1561612 L20.5273257,19.1561612 Z" id="路径"></path>
                        <path d="M16.8203322,10.2167278 L4.97485778,10.2167278 C4.6163175,10.2236397 4.27036844,10.0769314 4.01566555,9.80995842 C3.76096265,9.54298542 3.61914969,9.17843421 3.62241225,8.79918911 L3.62241225,1.40500062 C3.62241225,1.02796513 3.76565956,0.666730978 4.02000044,0.402539186 C4.27434132,0.138347394 4.61842147,-0.00662267953 4.97485778,0.000232520516 L16.8203322,0.000232520516 C17.5397137,0.0209900977 18.1126139,0.643887355 18.1124069,1.40500062 L18.1124069,8.79918911 C18.1192,9.56525637 17.5444293,10.1958685 16.8203322,10.2167278 L16.8203322,10.2167278 Z M4.97485778,1.27729445 C4.90816997,1.27729445 4.8541088,1.33447045 4.8541088,1.40500062 L4.8541088,8.79918911 C4.8541088,8.8697193 4.90816996,8.92689531 4.97485778,8.92689531 L16.8203322,8.92689531 C16.8523568,8.92689531 16.8830698,8.91344059 16.9057146,8.88949103 C16.9283595,8.86554147 16.9410812,8.8330589 16.9410812,8.79918911 L16.9410812,1.40500062 C16.9410812,1.33447045 16.88702,1.27729445 16.8203322,1.27729445 L4.97485778,1.27729445 Z" id="形状"></path>
                        <path d="M13.2944621,3.83141826 L14.5140268,3.83141826 L14.5140268,7.662604 L13.2944621,7.662604 L13.2944621,3.83141826 Z M10.8915576,15.3377461 L10.8915576,14.0606842 L21.8193398,14.0606842 L21.8193398,15.3377461 L10.8915576,15.3377461 Z" id="形状"></path>
                        <polygon id="路径" points="19.0759231 12.3928413 19.9296183 11.4899586 22.96887 14.7043234 22.1151748 15.6072062"></polygon>
                        <polygon id="路径" points="19.9284108 17.9327359 19.0735081 17.0298531 22.1139673 13.8154883 22.9676626 14.7183711"></polygon>
                    </g>
                </g>
            </g>
        </g>
    </g>
</svg>