<?xml version="1.0" encoding="UTF-8"?>
<svg width="16px" height="16px" viewBox="0 0 16 16" version="1.1" xmlns="http://www.w3.org/2000/svg" xmlns:xlink="http://www.w3.org/1999/xlink">
    <!-- Generator: Sketch 63.1 (92452) - https://sketch.com -->
    <title>搜索</title>
    <desc>Created with Sketch.</desc>
        <g id="数据管理-展开" transform="translate(-392.000000, -118.000000)" fill-rule="nonzero">
            <g id="分组" transform="translate(216.000000, 110.000000)">
                <g id="搜索" transform="translate(176.000000, 8.000000)">
                    <rect id="矩形" fill="#000000" opacity="0" x="0" y="0" width="16" height="16"></rect>
                    <path d="M14.81456,13.9422656 L11.4212976,10.475736 C11.3652368,10.4184624 11.3008144,10.3750528 11.2320736,10.345232 C11.9610656,9.36707841 12.3939408,8.1459872 12.3939408,6.8213808 C12.3939408,3.60592959 9.8433568,1 6.69691359,1 C3.550488,1 1,3.60594561 1,6.82138241 C1,10.0368976 3.550488,12.6427792 6.6969312,12.6427792 C8.1410192,12.6427792 9.4595552,12.093808 10.4636352,11.1889648 C10.4914256,11.2445584 10.5279456,11.2967312 10.5734368,11.3432128 L13.9658672,14.8097264 C14.1997824,15.0487968 14.5798128,15.0487968 14.8145584,14.8097264 C15.0484752,14.570656 15.0484752,14.18132 14.81456,13.9422656 Z M6.69693119,11.7240736 C4.04748319,11.7240736 1.89909119,9.52887361 1.89909119,6.82138241 C1.89909119,4.1130592 4.04746719,1.91878561 6.69693119,1.91878561 C9.34647519,1.91878561 11.4947712,4.11305761 11.4947712,6.82138241 C11.4947712,9.52887361 9.34645919,11.7240736 6.69693119,11.7240736 Z" id="形状" stroke-width="0.3"></path>
                </g>
            </g>
        </g>
</svg>