<?xml version="1.0" encoding="UTF-8"?>
<svg width="64px" height="40px" viewBox="0 0 64 40" version="1.1" xmlns="http://www.w3.org/2000/svg" xmlns:xlink="http://www.w3.org/1999/xlink">
    <!-- Generator: Sketch 63.1 (92452) - https://sketch.com -->
    <title>参数</title>
    <desc>Created with Sketch.</desc>
    <g id="最新版" stroke="none" stroke-width="1" fill="none" fill-rule="evenodd">
        <g id="图标汇总备份" transform="translate(-597.000000, -255.000000)">
            <g id="编组-10" transform="translate(597.000000, 255.000000)">
                <path d="M3,0 L61,0 C62.6568542,-3.04359188e-16 64,1.34314575 64,3 L64,37 C64,38.6568542 62.6568542,40 61,40 L3,40 C1.34314575,40 2.02906125e-16,38.6568542 0,37 L0,3 C-2.02906125e-16,1.34314575 1.34314575,3.04359188e-16 3,0 Z" id="矩形备份-24" fill="#041329" opacity="0.199148996"></path>
                <g id="参数备份" transform="translate(18.000000, 6.000000)" fill-rule="nonzero">
                    <rect id="矩形" fill="#000000" opacity="0" x="0" y="0" width="28" height="28"></rect>
                    <path d="M6.03332422,7.26667578 L3.81667578,7.26667578 C3.35,7.26667578 3,6.91667578 3,6.45 C3,5.98332422 3.35,5.63332422 3.81667578,5.63332422 L6.03332422,5.63332422 C6.38332422,4.7 7.31667578,4 8.36667578,4 C9.41667578,4 10.35,4.7 10.7,5.63332422 L23.1833242,5.63332422 C23.65,5.63332422 24,5.98332422 24,6.45 C24,6.91667578 23.65,7.26667578 23.1833242,7.26667578 L10.7,7.26667578 C10.35,8.2 9.41667578,8.9 8.36667578,8.9 C7.31667578,8.9 6.38332422,8.2 6.03332422,7.26667578 L6.03332422,7.26667578 Z M7.55,6.45 C7.55,6.91667578 7.9,7.26667578 8.36667578,7.26667578 C8.83332422,7.26667578 9.18332422,6.91667578 9.18332422,6.45 C9.18332422,5.98332422 8.83332422,5.63332422 8.36667578,5.63332422 C7.9,5.63332422 7.55,5.98332422 7.55,6.45 Z M6.03332422,23.3666758 L3.81667578,23.3666758 C3.35,23.3666758 3,23.0166758 3,22.55 C3,22.0833242 3.35,21.7333242 3.81667578,21.7333242 L6.03332422,21.7333242 C6.38332422,20.8 7.31667578,20.1 8.36667578,20.1 C9.41667578,20.1 10.35,20.8 10.7,21.7333242 L23.1833242,21.7333242 C23.65,21.7333242 24,22.0833242 24,22.55 C24,23.0166758 23.65,23.3666758 23.1833242,23.3666758 L10.7,23.3666758 C10.35,24.3 9.41667578,25 8.36667578,25 C7.31667578,25 6.38332422,24.3 6.03332422,23.3666758 Z M7.55,22.55 C7.55,23.0166758 7.9,23.3666758 8.36667578,23.3666758 C8.83332422,23.3666758 9.18332422,23.0166758 9.18332422,22.55 C9.18332422,22.0833242 8.83332422,21.7333242 8.36667578,21.7333242 C7.9,21.7333242 7.55,22.0833242 7.55,22.55 Z M20.9666758,15.3166758 C20.6166758,16.25 19.6833242,16.95 18.6333242,16.95 C17.5833242,16.95 16.65,16.25 16.3,15.3166758 L3.81667578,15.3166758 C3.35,15.3166758 3,14.9666758 3,14.5 C3,14.0333242 3.35,13.6833242 3.81667578,13.6833242 L16.3,13.6833242 C16.65,12.75 17.5833242,12.05 18.6333242,12.05 C19.6833242,12.05 20.6166758,12.75 20.9666758,13.6833242 L23.1833242,13.6833242 C23.65,13.6833242 24,14.0333242 24,14.5 C24,14.9666758 23.65,15.3166758 23.1833242,15.3166758 L20.9666758,15.3166758 Z M19.45,14.5 C19.45,14.0333242 19.1,13.6833242 18.6333242,13.6833242 C18.1666758,13.6833242 17.8166758,14.0333242 17.8166758,14.5 C17.8166758,14.9666758 18.1666758,15.3166758 18.6333242,15.3166758 C19.1,15.3166758 19.45,14.9666758 19.45,14.5 L19.45,14.5 Z" id="形状" fill="#FFFFFF"></path>
                </g>
            </g>
        </g>
    </g>
</svg>