<?xml version="1.0" encoding="UTF-8"?>
<svg width="40px" height="40px" viewBox="0 0 40 40" version="1.1" xmlns="http://www.w3.org/2000/svg" xmlns:xlink="http://www.w3.org/1999/xlink">
    <!-- Generator: Sketch 58 (84663) - https://sketch.com -->
    
    <desc>Created with Sketch.</desc>
        <g id="图标汇总" transform="translate(-85.000000, -316.000000)" fill-rule="nonzero">
            <g id="统计表-01" transform="translate(85.000000, 316.000000)">
                <rect id="矩形" fill="#000000" opacity="0" x="0" y="0" width="40" height="40"></rect>
                <path d="M34.6985144,2.29676281 L5.10709738,2.29676281 C3.89356016,2.29676281 2.90642945,3.28401344 2.90642945,4.49739078 L2.90642945,35.7023138 C2.90642945,36.9158511 3.8935602,37.9031017 5.10709738,37.9031017 L34.6984744,37.9031017 C35.9120116,37.9031017 36.8991424,36.9158511 36.8991424,35.7023138 L36.8991424,4.49739078 C36.8991424,3.28401344 35.9120516,2.29676281 34.6985144,2.29676281 Z M16.364345,27.7424706 L16.364345,22.8922391 L23.7347878,22.8922391 L23.7347878,27.7424706 L16.364345,27.7424706 Z M23.7347878,30.4411609 L23.7347878,35.2044114 L16.364345,35.2044114 L16.364345,30.4411609 L23.7347878,30.4411609 Z M5.60543953,22.8922391 L13.6653349,22.8922391 L13.6653349,27.7424706 L5.60543953,27.7424706 L5.60543953,22.8922391 Z M23.7347878,15.1527264 L23.7347878,15.1528064 L23.7347878,20.1935088 L16.364345,20.1935088 L16.364345,15.1528064 L16.364345,15.1527264 L23.7347878,15.1527264 Z M26.4337579,15.1527264 L34.2001323,15.1527264 L34.2001323,20.1935088 L26.4337579,20.1935088 L26.4337579,15.1528064 L26.4337579,15.1527264 Z M13.6653349,15.1527264 L13.6653349,15.1528064 L13.6653349,20.1935088 L5.60543953,20.1935088 L5.60543953,15.1527264 L13.6653349,15.1527264 Z M26.4337579,22.8922391 L34.2001323,22.8922391 L34.2001323,27.7424706 L26.4337579,27.7424706 L26.4337579,22.8922391 Z M5.60543953,30.4411609 L13.6653349,30.4411609 L13.6653349,35.2044114 L5.60543953,35.2044114 L5.60543953,30.4411609 Z M26.4337579,35.2044114 L26.4337579,30.4411609 L34.2001323,30.4411609 L34.2001323,35.2044114 L26.4337579,35.2044114 Z" id="形状"></path>
        </g>
    </g>
</svg>