<?xml version="1.0" encoding="UTF-8"?>
<svg width="40px" height="40px" viewBox="0 0 40 40" version="1.1" xmlns="http://www.w3.org/2000/svg" xmlns:xlink="http://www.w3.org/1999/xlink">
    <!-- Generator: Sketch 58 (84663) - https://sketch.com -->
    <title>矩形</title>
    <desc>Created with Sketch.</desc>
        <g id="图标汇总" transform="translate(-525.000000, -470.000000)" fill-rule="nonzero">
            <g id="文本编辑器" transform="translate(525.000000, 470.000000)">
                <rect id="矩形" fill="#000000" opacity="0" x="0" y="0" width="39.9609756" height="39.9609756"></rect>
                <path d="M28.6888796,4.32596914 L29.8583923,4.32596914 C30.1732611,4.32596914 30.3831737,4.11588162 30.3831737,3.80075031 C30.3831737,3.48561901 30.0683049,3.27553145 29.8583923,3.27553145 L28.6888796,3.27553145 C28.3740108,3.27553145 28.1640983,3.59066275 28.1640983,3.80075031 C28.1491045,4.01083784 28.3740108,4.32596914 28.6888796,4.32596914 Z M22.4364848,35.6890371 L21.2669721,35.6890371 C20.9521033,35.6890371 20.7421907,36.0041684 20.7421907,36.214256 C20.7421907,36.4243435 21.0570595,36.7394748 21.2669721,36.7394748 L22.4364848,36.7394748 C22.7513536,36.7394748 22.9612661,36.4243435 22.9612661,36.214256 C22.9612661,36.0041684 22.7513536,35.6890371 22.4364848,35.6890371 Z M29.8433986,35.6890371 L28.6888796,35.6890371 C28.3740108,35.6890371 28.1640983,36.0041684 28.1640983,36.214256 C28.1640983,36.4243435 28.4789671,36.7394748 28.6888796,36.7394748 L29.8583923,36.7394748 C30.1732611,36.7394748 30.3831737,36.4243435 30.3831737,36.214256 C30.3831737,36.0041684 30.1732611,35.6890371 29.8433986,35.6890371 L29.8433986,35.6890371 Z M15.029571,35.6890371 L13.8750521,35.6890371 C13.5601833,35.6890371 13.3502707,36.0041684 13.3502707,36.214256 C13.3502707,36.4243435 13.6651395,36.7394748 13.8750521,36.7394748 L15.0445648,36.7394748 C15.3594336,36.7394748 15.5693461,36.4243435 15.5693461,36.214256 C15.5693461,36.0041684 15.3444398,35.6890371 15.029571,35.6890371 L15.029571,35.6890371 Z M11.2211578,35.6890371 L10.0516451,35.6890371 C9.73677634,35.6890371 9.52686382,36.0041684 9.52686382,36.214256 C9.52686382,36.4243435 9.84173262,36.7394748 10.0516451,36.7394748 L11.2211578,36.7394748 C11.5360267,36.7394748 11.7459392,36.4243435 11.7459392,36.214256 C11.7459392,36.0041684 11.6409829,35.6890371 11.2211578,35.6890371 Z M18.7330279,35.6890371 L17.5635152,35.6890371 C17.2486464,35.6890371 17.0387339,36.0041684 17.0387339,36.214256 C17.0387339,36.4243435 17.3536027,36.7394748 17.5635152,36.7394748 L18.7330279,36.7394748 C19.0478967,36.7394748 19.2578092,36.4243435 19.2578092,36.214256 C19.2578092,36.0041684 19.0478967,35.6890371 18.7330279,35.6890371 L18.7330279,35.6890371 Z M37.4152436,34.1583993 L36.8904623,34.1583993 L36.8904623,32.4626928 C36.785506,32.1475615 36.4706372,31.8324302 36.1557684,31.8324302 C35.8408996,31.8324302 35.3161183,32.4626928 35.3161183,32.4626928 L35.3161183,34.1583993 L34.7913369,34.1583993 C34.4764681,34.1583993 34.1615993,34.4735306 34.1615993,34.7886619 L34.1615993,35.7490621 L32.4373178,35.7490621 C32.122449,35.7490621 31.9125364,36.0641934 31.9125364,36.2742809 C31.9125364,36.4843685 32.2274052,36.7994998 32.4373178,36.7994998 L34.1316118,36.7994998 L34.1316118,37.3247186 C34.1316118,37.6398499 34.4464806,37.9549812 34.7613494,37.9549812 L37.2952936,37.9549812 C37.6101624,37.9549812 37.9250312,37.6398499 37.9250312,37.3247186 L37.9250312,34.8937057 C37.9816719,34.7265823 37.9557883,34.5424792 37.8552664,34.3974886 C37.7547445,34.2524981 37.5914902,34.1637928 37.4152436,34.1583993 L37.4152436,34.1583993 Z M5.80841315,35.2388495 L5.80841315,34.7136307 C5.80841315,34.3984994 5.49354434,34.0833681 5.17867554,34.0833681 L4.33902541,34.0833681 L4.33902541,32.177574 C4.33902541,31.8624427 4.0241566,31.5473114 3.81424408,31.5473114 C3.60433155,31.5473114 3.28946275,31.8624427 3.28946271,32.177574 L3.28946271,34.0833681 L2.64473137,34.0833681 C2.32986257,34.0833681 2,34.3984994 2,34.7136307 L2,37.2496874 C2,37.6848687 2.32986257,38 2.64473137,38 L5.17867554,38 C5.49354434,38 5.80841315,37.6848687 5.80841315,37.3697374 L5.80841315,36.8445186 L7.50270722,36.8445186 C7.81757602,36.7394748 8.13244482,36.4243435 8.13244482,36.1092122 C8.13244482,35.7940809 7.6076635,35.268862 7.60766346,35.268862 L5.80841315,35.268862 L5.80841315,35.2388495 Z M35.6759683,26.1450604 C35.6759683,26.4601917 35.9908371,26.6702793 36.2007497,26.6702793 C36.4106622,26.6702793 36.725531,26.355148 36.725531,26.1450604 L36.725531,24.9745727 C36.725531,24.6594414 36.4106622,24.4493539 36.2007497,24.4493539 C35.9908372,24.4493539 35.6759683,24.7644852 35.6759683,24.9745727 L35.6759683,26.1450604 Z M35.6759683,15.0254272 C35.6759683,15.3405585 35.9908371,15.5506461 36.2007497,15.5506461 C36.4106622,15.5506461 36.725531,15.2355148 36.725531,15.0254272 L36.725531,13.8699458 C36.725531,13.5548145 36.4106622,13.344727 36.2007497,13.344727 C35.9908372,13.344727 35.6759683,13.6598583 35.6759683,13.8699458 L35.6759683,15.0254272 Z M37.3702624,2 L34.8363182,2 C34.5214494,2 34.2065806,2.3151313 34.2065806,2.63026261 L34.2065806,3.15548144 L32.5122865,3.15548144 C32.1974177,3.26052522 31.8825489,3.57565652 31.8825489,3.89078783 C31.8825489,4.20591913 32.5122865,4.73113796 32.5122865,4.73113796 L34.2065806,4.73113796 L34.2065806,5.15131305 C34.2065806,5.46644435 34.5214494,5.78157566 34.8363182,5.78157566 L35.7959184,5.78157566 L35.7959184,7.68736972 C35.7959184,8.00250102 36.1107872,8.31763233 36.3206997,8.31763233 C36.5306122,8.31763233 36.845481,8.00250102 36.845481,7.68736972 L36.845481,5.81158815 L37.3702624,5.81158815 C37.6851312,5.81158815 38,5.60150063 38,5.18132554 L38,2.63026261 C38,2.3151313 37.6851312,2 37.3702624,2 L37.3702624,2 Z M35.6759683,29.8516048 C35.6759683,30.1667361 35.9908371,30.3768237 36.2007497,30.3768237 C36.4106622,30.3768237 36.725531,30.0616924 36.725531,29.8516048 L36.725531,28.6961234 C36.725531,28.3809921 36.4106622,28.1709045 36.2007497,28.1709045 C35.9908372,28.1709045 35.6759683,28.4860358 35.6759683,28.6961234 L35.6759683,29.8516048 Z M35.6759683,22.4385161 C35.6759683,22.7536474 35.9908371,22.9637349 36.2007497,22.9637349 C36.4106622,22.9637349 36.725531,22.6486036 36.725531,22.4385161 L36.725531,21.2680284 C36.725531,20.952897 36.4106622,20.7428095 36.2007497,20.7428095 C35.9908372,20.7428095 35.6759683,21.0579408 35.6759683,21.2680284 L35.6759683,22.4385161 Z M36.725531,11.3188829 L36.725531,10.0433514 C36.725531,9.72822008 36.4106622,9.51813256 36.2007497,9.51813256 C35.8858809,9.51813256 35.6759683,9.83326386 35.6759683,10.0433514 L35.6759683,11.2138391 C35.6759683,11.6340142 35.8858808,11.8441017 36.2007497,11.8441017 C36.5156185,11.8441017 36.725531,11.5289704 36.725531,11.3188829 Z M35.6759683,18.7319716 C35.6759683,19.047103 35.9908371,19.2571905 36.2007497,19.2571905 C36.4106622,19.2571905 36.725531,18.9420592 36.725531,18.7319716 L36.725531,17.5614839 C36.725531,17.2463526 36.4106622,17.0362651 36.2007497,17.0362651 C35.9908372,17.0362651 35.6759683,17.3513964 35.6759683,17.5614839 L35.6759683,18.7319716 L35.6759683,18.7319716 Z M26.1399417,35.6890371 L24.970429,35.6890371 C24.6555602,35.6890371 24.4456476,36.0041684 24.4456476,36.214256 C24.4456476,36.4243435 24.7605164,36.7394748 24.970429,36.7394748 L26.1399417,36.7394748 C26.4548105,36.7394748 26.664723,36.4243435 26.664723,36.214256 C26.664723,36.0041684 26.4698042,35.6890371 26.1399417,35.6890371 Z M17.578509,4.32596914 L18.7480217,4.32596914 C19.0628905,4.32596914 19.272803,4.01083784 19.272803,3.80075031 C19.272803,3.59066279 18.9579342,3.27553145 18.7480217,3.27553145 L17.578509,3.27553145 C17.2636402,3.27553145 17.0537276,3.59066275 17.0537276,3.80075031 C17.0387338,4.01083784 17.2486464,4.32596914 17.578509,4.32596914 L17.578509,4.32596914 Z M13.8750521,4.32596914 L15.0445648,4.32596914 C15.3594336,4.32596914 15.5693461,4.01083784 15.5693461,3.80075031 C15.5693461,3.59066279 15.2544773,3.27553145 15.0445648,3.27553145 L13.8750521,3.27553145 C13.5601833,3.27553145 13.3502707,3.59066275 13.3502707,3.80075031 C13.335277,4.01083784 13.5451895,4.32596914 13.8750521,4.32596914 L13.8750521,4.32596914 Z M10.1566014,4.32596914 L11.3261141,4.32596914 C11.6409829,4.32596914 11.8508955,4.01083784 11.8508955,3.80075031 C11.8508955,3.59066279 11.6409829,3.1704877 11.3261141,3.1704877 L10.1566014,3.1704877 C9.84173262,3.1704877 9.63182006,3.48561901 9.63182006,3.80075031 C9.63182006,4.11588162 9.73677634,4.32596914 10.1566014,4.32596914 Z M2.64473137,5.81158815 L3.1695127,5.81158815 L3.1695127,7.50729468 C3.28946271,7.82242599 3.60433152,8.13755729 3.91920032,8.13755729 C4.23406913,8.13755729 4.75885045,7.50729468 4.75885049,7.50729468 L4.75885049,5.81158815 L5.17867554,5.81158815 C5.49354434,5.81158815 5.80841315,5.49645685 5.80841315,5.18132554 L5.80841315,4.32596914 L7.50270722,4.32596914 C7.81757602,4.32596914 8.02748854,4.01083784 8.02748854,3.80075031 C8.14743855,3.38057523 7.93752603,3.1704877 7.51770094,3.1704877 L5.82340691,3.1704877 L5.82340691,2.63026261 C5.82340691,2.3151313 5.50853811,2 5.1936693,2 L2.64473137,2 C2.32986257,2 2.01499376,2.3151313 2.01499376,2.63026261 L2.01499376,5.16631928 C2.01499376,5.49645685 2.32986257,5.81158815 2.64473137,5.81158815 Z M21.2819658,4.32596914 L22.4514785,4.32596914 C22.7663473,4.32596914 22.9762599,4.01083784 22.9762599,3.80075031 C22.9762599,3.59066279 22.6613911,3.27553145 22.4514785,3.27553145 L21.2819658,3.27553145 C20.967097,3.27553145 20.7571845,3.59066275 20.7571845,3.80075031 C20.7421907,4.01083784 20.9521033,4.32596914 21.2819658,4.32596914 Z M24.9854227,4.32596914 L26.1549354,4.32596914 C26.4698042,4.32596914 26.6797168,4.01083784 26.6797168,3.80075031 C26.6797168,3.59066279 26.364848,3.27553145 26.1549354,3.27553145 L24.9854227,3.27553145 C24.6705539,3.27553145 24.4606414,3.59066275 24.4606414,3.80075031 C24.4456476,4.01083784 24.6705539,4.32596914 24.9854227,4.32596914 Z M4.23406913,24.989579 C4.23406913,24.6744477 3.91920032,24.4643602 3.7092878,24.4643602 C3.49937527,24.4643602 3.18450647,24.7794915 3.18450647,24.989579 L3.18450647,26.1600667 C3.18450647,26.475198 3.49937527,26.6852855 3.7092878,26.6852855 C3.91920032,26.6852855 4.23406913,26.3701542 4.23406913,26.1600667 L4.23406913,24.989579 Z M4.23406913,17.5764902 C4.23406913,17.2613589 3.91920032,17.0512713 3.7092878,17.0512713 C3.49937527,17.0512713 3.18450647,17.3664026 3.18450647,17.5764902 L3.18450647,18.7469779 C3.18450647,19.0621092 3.49937527,19.2721967 3.7092878,19.2721967 C3.91920032,19.2721967 4.23406913,18.9570654 4.23406913,18.7469779 L4.23406913,17.5764902 L4.23406913,17.5764902 Z M4.23406913,21.2830346 C4.23406913,20.9679033 3.91920032,20.7578158 3.7092878,20.7578158 C3.49937527,20.7578158 3.18450647,21.0729471 3.18450647,21.2830346 L3.18450647,22.4535223 C3.18450647,22.7686536 3.49937527,22.9787411 3.7092878,22.9787411 C3.91920032,22.9787411 4.23406913,22.6636098 4.23406913,22.4535223 L4.23406913,21.2830346 Z M4.23406913,13.8699458 C4.23406913,13.5548145 3.91920032,13.344727 3.7092878,13.344727 C3.49937527,13.3297207 3.18450647,13.644852 3.18450647,13.8699458 L3.18450647,15.0404335 C3.18450647,15.3405585 3.49937527,15.5656523 3.7092878,15.5656523 C3.91920032,15.5656523 4.23406913,15.250521 4.23406913,15.0404335 L4.23406913,13.8699458 L4.23406913,13.8699458 Z M4.23406913,10.0433514 C4.23406913,9.72822008 3.91920032,9.51813256 3.7092878,9.51813256 C3.49937527,9.51813256 3.18450647,9.83326386 3.18450647,10.1483952 L3.18450647,11.3188829 C3.18450647,11.6340142 3.39441899,11.8441017 3.7092878,11.8441017 C4.0241566,11.8441017 4.23406913,11.5289704 4.23406913,11.3188829 L4.23406913,10.0433514 Z M3.18450647,28.6961234 L3.18450647,29.8666111 C3.18450647,30.1817424 3.39441899,30.3918299 3.7092878,30.3918299 C4.0241566,30.3918299 4.23406913,30.0766986 4.23406913,29.8666111 L4.23406913,28.6961234 C4.23406913,28.3809921 3.91920032,28.1709046 3.7092878,28.1709045 C3.49937527,28.1558983 3.18450647,28.4860358 3.18450647,28.6961234 Z M33.7717618,31.6523551 L33.7717618,8.34764485 C33.7717618,7.17715715 32.8121616,6.23176324 31.6576427,6.23176324 L8.35735111,6.23176324 C7.18783841,6.23176324 6.243232,7.19216341 6.243232,8.34764485 L6.243232,31.6523551 C6.243232,32.8228428 7.20283218,33.7684103 8.35735111,33.7684103 L31.6426489,33.7684103 C32.8121616,33.783243 33.7717618,32.8228428 33.7717618,31.6523551 Z M27.8042482,15.2355148 C27.8042482,15.8957899 27.2794669,16.556065 26.484798,16.556065 C25.6901291,16.556065 25.1653478,16.0308462 25.1653478,15.2355148 L25.1653478,13.8999583 L21.1920033,13.8999583 L21.1920033,27.1354731 L22.5114536,27.1354731 C23.3061224,27.1354731 23.8309038,27.6606919 23.8309038,28.4560233 C23.8309038,29.2513548 23.1711787,29.7765736 22.5114536,29.7765736 L17.2186589,29.7765736 C16.42399,29.7765736 15.8992087,29.2513548 15.8992087,28.4560233 C15.8992087,27.6606919 16.5589338,27.1354731 17.2186589,27.1354731 L18.5381091,27.1354731 L18.5381091,13.8999583 L14.5647647,13.8999583 L14.5647647,15.2205085 C14.5647647,15.8807836 14.0399834,16.5410588 13.2453144,16.5410588 C12.4506455,16.5410588 11.9258642,16.0158399 11.9258642,15.2205085 L11.9258642,12.5794081 C11.9258642,12.1892455 12.060808,11.919133 12.3157018,11.6490204 C12.5855893,11.3939141 12.8554769,11.2588578 13.2453144,11.2588578 L26.4698042,11.2588578 C26.8596418,11.2588578 27.1295293,11.3939141 27.3994169,11.6490204 C27.6693044,11.919133 27.7892544,12.1742392 27.7892545,12.5794081 L27.7892545,15.2355148 L27.8042482,15.2355148 Z" id="形状"></path>
            </g>
        </g>
</svg>