<?xml version="1.0" encoding="UTF-8"?>
<svg width="64px" height="40px" viewBox="0 0 64 40" version="1.1" xmlns="http://www.w3.org/2000/svg" xmlns:xlink="http://www.w3.org/1999/xlink">
    <!-- Generator: Sketch 63.1 (92452) - https://sketch.com -->
    <title>预览</title>
    <desc>Created with Sketch.</desc>
    <g id="最新版" stroke="none" stroke-width="1" fill="none" fill-rule="evenodd">
        <g id="图标汇总备份" transform="translate(-345.000000, -255.000000)">
            <g id="编组-26备份" transform="translate(345.000000, 255.000000)">
                <g id="编组-7">
                    <path d="M3,0 L61,0 C62.6568542,-3.04359188e-16 64,1.34314575 64,3 L64,37 C64,38.6568542 62.6568542,40 61,40 L3,40 C1.34314575,40 2.02906125e-16,38.6568542 0,37 L0,3 C-2.02906125e-16,1.34314575 1.34314575,3.04359188e-16 3,0 Z" id="矩形备份-16" fill="#041329" opacity="0.199148996"></path>
                    <g id="动态预览-copy备份" transform="translate(18.000000, 6.000000)">
                        <rect id="矩形" fill="#000000" opacity="0" x="0" y="0" width="28" height="28"></rect>
                        <path d="M3.69243283,23.2850073 L24.2835222,23.2850073 C24.6425073,23.2850073 24.9335222,23.5760222 24.9335222,23.9350073 L24.9335222,23.99017 C24.9335222,24.3491551 24.6425073,24.64017 24.2835222,24.64017 L3.69243283,24.64017 C3.33344774,24.64017 3.04243283,24.3491551 3.04243283,23.99017 L3.04243283,23.9350073 C3.04243283,23.5760222 3.33344774,23.2850073 3.69243283,23.2850073 Z M3.69425288,20.942529 C2.75854285,20.942529 2,20.1839861 2,19.2482761 L2,5.69425291 C2,4.75854287 2.75854285,4 3.69425288,4 L24.8724141,4 C25.8081242,4 26.566667,4.75854287 26.566667,5.69425291 L26.566667,19.2482761 C26.566667,20.1839861 25.8081242,20.942529 24.8724141,20.942529 L3.69425288,20.942529 Z M23.8125725,5.16657433 L4.78637766,5.16657433 C3.97991329,5.16657433 3.32593166,5.77396399 3.32593166,6.52197664 L3.32593166,18.2647347 C3.32593166,19.0127474 3.98076041,19.620137 4.78637766,19.620137 L23.8125725,19.620137 C24.6181898,19.620137 25.2730185,19.0127474 25.2730185,18.2647347 L25.2730185,6.52197664 C25.2730185,5.77396399 24.6190369,5.16657433 23.8125725,5.16657433 Z M13.716931,15.0201891 C13.3941825,15.2203194 12.9883403,15.2298841 12.6565222,15.0451804 C12.3247042,14.8604766 12.1190418,14.5104987 12.1190418,14.1307374 L12.1190418,10.4368439 C12.1190418,10.0570825 12.3247042,9.70710462 12.6565222,9.52240087 C12.9883403,9.33769712 13.3941825,9.34726183 13.716931,9.54739212 L16.6976658,11.3943235 C17.0055442,11.5851288 17.1928563,11.921581 17.1928563,12.2837906 C17.1928563,12.6460002 17.0055442,12.9824524 16.6976658,13.1732577 L13.716931,15.0201891 Z" id="形状" fill="#FFFFFF" fill-rule="nonzero"></path>
                    </g>
                </g>
            </g>
        </g>
    </g>
</svg>