<?xml version="1.0" encoding="UTF-8"?>
<svg width="40px" height="40px" viewBox="0 0 40 40" version="1.1" xmlns="http://www.w3.org/2000/svg" xmlns:xlink="http://www.w3.org/1999/xlink">
    <!-- Generator: Sketch 58 (84663) - https://sketch.com -->
    <title>矩形</title>
    <desc>Created with Sketch.</desc>
        <g id="图标汇总" transform="translate(-625.000000, -470.000000)" fill-rule="nonzero">
            <g id="按钮" transform="translate(625.000000, 470.000000)">
                <rect id="矩形" fill="#000000" opacity="0" x="0" y="0" width="40" height="40"></rect>
                <path d="M27.264041,37.9999992 L18.7087799,37.9999992 C16.3191224,38.0011907 14.1263761,36.6915013 13.0170451,34.6003892 C12.8647899,34.4095062 12.734379,34.2025659 12.6281923,33.9833453 L8.5155209,26.7534246 C7.73638345,25.1136178 8.35550501,23.1574541 9.94139027,22.2482769 C11.5272755,21.3390998 13.553511,21.7786985 14.6079168,23.2606958 L14.6079168,15.8793955 C14.6141052,13.9547559 16.1950653,12.3977619 18.1431417,12.3977619 C20.0912182,12.3977619 21.6721783,13.9547559 21.6783667,15.8793955 L21.6783667,21.7005866 L27.1697531,21.7005866 C30.6424806,21.706968 33.456074,24.4867258 33.4625331,27.917691 L33.4625331,31.8761193 C33.4625331,35.2582505 30.6873757,37.9999992 27.2640767,37.9999992 L27.264041,37.9999992 Z M11.6618752,24.0290841 C11.2547346,24.0282764 10.8760139,24.2351655 10.660228,24.576268 C10.4444422,24.9173704 10.4221639,25.3443588 10.6013059,25.7055742 L14.7139773,32.9471612 C14.7667107,33.0564737 14.8340856,33.1582826 14.91429,33.24985 C14.9738034,33.3175226 15.0252062,33.39176 15.0674766,33.4710864 C15.7646651,34.8237846 17.1723322,35.6744148 18.7087799,35.671474 L27.264041,35.671474 C29.385693,35.671474 31.105657,33.9722215 31.105657,31.876084 L31.105657,27.9176557 C31.0991727,25.7727356 29.3408172,24.0355257 27.1697888,24.0291194 L20.4999643,24.0291194 C20.1874326,24.0291194 19.8877013,23.9064597 19.666708,23.688124 C19.4457147,23.4697883 19.321562,23.1736615 19.321562,22.8648882 L19.321562,15.8793955 C19.321562,15.2363986 18.7939653,14.7151467 18.1431417,14.7151467 C17.4923182,14.7151467 16.9647215,15.2363986 16.9647215,15.8793955 L16.9647215,26.3575465 C16.9545764,26.9546476 16.628019,27.5026897 16.1045007,27.8012044 C15.5756216,28.0573288 14.936552,27.8883115 14.6079168,27.4053968 L12.828505,24.8207698 L12.7342171,24.6577591 C12.5274643,24.2632192 12.1114567,24.0193291 11.6618752,24.0290841 L11.6618752,24.0290841 Z M35,7.09303105 L35,15.2790932 C35,16.3646386 34.5634816,17.4057224 33.7865384,18.1733156 C33.0095953,18.9409089 31.9558355,19.3721242 30.8570766,19.3721242 L23.607148,19.3721242 L23.607148,16.3023421 C23.607148,13.476689 21.2886214,11.1860445 18.428574,11.1860445 C15.5685265,11.1860445 13.25,13.476689 13.25,16.3023421 L13.25,19.3721242 L12.732148,19.3721242 C12.6046258,19.36173 12.4764538,19.36173 12.3489317,19.3721242 L10.142852,19.3721242 C9.04409319,19.3721242 7.99033715,18.9408906 7.21340066,18.1732907 C6.43646416,17.4056909 6,16.3646033 6,15.2790579 L6,7.0930663 C6,6.00751476 6.43646906,4.9664219 7.21341327,4.19882104 C7.99035748,3.43122018 9.04412268,3 10.1428877,3 L30.857148,3 C31.9559068,3 33.0096628,3.43123366 33.7865993,4.1988335 C34.5635358,4.96643334 35,6.00752086 35,7.0930663 L35,7.09303105 Z" id="形状" ></path>
            </g>
        </g>
</svg>