<?xml version="1.0" encoding="UTF-8"?>
<svg width="14px" height="14px" viewBox="0 0 14 14" version="1.1" xmlns="http://www.w3.org/2000/svg" xmlns:xlink="http://www.w3.org/1999/xlink">
    <!-- Generator: Sketch 58 (84663) - https://sketch.com -->
    <title>删除</title>
    <desc>Created with Sketch.</desc>
        <g id="背景管理" transform="translate(-425.000000, -275.000000)" fill-rule="nonzero">
            <g id="删-除备份-5" transform="translate(424.000000, 274.000000)">
                <rect id="矩形" fill="#000000" opacity="0" x="0" y="0" width="16" height="16"></rect>
                <path d="M11.941844,13.0059368 C11.941844,13.4501663 11.589813,13.8189607 11.1539652,13.8189607 L5.44603482,13.8189607 C5.01018698,13.8189607 4.65815603,13.458548 4.65815603,13.0059368 L4.65815603,4.39794197 L11.941844,4.39794197 L11.941844,13.0059368 L11.941844,13.0059368 Z M6.2339136,2.93952805 C6.2339136,2.84732946 6.30096712,2.77189426 6.3931657,2.77189426 L10.1984526,2.77189426 C10.2906512,2.77189426 10.3577047,2.84732946 10.3577047,2.93952805 L10.3577047,3.42566602 L6.22553191,3.42566602 L6.22553191,2.93952805 L6.2339136,2.93952805 Z M14.313862,3.42566602 L11.3132173,3.42566602 L11.3132173,2.93952805 C11.3132173,2.31928304 10.8186976,1.808 10.2068343,1.808 L6.40154739,1.808 C5.78968407,1.808 5.29516441,2.31928304 5.29516441,2.93952805 L5.29516441,3.42566602 L2.27775629,3.42566602 C2.01792392,3.42566602 1.8,3.64358994 1.8,3.911804 C1.8,4.18001805 2.00954223,4.39794197 2.27775629,4.39794197 L3.70264346,4.39794197 L3.70264346,12.9975551 C3.70264346,13.9865945 4.48214055,14.7828549 5.44603482,14.7828549 L11.1539652,14.7828549 C12.1178594,14.7828549 12.8973565,13.9782128 12.8973565,12.9975551 L12.8973565,4.39794197 L14.3222437,4.39794197 C14.5820761,4.39794197 14.8,4.18001805 14.8,3.911804 C14.8,3.64358994 14.5820761,3.42566602 14.313862,3.42566602 Z M8.29580916,12.3521651 C8.55564152,12.3521651 8.77356544,12.1342411 8.77356544,11.8660271 L8.77356544,6.66937975 C8.77356544,6.4011657 8.56402321,6.18324178 8.29580916,6.18324178 C8.0275951,6.18324178 7.81805287,6.4011657 7.81805287,6.66937975 L7.81805287,11.8660271 C7.81805287,12.1342411 8.03597679,12.3521651 8.29580916,12.3521651 L8.29580916,12.3521651 Z M6.07466151,12.3521651 C6.33449387,12.3521651 6.55241779,12.1342411 6.55241779,11.8660271 L6.55241779,6.66937975 C6.55241779,6.4011657 6.34287556,6.18324178 6.07466151,6.18324178 C5.81482914,6.18324178 5.59690522,6.4011657 5.59690522,6.66937975 L5.59690522,11.8660271 C5.60528691,12.1342411 5.82321083,12.3521651 6.07466151,12.3521651 L6.07466151,12.3521651 Z M10.5169568,12.3521651 C10.7767892,12.3521651 10.9947131,12.1342411 10.9947131,11.8660271 L10.9947131,6.66937975 C10.9947131,6.4011657 10.7851709,6.18324178 10.5169568,6.18324178 C10.2571244,6.18324178 10.0392005,6.4011657 10.0392005,6.66937975 L10.0392005,11.8660271 C10.0392005,12.1342411 10.2571244,12.3521651 10.5169568,12.3521651 L10.5169568,12.3521651 Z" id="形状"></path>
            </g>
    </g>
</svg>