<?xml version="1.0" encoding="UTF-8"?>
<svg width="40px" height="40px" viewBox="0 0 40 40" version="1.1" xmlns="http://www.w3.org/2000/svg" xmlns:xlink="http://www.w3.org/1999/xlink">
    <!-- Generator: Sketch 63.1 (92452) - https://sketch.com -->
    <title>时钟</title>
    <desc>Created with Sketch.</desc>
        <g id="图标汇总" transform="translate(-961.000000, -807.000000)" fill-rule="nonzero">
            <g id="日历-日期2" transform="translate(961.000000, 807.000000)">
                <rect id="矩形" fill="#000000" opacity="0" x="0" y="0" width="40" height="40"></rect>
                <path d="M27.8053935,5.25 C27.8053935,4.55 27.2553935,4 26.5553935,4 C25.8553935,4 25.3053935,4.55 25.3053935,5.25 L25.3053935,6.5 L27.8053935,6.5 L27.8053935,5.25 Z M15.3053935,5.25 C15.3053935,4.55 14.7553935,4 14.0553935,4 C13.3553935,4 12.8053935,4.55 12.8053935,5.25 L12.8053935,6.5 L15.3053935,6.5 L15.3053935,5.25 Z M32.8053935,6.5 L27.8053935,6.5 L27.8053935,10.25 C27.8053935,10.95 27.2553935,11.5 26.5553935,11.5 C25.8553935,11.5 25.3053935,10.95 25.3053935,10.25 L25.3053935,6.5 L15.3053935,6.5 L15.3053935,10.25 C15.3053935,10.95 14.7553935,11.5 14.0553935,11.5 C13.3553935,11.5 12.8053935,10.95 12.8053935,10.25 L12.8053935,6.5 L7.8053935,6.5 C5.0553935,6.5 2.8053935,8.75 2.8053935,11.5 L2.8053935,31.5 C2.8053935,34.25 5.0553935,36.5 7.8053935,36.5 L32.8053935,36.5 C35.5553935,36.5 37.8053935,34.25 37.8053935,31.5 L37.8053935,11.5 C37.8053935,8.75 35.5553935,6.5 32.8053935,6.5 Z M14.0553935,29 L11.5553935,29 C10.8553935,29 10.3053935,28.45 10.3053935,27.75 C10.3053935,27.05 10.8553935,26.5 11.5553935,26.5 L14.0553935,26.5 C14.7553935,26.5 15.3053935,27.05 15.3053935,27.75 C15.3053935,28.45 14.7553935,29 14.0553935,29 Z M14.0553935,24 L11.5553935,24 C10.8553935,24 10.3053935,23.45 10.3053935,22.75 C10.3053935,22.05 10.8553935,21.5 11.5553935,21.5 L14.0553935,21.5 C14.7553935,21.5 15.3053935,22.05 15.3053935,22.75 C15.3053935,23.45 14.7553935,24 14.0553935,24 Z M21.5553935,29 L19.0553935,29 C18.3553935,29 17.8053935,28.45 17.8053935,27.75 C17.8053935,27.05 18.3553935,26.5 19.0553935,26.5 L21.5553935,26.5 C22.2553935,26.5 22.8053935,27.05 22.8053935,27.75 C22.8053935,28.45 22.2553935,29 21.5553935,29 Z M21.5553935,24 L19.0553935,24 C18.3553935,24 17.8053935,23.45 17.8053935,22.75 C17.8053935,22.05 18.3553935,21.5 19.0553935,21.5 L21.5553935,21.5 C22.2553935,21.5 22.8053935,22.05 22.8053935,22.75 C22.8053935,23.45 22.2553935,24 21.5553935,24 Z M29.0553935,29 L26.5553935,29 C25.8553935,29 25.3053935,28.45 25.3053935,27.75 C25.3053935,27.05 25.8553935,26.5 26.5553935,26.5 L29.0553935,26.5 C29.7553935,26.5 30.3053935,27.05 30.3053935,27.75 C30.3053935,28.45 29.7553935,29 29.0553935,29 Z M29.0553935,24 L26.5553935,24 C25.8553935,24 25.3053935,23.45 25.3053935,22.75 C25.3053935,22.05 25.8553935,21.5 26.5553935,21.5 L29.0553935,21.5 C29.7553935,21.5 30.3053935,22.05 30.3053935,22.75 C30.3053935,23.45 29.7553935,24 29.0553935,24 Z M34.0553935,16.5 L6.5553935,16.5 C5.8553935,16.5 5.3053935,15.95 5.3053935,15.25 C5.3053935,14.55 5.8553935,14 6.5553935,14 L34.0553935,14 C34.7553935,14 35.3053935,14.55 35.3053935,15.25 C35.3053935,15.95 34.7553935,16.5 34.0553935,16.5 Z" id="形状" ></path>
            </g>
    </g>
</svg>