<?xml version="1.0" encoding="UTF-8"?>
<svg width="40px" height="40px" viewBox="0 0 40 40" version="1.1" xmlns="http://www.w3.org/2000/svg" xmlns:xlink="http://www.w3.org/1999/xlink">
    <!-- Generator: Sketch 63.1 (92452) - https://sketch.com -->
    <title>首页轮播图</title>
    <desc>Created with Sketch.</desc>
        <g id="图标汇总" transform="translate(-102.000000, -807.000000)" fill-rule="nonzero">
            <g id="首页轮播图" transform="translate(102.000000, 807.000000)">
                <rect id="矩形" fill="#000000" opacity="0" x="0" y="0" width="40" height="40"></rect>
                <path d="M7.7921876,31.1004211 C7.7921876,31.1004211 9.38980372,21.3928354 12.5676232,21.3928354 C15.7497959,21.3928354 15.3710695,24.1048649 17.7609639,24.1048649 C20.1552115,24.1048649 21.1433828,15.7467643 24.3560277,15.7467643 C27.5686727,15.7467643 31.1731036,31.1047742 31.1731036,31.1047742 L7.7921876,31.1047742 L7.7921876,31.1004211 Z M12.6633931,11.8463173 C14.278422,11.8463173 15.5843752,13.1522705 15.5843752,14.7716525 C15.5843752,16.3910345 14.278422,17.6969878 12.6633931,17.6969878 C11.0483643,17.6969878 9.74241109,16.3910345 9.74241109,14.7716525 C9.74241109,13.1522705 11.0483643,11.8463173 12.6633931,11.8463173 Z M31.1687504,6 L7.7921876,6 C6.71695277,6 5.84196411,6.87498866 5.84196411,7.95022349 L5.84196411,31.3398458 C5.84196411,32.4194338 6.71695277,33.2900693 7.7921876,33.2900693 L31.1731036,33.2900693 C32.2483384,33.2900693 33.1233271,32.4194338 33.1233271,31.3398458 L33.1233271,7.95022349 C33.1189739,6.87498866 32.2483384,6 31.1687504,6 Z M35.0648442,11.8463173 L37.0281272,11.8463173 C38.0990089,11.8463173 38.960938,12.7300123 38.960938,13.7878344 L38.960938,25.4935285 C38.960938,26.5687634 38.0728898,27.4350457 37.0281272,27.4350457 L35.0648442,27.4350457 L35.0648442,11.8463173 Z M3.8960938,11.8463173 L1.93281078,11.8463173 C0.888048196,11.8463173 0,12.7169528 0,13.7878344 L0,25.4935285 C0,26.5557038 0.866282309,27.4350457 1.93281078,27.4350457 L3.8960938,27.4350457 L3.8960938,11.8463173 Z" id="形状"></path>
            </g>
        </g>
</svg>