<?xml version="1.0" encoding="UTF-8"?>
<svg width="16px" height="16px" viewBox="0 0 16 16" version="1.1" xmlns="http://www.w3.org/2000/svg" xmlns:xlink="http://www.w3.org/1999/xlink">
    <!-- Generator: Sketch 63.1 (92452) - https://sketch.com -->
    <title>删除</title>
    <desc>Created with Sketch.</desc>
        <g id="工程设计-基础信息" transform="translate(-952.000000, -214.000000)" fill-rule="nonzero">
            <g id="删-除备份-5" transform="translate(950.000000, 212.000000)">
                <rect id="矩形" fill="#000000" opacity="0" x="0" y="0" width="18" height="18"></rect>
                <path d="M13.4345745,14.6316789 C13.4345745,15.1314371 13.0385397,15.5463308 12.5482108,15.5463308 L6.12678917,15.5463308 C5.63646035,15.5463308 5.24042553,15.1408665 5.24042553,14.6316789 L5.24042553,4.94768472 L13.4345745,4.94768472 L13.4345745,14.6316789 L13.4345745,14.6316789 Z M7.0131528,3.30696905 C7.0131528,3.20324565 7.08858801,3.11838104 7.19231141,3.11838104 L11.4732592,3.11838104 C11.5769826,3.11838104 11.6524178,3.20324565 11.6524178,3.30696905 L11.6524178,3.85387427 L7.0037234,3.85387427 L7.0037234,3.30696905 L7.0131528,3.30696905 Z M16.1030948,3.85387427 L12.7273694,3.85387427 L12.7273694,3.30696905 C12.7273694,2.60919342 12.1710348,2.034 11.4826886,2.034 L7.20174081,2.034 C6.51339458,2.034 5.95705996,2.60919342 5.95705996,3.30696905 L5.95705996,3.85387427 L2.56247582,3.85387427 C2.27016441,3.85387427 2.025,4.09903868 2.025,4.4007795 C2.025,4.70252031 2.26073501,4.94768472 2.56247582,4.94768472 L4.16547389,4.94768472 L4.16547389,14.6222495 C4.16547389,15.7349188 5.04240812,16.6307118 6.12678917,16.6307118 L12.5482108,16.6307118 C13.6325919,16.6307118 14.5095261,15.7254894 14.5095261,14.6222495 L14.5095261,4.94768472 L16.1125242,4.94768472 C16.4048356,4.94768472 16.65,4.70252031 16.65,4.4007795 C16.65,4.09903868 16.4048356,3.85387427 16.1030948,3.85387427 Z M9.3327853,13.8961857 C9.62509671,13.8961857 9.87026112,13.6510213 9.87026112,13.3492805 L9.87026112,7.50305222 C9.87026112,7.20131141 9.63452611,6.956147 9.3327853,6.956147 C9.03104449,6.956147 8.79530948,7.20131141 8.79530948,7.50305222 L8.79530948,13.3492805 C8.79530948,13.6510213 9.04047389,13.8961857 9.3327853,13.8961857 L9.3327853,13.8961857 Z M6.8339942,13.8961857 C7.12630561,13.8961857 7.37147002,13.6510213 7.37147002,13.3492805 L7.37147002,7.50305222 C7.37147002,7.20131141 7.13573501,6.956147 6.8339942,6.956147 C6.54168279,6.956147 6.29651838,7.20131141 6.29651838,7.50305222 L6.29651838,13.3492805 C6.30594778,13.6510213 6.55111219,13.8961857 6.8339942,13.8961857 L6.8339942,13.8961857 Z M11.8315764,13.8961857 C12.1238878,13.8961857 12.3690522,13.6510213 12.3690522,13.3492805 L12.3690522,7.50305222 C12.3690522,7.20131141 12.1333172,6.956147 11.8315764,6.956147 C11.539265,6.956147 11.2941006,7.20131141 11.2941006,7.50305222 L11.2941006,13.3492805 C11.2941006,13.6510213 11.539265,13.8961857 11.8315764,13.8961857 L11.8315764,13.8961857 Z" id="形状"></path>
            </g>
        </g>
</svg>