<?xml version="1.0" encoding="UTF-8"?>
<svg width="40px" height="40px" viewBox="0 0 40 40" version="1.1" xmlns="http://www.w3.org/2000/svg" xmlns:xlink="http://www.w3.org/1999/xlink">
    <!-- Generator: Sketch 58 (84663) - https://sketch.com -->
    
    <desc>Created with Sketch.</desc>
        <g id="图标汇总" transform="translate(-958.000000, -316.000000)" fill-rule="nonzero">
            <g id="字符云" transform="translate(958.000000, 316.000000)">
                <rect id="矩形" fill="#000000" opacity="0" x="0" y="0" width="40" height="40"></rect>
                <path d="M18.8476562,4.6484375 C23.2226562,4.6484375 26.9960938,7.18359375 28.8085938,10.8554688 C34.9570312,11.21875 39.8359397,16.3085938 39.8359397,22.5507812 C39.8398438,29.03125 34.5859375,34.28125 28.109375,34.28125 C27.9023438,34.28125 27.6992188,34.2578125 27.4921875,34.25 L27.4921875,34.28125 L10.2070312,34.28125 L10.2070312,34.2539062 C4.69921875,33.9492188 0.328125,29.6601562 0.328125,24.4023438 C0.328125,19.9453125 3.46875,16.1796875 7.77734375,14.9492188 C8.1953125,9.1953125 12.984375,4.6484375 18.8476562,4.6484375 Z M28.8710938,17.0507813 C27.4287861,17.0507813 26.1462417,17.3669795 25.0173159,18.0024483 L24.7382813,18.1679688 L24.7382813,20.21875 C25.921875,19.25 27.234375,18.765625 28.6757813,18.765625 C30.2345252,18.765625 31.0420673,19.6721235 31.1018801,21.4851204 L31.1054688,21.7070313 L27.546875,22.2070313 C24.890625,22.578125 23.5625,23.8828125 23.5625,26.125 C23.5625,27.1953125 23.90625,28.046875 24.59375,28.6757812 C25.28125,29.3046875 26.2070313,29.6210938 27.3710938,29.6210938 C28.9068668,29.6210938 30.0885453,28.9830224 30.9161292,27.7035584 L31.0507813,27.484375 L31.1054688,27.484375 L31.1054688,29.3359375 L33.2109375,29.3359375 L33.2109375,21.609375 C33.2109375,18.5703125 31.765625,17.0507813 28.8710938,17.0507813 Z M16.7109375,12.5351562 L14.3867188,12.5351562 L7.984375,29.34375 L10.3828125,29.34375 L12,24.7421875 L19,24.7421875 L20.7148438,29.34375 L23.1132813,29.34375 L16.7109375,12.5351562 Z" id="形状" ></path>
                <path d="M31.1054688,23.3203125 L28.2929688,23.6992188 C27.3085937,23.828125 26.6289062,24.0742188 26.2578125,24.4375 C25.8867188,24.8007812 25.6992188,25.3046875 25.6992188,25.9570312 C25.6992188,26.5273438 25.9023438,26.9960938 26.3085938,27.3554688 C26.7148438,27.71875 27.25,27.8984375 27.9140625,27.8984375 C28.8398438,27.8984375 29.6015625,27.5742188 30.203125,26.921875 C30.8046875,26.2695312 31.1054688,25.453125 31.1054688,24.46875 L31.1054688,23.3203125 L31.1054688,23.3203125 Z" id="路径" ></path>
                <path d="M15.7890625,15.8515625 C15.7109375,15.6289062 15.6210937,15.2382812 15.5273437,14.6796875 L15.4726562,14.6796875 C15.3945312,15.1875 15.3007812,15.578125 15.203125,15.8515625 L12.6875,22.8398438 L18.3320312,22.8398438 L15.7890625,15.8515625 L15.7890625,15.8515625 Z" id="路径" ></path>
            </g>
    </g>
</svg>