<?xml version="1.0" encoding="UTF-8"?>
<svg width="18px" height="18px" viewBox="0 0 18 18" version="1.1" xmlns="http://www.w3.org/2000/svg" xmlns:xlink="http://www.w3.org/1999/xlink">
    <!-- Generator: Sketch 58 (84663) - https://sketch.com -->
    <title>编组 18</title>
    <desc>Created with Sketch.</desc>
    <g id="最新版" stroke="none" stroke-width="1" fill="none" fill-rule="evenodd">
        <g id="工程设计-基础信息" transform="translate(-1230.000000, -218.000000)" fill-rule="nonzero">
            <g id="容器" transform="translate(1230.000000, 218.000000)">
                <rect id="矩形" fill="#000000" opacity="0" x="0" y="0" width="18" height="17.982439"></rect>
                <path d="M9.50817286,2.11996149 L9.56815602,2.15292004 L14.426792,4.95439696 C14.779193,5.15814073 14.996632,5.53416785 14.996632,5.94090634 L14.996632,11.5461073 C14.996632,11.9527826 14.779327,12.32853 14.426792,12.5318677 L9.56815602,15.3340936 C9.21553779,15.5374792 8.78109421,15.5374792 8.42847598,15.3340936 L3.56984002,12.5318677 C3.21730497,12.32853 3,11.9527826 3,11.5461073 L3,5.94015729 C3,5.53341879 3.21743896,5.15739168 3.56984002,4.95439696 L8.42847598,2.15292004 C8.75997745,1.96141935 9.1655865,1.94903783 9.50817286,2.11996149 Z M8.62342124,3.35590718 L4.60754869,5.6704964 C4.51296095,5.72488182 4.45541016,5.82630499 4.45723652,5.93531726 C4.45915138,6.04432952 4.52014809,6.14372243 4.61654617,6.194837 L8.64591494,8.33789194 C8.86620716,8.45507815 9.13042484,8.45507815 9.35071706,8.33789194 L13.3800858,6.194837 C13.4764839,6.14372243 13.5374806,6.04432952 13.5393955,5.93531726 C13.5412218,5.82630499 13.4836711,5.72488182 13.3890833,5.6704964 L9.37321076,3.35590718 C9.14122507,3.22210085 8.85540693,3.22210085 8.62342124,3.35590718 Z" id="形状" fill="#0091FF"></path>
                <g id="关--闭" transform="translate(10.000000, 10.000000)" stroke="#FAFAFA">
                    <path d="M2.5,-0.0118554687 C3.88407216,-0.0118554687 5.01185547,1.11592784 5.01185547,2.5 C5.01185547,3.88407056 3.88406888,5.01185547 2.5,5.01185547 C1.11592784,5.01185547 -0.0118554687,3.88407216 -0.0118554687,2.5 C-0.0118554687,1.11592944 1.11593112,-0.0118554687 2.5,-0.0118554687 Z" id="路径" stroke-width="0.5" fill="#0091FF"></path>
                    <path d="M2.68256836,2.5 L3.65085938,1.53171387 C3.69842773,1.48414063 3.69842773,1.40471191 3.65085938,1.34914551 L3.64285645,1.34128418 C3.59439717,1.29369267 3.51674541,1.29369267 3.46828613,1.34128418 L2.5,2.31743164 L1.53171387,1.34914063 C1.48325459,1.30154912 1.40560283,1.30154912 1.35714355,1.34914063 L1.34914063,1.35714355 C1.30157227,1.40471191 1.30157227,1.48414551 1.34914063,1.53971191 L2.31743164,2.5 L1.34914063,3.46828613 C1.30157227,3.51585938 1.30157227,3.59528809 1.34914063,3.65085449 L1.35714355,3.65885742 C1.40560283,3.70644893 1.48325459,3.70644893 1.53171387,3.65885742 L2.5,2.68271484 L3.46828613,3.65100098 C3.51674541,3.69859249 3.59439717,3.69859249 3.64285645,3.65100098 L3.65085938,3.64299805 C3.69842773,3.59542969 3.69842773,3.51599609 3.65085938,3.46042969 L2.68256836,2.5 Z" id="路径" stroke-width="0.2" fill="#FFFFFF"></path>
                </g>
            </g>
        </g>
    </g>
</svg>