<?xml version="1.0" encoding="UTF-8"?>
<svg width="18px" height="16px" viewBox="0 0 18 16" version="1.1" xmlns="http://www.w3.org/2000/svg" xmlns:xlink="http://www.w3.org/1999/xlink">
    <!-- Generator: Sketch 63.1 (92452) - https://sketch.com -->
    <title>刷新</title>
    <desc>Created with Sketch.</desc>
        <g id="工程设计-基础信息" transform="translate(-1118.000000, -213.000000)" fill-rule="nonzero">
            <g id="编组-18" transform="translate(1118.000000, 212.000000)">
                <rect id="矩形" fill="#000000" opacity="0" x="0" y="0" width="18" height="18"></rect>
                <path d="M9.37060063,15.3928615 C6.42130457,15.3928615 4.00492763,13.2062614 3.59540044,10.370505 L5.18530034,10.370505 L3.09265015,7.85931714 L1,10.370505 L2.73217363,10.370505 C3.14413042,13.6730271 5.95612667,16.2299369 9.37060063,16.2299369 C11.8449622,16.2299369 13.9898961,14.8778677 15.1474269,12.8816928 L14.1321889,12.8816928 C13.0784221,14.3906897 11.3536711,15.3928615 9.37060063,15.3928615 Z M16.0089702,7.85931714 C15.5961908,4.55690982 12.7850363,2 9.37060063,2 C6.89621993,2 4.75126691,3.35122742 3.59373607,5.34816756 L4.58773916,5.34816756 C5.6398034,3.83266628 7.3825562,2.83699885 9.37060063,2.83699885 C12.3198776,2.83699885 14.7362545,5.02285293 15.1457817,7.85931714 L13.5558627,7.85931714 L15.648532,10.370505 L17.741163,7.85931714 L16.0089702,7.85931714 Z" id="形状" stroke="#1F4170" stroke-width="0.2"></path>
            </g>
        </g>
</svg>