<?xml version="1.0" encoding="UTF-8"?>
<svg width="40px" height="40px" viewBox="0 0 40 40" version="1.1" xmlns="http://www.w3.org/2000/svg" xmlns:xlink="http://www.w3.org/1999/xlink">
    <!-- Generator: Sketch 58 (84663) - https://sketch.com -->
    <title>矩形</title>
    <desc>Created with Sketch.</desc>
        <g id="图标汇总" transform="translate(-805.000000, -470.000000)" fill-rule="nonzero">
            <g id="容器" transform="translate(805.000000, 470.000000)">
                <rect id="矩形" fill="#000000" opacity="0" x="0" y="0" width="40" height="40"></rect>
                <path d="M21.445,1.33800407 L21.615,1.43086823 L35.385,9.32432273 C36.38375,9.89839213 37,10.9578879 37,12.1039162 L37,27.8971569 C37,29.043007 36.3841297,30.1017147 35.385,30.6746398 L21.615,38.5702048 C20.6156345,39.1432651 19.3843655,39.1432651 18.385,38.5702048 L4.615,30.6746398 C3.61587027,30.1017147 3,29.043007 3,27.8971569 L3,12.1018057 C3,10.9557774 3.61625001,9.89628162 4.615,9.32432273 L18.385,1.43086823 C19.3245179,0.891294977 20.4740661,0.856408755 21.445,1.33800407 Z M18.9375,4.82041044 L7.55600001,11.3420079 C7.28792617,11.4952445 7.12481982,11.7810149 7.12999595,12.0881684 C7.13542291,12.3953218 7.30829544,12.6753718 7.58150001,12.8193924 L19.00125,18.8576741 C19.6255865,19.1878585 20.3744135,19.1878585 20.99875,18.8576741 L32.4185,12.8193924 C32.6917046,12.6753718 32.8645771,12.3953218 32.8700041,12.0881684 C32.8751802,11.7810149 32.7120738,11.4952445 32.444,11.3420079 L21.0625,4.82041044 C20.4050227,4.4433971 19.5949773,4.4433971 18.9375,4.82041044 Z" id="形状" ></path>
            </g>
    </g>
</svg>