<?xml version="1.0" encoding="UTF-8"?>
<svg width="40px" height="40px" viewBox="0 0 40 40" version="1.1" xmlns="http://www.w3.org/2000/svg" xmlns:xlink="http://www.w3.org/1999/xlink">
    <!-- Generator: Sketch 58 (84663) - https://sketch.com -->
    <title>矩形</title>
    <desc>Created with Sketch.</desc>
        <g id="图标汇总" transform="translate(-713.000000, -470.000000)" fill-rule="nonzero">
            <g id="下拉列表" transform="translate(713.000000, 470.000000)">
                <rect id="矩形" fill="#000000" opacity="0" x="0" y="0" width="40" height="40"></rect>
                <path d="M4.44444445,4.44444445 L35.5555555,4.44444445 C36.782855,4.44444445 37.7777778,5.43936723 37.7777778,6.66666668 L37.7777778,17.7777778 C37.7777778,19.0050772 36.782855,20 35.5555555,20 L4.44444445,20 C3.21714501,20 2.22222223,19.0050772 2.22222223,17.7777778 L2.22222223,6.66666668 C2.22222223,5.43936723 3.21714501,4.44444445 4.44444445,4.44444445 Z M25.1955555,9.64 C24.9950092,9.85622124 24.8886476,10.1432994 24.8999018,10.4379921 C24.911156,10.7326848 25.0391026,11.0108149 25.2555555,11.2111111 L29.0066667,14.6777778 C29.4364228,15.0760551 30.101598,15.0721652 30.5266667,14.6688889 L34.1688889,11.2111111 C34.4566862,10.9372075 34.576496,10.5305721 34.4831872,10.1443805 C34.3898783,9.75818891 34.0976266,9.45111286 33.7165205,9.33882492 C33.3354143,9.22653698 32.9233528,9.32609636 32.6355555,9.6 L29.7511111,12.3422222 L26.7666667,9.58 C26.5504454,9.37945366 26.2633673,9.27309203 25.9686745,9.28434621 C25.6739818,9.29560039 25.3958518,9.42354705 25.1955555,9.64 Z M3.33333332,24.4444445 L36.6666667,24.4444445 C37.2803164,24.4444445 37.7777778,24.9419058 37.7777778,25.5555556 C37.7777778,26.1692053 37.2803164,26.6666667 36.6666667,26.6666667 L3.33333332,26.6666667 C2.7196836,26.6666667 2.22222221,26.1692053 2.22222221,25.5555556 C2.22222221,24.9419058 2.7196836,24.4444445 3.33333332,24.4444445 Z M3.33333332,31.1111111 L36.6666667,31.1111111 C37.2803164,31.1111111 37.7777778,31.6085725 37.7777778,32.2222222 C37.7777778,32.8358719 37.2803164,33.3333333 36.6666667,33.3333333 L3.33333332,33.3333333 C2.7196836,33.3333333 2.22222221,32.8358719 2.22222221,32.2222222 C2.22222221,31.6085725 2.7196836,31.1111111 3.33333332,31.1111111 Z" id="形状"></path>
            </g>
    </g>
</svg>