<?xml version="1.0" encoding="UTF-8"?>
<svg width="40px" height="40px" viewBox="0 0 40 40" version="1.1" xmlns="http://www.w3.org/2000/svg" xmlns:xlink="http://www.w3.org/1999/xlink">
    <!-- Generator: Sketch 58 (84663) - https://sketch.com -->
    
    <desc>Created with Sketch.</desc>
        <g id="图标汇总" transform="translate(-1130.000000, -316.000000)" fill-rule="nonzero">
            <g id="理财统计表" transform="translate(1130.000000, 316.000000)">
                <rect id="矩形" fill="#000000" opacity="0" x="0" y="0" width="40" height="40"></rect>
                <path d="M39,4.6187251 L39,30.9075023 C39,31.5096026 38.5089496,32.000653 37.9053649,32.000653 L31.3342143,32.000653 C30.7291916,32.000653 30.2381411,31.5096026 30.2381411,30.9075023 L30.2381411,4.6187251 C30.2381411,4.01657837 30.7291916,3.52552798 31.3342143,3.52552798 L37.9053649,3.52552798 C38.5089496,3.52552798 39,4.01514041 39,4.6187251 L39,4.6187251 Z M18.5311396,30.9046263 L18.5311396,13.3807231 C18.5311396,12.7771848 19.0207056,12.2859488 19.6259138,12.2859488 L26.1968789,12.2859488 C26.8020872,12.2859488 27.2945756,12.7771848 27.2945756,13.3807231 L27.2945756,30.9046263 C27.2945756,31.509649 26.8020872,32.0006995 26.1968789,32.0006995 L19.6259138,32.0006995 C19.0207056,32.0006995 18.5311396,31.5096491 18.5311396,30.9046263 L18.5311396,30.9046263 Z M20.720549,29.8083677 L25.1022902,29.8083677 L25.1022902,14.4753582 L20.720549,14.4753582 L20.720549,29.8083677 L20.720549,29.8083677 Z M7.91886589,32.0006995 L14.4915009,32.0006995 C15.0936012,32.0006995 15.5860896,31.5096491 15.5860896,30.9046263 L15.5860896,22.1440199 C15.5860896,21.5389972 15.0936012,21.0479468 14.4915008,21.0479468 L7.91886589,21.0479468 C7.31532757,21.0479468 6.82427714,21.5389972 6.82427714,22.1440199 L6.82427714,30.9046263 C6.82427714,31.5096491 7.31532757,32.0006995 7.91886589,32.0006995 L7.91886589,32.0006995 Z M3.92310904,1 L1,1 L1,39 L39,39 L39,36.076891 L3.92310904,36.076891 L3.92310904,1 L3.92310904,1 Z" id="形状" ></path>
        </g>
    </g>
</svg>