<?xml version="1.0" encoding="UTF-8"?>
<svg width="64px" height="40px" viewBox="0 0 64 40" version="1.1" xmlns="http://www.w3.org/2000/svg" xmlns:xlink="http://www.w3.org/1999/xlink">
    <!-- Generator: Sketch 63.1 (92452) - https://sketch.com -->
    <title>模板</title>
    <desc>Created with Sketch.</desc>
    <g id="最新版" stroke="none" stroke-width="1" fill="none" fill-rule="evenodd">
        <g id="图标汇总备份" transform="translate(-513.000000, -255.000000)">
            <g id="编组-9" transform="translate(513.000000, 255.000000)">
                <path d="M3,0 L61,0 C62.6568542,-3.04359188e-16 64,1.34314575 64,3 L64,37 C64,38.6568542 62.6568542,40 61,40 L3,40 C1.34314575,40 2.02906125e-16,38.6568542 0,37 L0,3 C-2.02906125e-16,1.34314575 1.34314575,3.04359188e-16 3,0 Z" id="矩形备份-23" fill="#041329" opacity="0.199148996"></path>
                <g id="模版备份-2" transform="translate(18.000000, 6.000000)" fill-rule="nonzero">
                    <rect id="矩形" fill="#000000" opacity="0" x="0" y="0" width="28" height="28"></rect>
                    <g id="编组-13" transform="translate(2.000000, 3.000000)" fill="#FFFFFF">
                        <path d="M21.4466639,23 L2.83103889,23 C1.62414587,22.9921681 0.647474908,22.0161376 0.638851392,20.80925 L0.638851392,2.19075 C0.647474908,0.983862375 1.62414587,0.0078318526 2.83103889,0 L21.4466639,0 C22.6570389,0 23.6388514,0.980375 23.6388514,2.19075 L23.6388514,20.80925 C23.6388514,22.019625 22.6570389,23 21.4466639,23 Z M2.83103889,1.46624998 C2.43387224,1.47387433 2.11351295,1.79359924 2.10510139,2.19075 L2.10510139,20.80925 C2.11372639,21.206 2.43428889,21.528 2.83103889,21.53375 L21.4466639,21.53375 C21.8491639,21.53375 22.1797889,21.21175 22.1869764,20.80925 L22.1869764,2.19075 C22.1783736,1.78807497 21.8494308,1.46624998 21.4466639,1.46624998 L2.83103889,1.46624998 Z" id="形状"></path>
                        <path d="M21.6263514,8.625 L1.21385139,8.625 C0.876002535,8.5520693 0.635841348,8.25186782 0.638795949,7.90625 C0.638795949,7.5569375 0.880351392,7.2565 1.21385139,7.1875 L21.6263514,7.1875 C21.9598514,7.2565 22.2014068,7.5569375 22.2014068,7.90625 C22.2043614,8.25186782 21.9642002,8.5520693 21.6263514,8.625 Z" id="路径"></path>
                        <path d="M8.03191389,21.369875 C7.89927308,21.2522588 7.82426162,21.0828273 7.82635139,20.9055625 L7.82635139,7.8315 C7.82635139,7.4764375 8.14835139,7.1875 8.54510139,7.1875 C8.94185139,7.1875 9.26385139,7.475 9.26385139,7.8315 L9.26385139,20.9055625 C9.26594117,21.0828273 9.1909297,21.2522588 9.05828889,21.369875 C8.91704863,21.4955282 8.73413761,21.5641838 8.54510139,21.5625594 C8.35606518,21.5641838 8.17315415,21.4955282 8.03191389,21.369875 Z" id="路径"></path>
                    </g>
                </g>
            </g>
        </g>
    </g>
</svg>