<?xml version="1.0" encoding="UTF-8"?>
<svg width="40px" height="40px" viewBox="0 0 40 40" version="1.1" xmlns="http://www.w3.org/2000/svg" xmlns:xlink="http://www.w3.org/1999/xlink">
    <!-- Generator: Sketch 58 (84663) - https://sketch.com -->
    
    <desc>Created with Sketch.</desc>
        <g id="图标汇总" transform="translate(-774.000000, -316.000000)" fill-rule="nonzero">
            <g id="折线图备份" transform="translate(774.000000, 316.000000)">
                <rect id="矩形" fill="#000000" opacity="0" x="0" y="0" width="40" height="40"></rect>
                <path d="M2.70786517,35.5885287 L37.2921348,35.5885287 C38.4307116,35.5885287 39,36.1571072 39,37.2942643 L39,37.2942643 C39,38.4314214 38.4307116,39 37.2921348,39 L2.70786517,39 C1.56928839,39 1,38.4314214 1,37.2942643 L1,37.2942643 C1,36.1571072 1.56928839,35.5885287 2.70786517,35.5885287 Z M4.41573034,2.70573566 L4.41573034,37.2468828 C4.41573034,38.3840399 3.84644195,38.9526185 2.70786517,38.9526185 L2.70786517,38.9526185 C1.56928839,38.9526185 1,38.3840399 1,37.2468828 L1,2.70573566 C1,1.56857855 1.56928839,1 2.70786517,1 L2.70786517,1 C3.84644195,1 4.41573034,1.56857855 4.41573034,2.70573566 Z M23.8915131,20.0958155 C25.3084719,20.9273142 27.1212759,20.598581 28.1551511,19.3226908 L37.9299276,7.25996509 C38.5233159,6.52768329 38.40998,5.4536384 37.676784,4.86099002 C36.943588,4.26834165 35.8682022,4.38148878 35.274814,5.11381796 L25.5513683,17.1131471 L20.6281623,14.2241521 C19.2605893,13.4216983 17.5157678,13.6971272 16.4626792,14.8816658 L10.5113858,21.5758254 L7.22202762,20.0958155 C6.35704135,19.7200798 5.35087157,20.1158579 4.97466682,20.9797182 C4.59846208,21.8436259 4.9946868,22.8484938 5.85967306,23.2242294 L9.21217478,24.7316259 C10.529603,25.3039002 12.0660175,24.965217 13.0199076,23.8923092 L18.9651286,17.2049726 L23.8915131,20.0958155 Z M23.8915131,28.0958155 C25.3084719,28.9273142 27.1212759,28.598581 28.1551511,27.3226908 L37.9299276,15.2599651 C38.5233159,14.5276833 38.40998,13.4536384 37.676784,12.86099 C36.943588,12.2683416 35.8682022,12.3814888 35.274814,13.113818 L25.5513683,25.1131471 L20.6281623,22.2241521 C19.2605893,21.4216983 17.5157678,21.6971272 16.4626792,22.8816658 L10.5113858,29.5758254 L7.22202762,28.0958155 C6.35704135,27.7200798 5.35087157,28.1158579 4.97466682,28.9797182 C4.59846208,29.8436259 4.9946868,30.8484938 5.85967306,31.2242294 L9.21217478,32.7316259 C10.529603,33.3039002 12.0660175,32.965217 13.0199076,31.8923092 L18.9651286,25.2049726 L23.8915131,28.0958155 Z" id="形状"></path>
        </g>
    </g>
</svg>