<?xml version="1.0" standalone="no"?><!DOCTYPE svg PUBLIC "-//W3C//DTD SVG 1.1//EN" "http://www.w3.org/Graphics/SVG/1.1/DTD/svg11.dtd"><svg t="1605843891456" class="icon" viewBox="0 0 1024 1024" version="1.1" xmlns="http://www.w3.org/2000/svg" p-id="769" xmlns:xlink="http://www.w3.org/1999/xlink" width="32" height="32"><defs><style type="text/css"></style></defs><path d="M768 810.666667V106.666667H256v704h512z m0 42.666666H256v42.666667a21.333333 21.333333 0 0 0 21.333333 21.333333h469.333334a21.333333 21.333333 0 0 0 21.333333-21.333333v-42.666667z m42.666667-287.509333V896a64 64 0 0 1-64 64H277.333333a64 64 0 0 1-64-64V349.354667L90.389333 208.853333A106.666667 106.666667 0 0 1 64 138.602667V85.333333a21.333333 21.333333 0 0 1 21.333333-21.333333h784.298667C919.189333 64 960 101.824 960 149.333333c0 4.544-0.384 9.088-1.152 13.568l-50.602667 297.173334c-4.714667 27.626667-20.757333 52.330667-44.544 68.885333L810.666667 565.824zM106.666667 106.666667v31.936a64 64 0 0 0 15.829333 42.154666L213.333333 284.565333V106.666667H106.666667z m732.672 387.242666c14.506667-10.090667 24.085333-24.810667 26.837333-41.024L916.8 155.733333c0.362667-2.133333 0.533333-4.266667 0.533333-6.4 0-23.189333-21.013333-42.666667-47.701333-42.666666H810.666667v407.189333l28.672-19.946667zM661.333333 512a21.333333 21.333333 0 0 1 0 42.666667h-42.666666a21.333333 21.333333 0 0 1 0-42.666667h42.666666z m0-106.666667a21.333333 21.333333 0 0 1 0 42.666667h-85.333333a21.333333 21.333333 0 0 1 0-42.666667h85.333333z m0-106.666666a21.333333 21.333333 0 0 1 0 42.666666h-42.666666a21.333333 21.333333 0 0 1 0-42.666666h42.666666z m0-106.666667a21.333333 21.333333 0 0 1 0 42.666667h-85.333333a21.333333 21.333333 0 0 1 0-42.666667h85.333333z" fill="#1296db" p-id="770"></path></svg>