<?xml version="1.0" encoding="UTF-8"?>
<svg width="40px" height="40px" viewBox="0 0 40 40" version="1.1" xmlns="http://www.w3.org/2000/svg" xmlns:xlink="http://www.w3.org/1999/xlink">
    <!-- Generator: Sketch 58 (84663) - https://sketch.com -->
    <title>矩形</title>
    <desc>Created with Sketch.</desc>
        <g id="工程设计-基础信息" transform="translate(-52.000000, -899.000000)">
            <g id="嵌套饼图" transform="translate(52.000000, 899.000000)">
                <rect id="矩形" fill="#000000" opacity="0" x="0" y="0" width="39.9220273" height="39.9220273"></rect>
                <g id="分组-9" transform="translate(1.250000, 1.250000)">
                    <path d="M18.2456099,16.014244 L18.0073417,8.79509057 C12.5028726,9.08101017 8.27240231,13.7750477 8.55832191,19.2795168 C8.84424151,24.783986 13.538279,29.0144562 19.0427482,28.7285366 C22.3538658,28.7438778 25.4777623,27.1946471 27.46946,24.5494864 L18.3716052,19.2215091 L18.2456099,16.014244 Z" id="路径"></path>
                    <path d="M28.6034172,18.1100065 L20.0931244,19.1953121 L27.5106268,23.1959731 C28.2418619,21.8088726 28.6270389,20.2655968 28.6333567,18.6975685 C28.6367985,18.5012608 28.6267953,18.3049477 28.6034172,18.1100065 L28.6034172,18.1100065 Z" id="路径"></path>
                    <path d="M28.4911442,16.5768564 C27.3872132,12.1197104 23.4631981,8.9337705 18.8743387,8.76889357 L19.1687434,17.8280766 L28.4911442,16.5768564 Z" id="路径"></path>
                    <path d="M33.6981161,17.5012374 C33.0248897,9.73476705 26.5239784,3.77300043 18.7283838,3.77300043 C10.9327892,3.77300043 4.43187793,9.73476705 3.7586515,17.5012374 L0.00124868421,17.5012374 C0.687635654,7.6640662 8.86791917,0.0346718108 18.7290075,0.0346718108 C28.5900959,0.0346718108 36.7703794,7.6640662 37.4567664,17.5012374 L33.6981161,17.5012374 Z" id="路径"></path>
                    <path d="M3.92207105,21.2436705 C5.16269489,28.452309 11.4143909,33.7199828 18.7290075,33.7199828 C26.0436242,33.7199828 32.2953202,28.452309 33.535944,21.2436705 L37.3332661,21.2436705 C36.0543846,30.5386073 28.111512,37.4634575 18.7290075,37.4634575 C9.34650313,37.4634575 1.40363048,30.5386073 0.124748977,21.2436705 L3.92207105,21.2436705 L3.92207105,21.2436705 Z" id="路径"></path>
                </g>
            </g>
    </g>
</svg>