<?xml version="1.0" encoding="UTF-8"?>
<svg width="26px" height="22px" viewBox="0 0 26 22" version="1.1" xmlns="http://www.w3.org/2000/svg" xmlns:xlink="http://www.w3.org/1999/xlink">
    <!-- Generator: Sketch 58 (84663) - https://sketch.com -->
    <title>新增</title>
    <desc>Created with Sketch.</desc>
    <g id="最新版" stroke="none" stroke-width="1" fill="none" fill-rule="evenodd">
        <g id="工程设计-基础信息" transform="translate(-308.000000, -109.000000)" fill-rule="nonzero">
            <g id="新增" transform="translate(306.000000, 105.000000)">
                <rect id="矩形" fill="#000000" opacity="0" x="0" y="0" width="30" height="30"></rect>
                <path d="M25.8700488,10.7126953 L25.8495117,10.7126953 L25.8495117,12.31875 L25.8489258,24.7921582 C25.8489258,25.1944629 26.1875977,25.5328711 26.5897559,25.5328711 C26.9919141,25.5328711 27.3305859,25.1941699 27.3305859,24.7921582 L27.3305859,8.70149414 C27.3305859,7.81230469 26.6107617,7.07129883 25.7005371,7.07129883 L16.747207,7.07129883 L13.9526953,4.8271582 C13.821547,4.7188286 13.6570621,4.65902347 13.4869629,4.65782227 L4.3125,4.65782227 C3.42331055,4.65782227 2.68230469,5.37764648 2.68230469,6.28798828 L2.68230469,23.902793 C2.68230469,24.7920117 3.40212891,25.5328711 4.3125,25.5328711 L26.5897266,25.5328711 C26.9920313,25.5328711 27.3305859,25.1941406 27.3305859,24.7920117 C27.3305859,24.39 26.9918848,24.0511523 26.5897266,24.0511523 L4.3125,24.0511523 C4.27290328,24.0521183 4.23464093,24.0368134 4.2066335,24.008806 C4.17862606,23.9807985 4.1633212,23.9425362 4.16428711,23.9029395 L4.16428711,12.1735547 L4.18394531,12.1735547 L4.18394531,10.5655371 L4.18558594,6.30914063 C4.18558594,6.22456055 4.24904297,6.16095703 4.33379883,6.16095703 L13.2330176,6.16095703 L16.027793,8.40509766 C16.1588848,8.51344629 16.3233402,8.57325578 16.4934082,8.57443359 L25.7218359,8.57443359 C25.8064453,8.57443359 25.8700488,8.63789063 25.8700488,8.72267578 L25.8700488,10.7126953 Z M15.06375,21.7451953 C15.4834562,21.7451953 15.8237179,21.4049991 15.8237988,20.985293 L15.8237988,17.0554688 L19.7533594,17.0554688 C20.1673075,17.0473413 20.4986318,16.7094479 20.4986318,16.2954199 C20.4986318,15.881392 20.1673075,15.5434986 19.7533594,15.5353711 L15.8237988,15.5353711 L15.8237988,11.6054883 C15.8156713,11.1915401 15.4777779,10.8602158 15.06375,10.8602158 C14.6497221,10.8602158 14.3118287,11.1915401 14.3037012,11.6054883 L14.3037012,15.5349023 L10.3737012,15.5349023 C10.1721237,15.5349412 9.97881773,15.6150548 9.83630839,15.7576191 C9.69379906,15.9001833 9.61379881,16.0935202 9.61379881,16.2950977 C9.61379881,16.7148038 9.953995,17.0550656 10.3737012,17.0551465 L14.3035547,17.0551465 L14.3035547,20.985 C14.3035547,21.405 14.6438965,21.7451953 15.06375,21.7451953 Z" id="形状" fill="#ACACAC"></path>
            </g>
        </g>
    </g>
</svg>