<?xml version="1.0" encoding="UTF-8"?>
<svg width="40px" height="40px" viewBox="0 0 40 40" version="1.1" xmlns="http://www.w3.org/2000/svg" xmlns:xlink="http://www.w3.org/1999/xlink">
    <!-- Generator: Sketch 58 (84663) - https://sketch.com -->
    <title>矩形</title>
    <desc>Created with Sketch.</desc>
        <g id="工程设计-基础信息" transform="translate(-260.000000, -779.000000)">
            <g id="南丁格尔玫瑰图" transform="translate(260.000000, 779.000000)">
                <rect id="矩形" fill="#000000" opacity="0" x="0" y="0" width="40" height="40"></rect>
                <g id="分组-5" transform="translate(1.250000, 1.250000)">
                    <path d="M36.9318182,21.1136364 L36.9318182,21.3863636 C36.9318182,29.9318182 30.1136363,36.8409091 21.5681818,37.0227273 L21.5681818,21.1136364 L36.9318182,21.1136364 Z M20.2045455,21.1136364 L20.2045455,36.2954545 C12.4009091,36.2057576 6.10178988,29.9209899 5.93520068,22.0691643 L5.93181816,21.75 L5.93181816,21.1136364 L20.2045455,21.1136364 Z M20.2045455,0.568181836 L20.2045455,19.4772727 L0.568181836,19.4772727 C0.748023716,9.13636366 9.11067193,0.752212597 19.4977526,0.571170196 L19.8409091,0.568181836 L20.2045455,0.568181836 Z M21.8409091,6.75 C28.75,6.75 34.3863636,12.5681818 34.5681818,19.4772727 L21.5681818,19.4772727 L21.5681818,6.75 L21.8409091,6.75 Z" id="形状结合"></path>
                </g>
        </g>
    </g>
</svg>