<?xml version="1.0" encoding="UTF-8"?>
<svg width="40px" height="40px" viewBox="0 0 40 40" version="1.1" xmlns="http://www.w3.org/2000/svg" xmlns:xlink="http://www.w3.org/1999/xlink">
    <!-- Generator: Sketch 58 (84663) - https://sketch.com -->
    <title>矩形</title>
    <desc>Created with Sketch.</desc>
        <g id="图标汇总" transform="translate(-881.000000, -470.000000)" fill-rule="nonzero">
            <g id="图片" transform="translate(881.000000, 470.000000)">
                <rect id="矩形" fill="#000000" opacity="0" x="0" y="0" width="40" height="40"></rect>
                <path d="M29,17.2571429 C30.35,17.2571429 31.7,16.5714286 32.375,15.2 C33.05,13.8285714 33.05,12.4571429 32.375,11.0857143 C31.7,9.71428571 30.35,9.25714286 29,9.25714286 C26.975,9.25714286 25.175,11.0857143 25.175,13.1428571 C25.175,15.2 26.975,17.2571429 29,17.2571429 Z M35.75,4 L4.25,4 C2.9,4 2,5.14285714 2,6.28571429 L2,33.7142857 C2,35.0857143 2.9,36 4.25,36 L35.75,36 C37.1,36 38,34.8571429 38,33.7142857 L38,6.28571429 C38,5.14285714 37.1,4 35.75,4 Z M27.425,20.4571429 C27.2,20.2285714 26.75,20 26.525,20 C26.075,20 25.85,20.2285714 25.4,20.4571429 L23.825,21.8285714 C23.6,22.0571429 23.375,22.0571429 22.925,22.0571429 C22.7,22.0571429 22.25,22.0571429 22.025,21.8285714 C21.8,21.8285714 21.8,21.6 21.575,21.6 L17.525,16.5714286 C17.075,16.1142857 16.625,15.8857143 16.175,15.8857143 C15.5,15.8857143 15.05,16.3428571 14.825,16.5714286 L4.7,29.3714286 L4.7,7.65714286 C4.7,7.2 5.15,6.74285714 5.825,6.74285714 L34.625,6.74285714 C35.075,6.74285714 35.525,7.2 35.75,7.65714286 L35.75,29.3714286 L27.425,20.4571429 Z" id="形状" ></path>
        </g>
    </g>
</svg>