<?xml version="1.0" encoding="UTF-8"?>
<svg width="40px" height="40px" viewBox="0 0 40 40" version="1.1" xmlns="http://www.w3.org/2000/svg" xmlns:xlink="http://www.w3.org/1999/xlink">
    <!-- Generator: Sketch 58 (84663) - https://sketch.com -->
    <title>矩形</title>
    <desc>Created with Sketch.</desc>
        <g id="工程设计-基础信息" transform="translate(-156.000000, -779.000000)">
            <g id="数据-图表-饼图-2" transform="translate(156.000000, 779.000000)">
                <rect id="矩形" fill="#000000" opacity="0" x="0" y="0" width="40" height="40"></rect>
                <path d="M18.75,3.37916668 L18.7358333,20.0108333 L18.7416667,20.1316667 C18.7458045,20.176084 18.7519217,20.2202946 18.76,20.2641667 C18.7216667,20.5891667 18.81,20.9275 19.0275,21.1966667 L19.115,21.2941667 L30.4216667,33.0075 C27.4674444,35.3813211 23.7897784,36.6725918 20,36.666687 C10.795,36.666687 3.33333332,29.205 3.33333332,20 C3.33333332,11.2158333 10.1291667,4.01833332 18.75,3.37916668 Z M22.5458333,21.25 L36.6208333,21.2475 C36.3442851,24.9971035 34.8032919,28.5418287 32.25,31.3016667 L22.5458333,21.2491667 L36.6208333,21.2466667 L22.5458333,21.2491667 L22.5458333,21.25 Z M21.2358333,18.75 L21.25,3.37916668 C29.4566667,3.9875 36.01,10.54 36.62,18.7458333 L21.2366667,18.7491667 L21.25,3.37916668 L21.2358333,18.7491667 L21.2358333,18.75 Z" ></path>
        </g>
    </g>
</svg>