<?xml version="1.0" encoding="UTF-8"?>
<svg width="40px" height="40px" viewBox="0 0 40 40" version="1.1" xmlns="http://www.w3.org/2000/svg" xmlns:xlink="http://www.w3.org/1999/xlink">
    <!-- Generator: Sketch 63.1 (92452) - https://sketch.com -->
    <title>相对时间</title>
    <desc>Created with Sketch.</desc>
        <g id="图标汇总" transform="translate(-1061.000000, -682.000000)" fill-rule="nonzero">
            <g id="组件-相对时间" transform="translate(1061.000000, 682.000000)">
                <rect id="矩形" fill="#000000" opacity="0" x="0" y="0" width="40" height="40"></rect>
                <path d="M37.1673047,10.4807812 L1.81984375,10.4807812 L1.81984375,7.82054687 L24.7106641,7.82054687 L24.7366016,0.24703125 L37.1673047,10.4807812 Z M32.2880469,28.1671484 L23.8775,28.1671484 C23.4573047,28.1671484 23.1161328,27.8259766 23.1161328,27.4057812 L23.1161328,25.8833203 C23.1161328,25.8469922 23.1186719,25.8112109 23.1237109,25.77625 L23.1237109,17.7173828 C23.1237109,17.2971875 23.4647656,16.9561719 23.8849219,16.9561719 L25.4073828,16.9561719 C25.8275781,16.9561719 26.1685937,17.2972266 26.1685937,17.7173828 L26.1685937,25.1221094 L32.2880469,25.1221094 C32.7083594,25.1222266 33.0492578,25.4632812 33.0492578,25.8833203 L33.0492578,27.4057812 C33.0492578,27.8258594 32.7083594,28.1670312 32.2880469,28.1671484 L32.2880469,28.1671484 Z M25.7087891,12.6934375 C25.3169531,12.6568971 24.9239947,12.6336026 24.5305859,12.6234034 C24.0866016,12.6202734 23.6614844,12.6607031 23.2450391,12.7209375 C22.1790334,12.8290028 21.1297366,13.0639196 20.1194141,13.4207031 L1.93515625,13.4207031 L11.4487891,23.0442187 C11.2064453,24.0575 11.0782031,25.1148047 11.0782031,26.2019141 C11.0782031,33.6810156 17.1501562,39.7529687 24.6291406,39.7529687 C32.1082422,39.7529687 38.1801953,33.6810156 38.1801953,26.2019141 C38.1801953,19.0863281 32.6838672,13.244375 25.7087891,12.6934375 Z M12.7355078,16.0809375 L15.6221094,16.0809375 C14.4589453,17.1169531 13.4754297,18.3501172 12.7240625,19.7279687 L12.7355078,16.0809375 Z M24.6291406,37.2891797 C18.5099609,37.2891797 13.5419922,32.3210937 13.5419922,26.2019141 C13.5419922,20.0827344 18.5099609,15.1147656 24.6291406,15.1147656 C30.7483203,15.1147656 35.7162891,20.0827344 35.7162891,26.2019141 C35.7162891,32.3210937 30.7483203,37.2891797 24.6291406,37.2891797 Z" id="形状"></path>
            </g>
        </g>
</svg>