<?xml version="1.0" encoding="UTF-8"?>
<svg width="40px" height="40px" viewBox="0 0 40 40" version="1.1" xmlns="http://www.w3.org/2000/svg" xmlns:xlink="http://www.w3.org/1999/xlink">
    <!-- Generator: Sketch 58 (84663) - https://sketch.com -->
    <title>矩形</title>
    <desc>Created with Sketch.</desc>
        <g id="工程设计-基础信息" transform="translate(-260.000000, -899.000000)">
            <g id="环形图" transform="translate(260.000000, 899.000000)">
                <rect id="矩形" fill="#000000" opacity="0" x="0" y="0" width="40" height="40"></rect>
                <path d="M27.4172111,15.2666492 L35.4866201,12.0011832 C32.8089555,6.82936969 27.6664821,3.17972414 21.591401,2.62458055 L21.591401,11.339192 C23.9911121,11.7907357 26.0985802,13.2114808 27.4172111,15.2666492 L27.4172111,15.2666492 Z M11.228547,19.9976816 C11.2230308,15.7634324 14.2458213,12.1308553 18.4105577,11.3668533 L18.4105577,2.62458055 C9.57318938,3.42859543 2.61191371,10.8984109 2.61191371,19.9976816 C2.60439856,23.7428302 3.80530259,27.3904859 6.03622742,30.3986697 L12.5303045,24.5866502 C11.7262896,23.2346469 11.228547,21.6551178 11.228547,19.9976816 Z M36.6744148,14.9322759 L28.603327,18.1977419 C28.7176894,18.7809465 28.7956366,19.3574756 28.7956366,19.9691409 C28.7956366,24.814136 24.8744551,28.7675356 20.0085542,28.7675356 C18.0643969,28.7730636 16.1759611,28.1183672 14.6524257,26.9106346 L8.15830867,32.7230937 C11.2783932,35.6274046 15.4266207,37.3992433 20.0085142,37.3992433 C29.6193181,37.3992433 37.4119142,29.5946148 37.4119142,19.9700203 C37.4185102,18.2262426 37.141538,16.5403057 36.6744148,14.9322759 Z"></path>
        </g>
    </g>
</svg>