<?xml version="1.0" encoding="UTF-8"?>
<svg width="64px" height="40px" viewBox="0 0 64 40" version="1.1" xmlns="http://www.w3.org/2000/svg" xmlns:xlink="http://www.w3.org/1999/xlink">
    <!-- Generator: Sketch 63.1 (92452) - https://sketch.com -->
    <title>保存</title>
    <desc>Created with Sketch.</desc>
    <g id="最新版" stroke="none" stroke-width="1" fill="none" fill-rule="evenodd">
        <g id="图标汇总备份" transform="translate(-177.000000, -255.000000)">
            <g id="编组-5" transform="translate(177.000000, 255.000000)">
                <path d="M3,0 L61,0 C62.6568542,-3.04359188e-16 64,1.34314575 64,3 L64,37 C64,38.6568542 62.6568542,40 61,40 L3,40 C1.34314575,40 2.02906125e-16,38.6568542 0,37 L0,3 C-2.02906125e-16,1.34314575 1.34314575,3.04359188e-16 3,0 Z" id="矩形备份-5" fill="#041329" opacity="0.199148996"></path>
                <g id="编组-2备份" transform="translate(18.000000, 6.000000)" fill-rule="nonzero">
                    <rect id="矩形" fill="#000000" opacity="0" x="0" y="0" width="28" height="28"></rect>
                    <g id="编组-3" transform="translate(2.333333, 2.333333)" fill="#FFFFFF">
                        <path d="M3.88888891,1.55555556 C3.27005043,1.55555556 2.67655795,1.80138818 2.23897307,2.23897307 C1.80138818,2.67655795 1.55555556,3.27005043 1.55555556,3.88888891 L1.55555556,19.4444444 C1.55555556,20.0632829 1.80138818,20.6567754 2.23897307,21.0943603 C2.67655795,21.5319452 3.27005043,21.7777778 3.88888891,21.7777778 L19.4444444,21.7777778 C20.0632829,21.7777778 20.6567754,21.5319452 21.0943603,21.0943603 C21.5319452,20.6567754 21.7777778,20.0632829 21.7777778,19.4444444 L21.7777778,3.88888891 C21.7777778,3.27005043 21.5319452,2.67655795 21.0943603,2.23897307 C20.6567754,1.80138818 20.0632829,1.55555556 19.4444444,1.55555556 L3.88888891,1.55555556 Z M3.88888891,2.25597319e-13 L19.4444444,2.25597319e-13 C20.4758419,2.25597319e-13 21.464996,0.409721039 22.1943042,1.13902918 C22.9236123,1.86833733 23.3333334,2.85749144 23.3333334,3.88888891 L23.3333334,19.4444444 C23.3333334,20.4758419 22.9236123,21.464996 22.1943042,22.1943042 C21.464996,22.9236123 20.4758419,23.3333334 19.4444444,23.3333334 L3.88888891,23.3333334 C2.85749144,23.3333334 1.86833733,22.9236123 1.13902918,22.1943042 C0.409721039,21.464996 -2.29150032e-13,20.4758419 -2.29150032e-13,19.4444444 L-2.29150032e-13,3.88888891 C-2.29150032e-13,2.85749144 0.409721039,1.86833733 1.13902918,1.13902918 C1.86833733,0.409721039 2.85749144,2.25597319e-13 3.88888891,2.25597319e-13 Z" id="形状"></path>
                        <path d="M5.44444444,1.55555556 L5.44444444,8.55555556 L17.8888889,8.55555556 L17.8888889,1.55555556 L19.4444444,1.55555556 L19.4444444,8.79511112 C19.4444444,9.52155556 18.7483333,10.1111111 17.8888889,10.1111111 L5.44444444,10.1111111 C4.585,10.1111111 3.88888891,9.52155556 3.88888891,8.79511112 L3.88888891,1.55555556 L5.44444444,1.55555556 Z" id="路径"></path>
                        <path d="M15.5555556,3.11111112 L15.5555556,3.11111112 C16.0740741,3.11111112 16.3333334,3.37037038 16.3333334,3.88888891 L16.3333334,6.22222223 C16.3333334,6.74074074 16.0740741,7 15.5555556,7 L15.5555556,7 C15.037037,7 14.7777778,6.74074074 14.7777778,6.22222223 L14.7777778,3.88888891 C14.7777778,3.3703704 15.037037,3.11111112 15.5555556,3.11111112 Z" id="路径"></path>
                    </g>
                </g>
            </g>
        </g>
    </g>
</svg>