<?xml version="1.0" encoding="UTF-8"?>
<svg width="40px" height="40px" viewBox="0 0 40 40" version="1.1" xmlns="http://www.w3.org/2000/svg" xmlns:xlink="http://www.w3.org/1999/xlink">
    <!-- Generator: Sketch 63.1 (92452) - https://sketch.com -->
    <title>散点图</title>
    <desc>Created with Sketch.</desc>
        <g id="图标汇总" transform="translate(-614.000000, -807.000000)" fill-rule="nonzero">
            <g id="散点图" transform="translate(614.000000, 807.000000)">
                <rect id="矩形" fill="#000000" opacity="0" x="0" y="0" width="40" height="40"></rect>
                <path d="M1.80559567e-10,35.243125 L39.9755859,35.243125 L39.9755859,37.9755469 L1.80559567e-10,37.9755469 L1.80559567e-10,35.243125 Z M1.80123028e-10,3 L2.73246094,3 L2.73246094,37.975625 L3.90626801e-05,37.975625 L3.90626801e-05,3 L1.80123028e-10,3 Z M34.9832831,22.4916416 C33.6027914,22.4916416 32.482157,21.3710071 32.482157,19.9905155 C32.482157,18.6100238 33.6027914,17.4893894 34.9832831,17.4893894 C36.3637748,17.4893894 37.4844092,18.6100238 37.4844092,19.9905155 C37.4844092,21.3710071 36.3637748,22.4916416 34.9832831,22.4916416 Z M9.98826328,29.9787787 C8.60777161,29.9787787 7.48713719,28.8581443 7.48713719,27.4776527 C7.48713719,26.097161 8.60777161,24.9765266 9.98826328,24.9765266 C11.368755,24.9765266 12.4893894,26.097161 12.4893894,27.4776527 C12.4893894,28.8581443 11.368755,29.9787787 9.98826328,29.9787787 Z M14.5011261,22.0022522 C13.1206344,22.0022522 12,20.8816178 12,19.5011261 C12,18.1206344 13.1206344,17 14.5011261,17 C15.8816178,17 17.0022522,18.1206344 17.0022522,19.5011261 C17.0022522,20.8816178 15.8816178,22.0022522 14.5011261,22.0022522 Z M25.5011261,27.0022522 C24.1206344,27.0022522 23,25.8816178 23,24.5011261 C23,23.1206344 24.1206344,22 25.5011261,22 C26.8816178,22 28.0022522,23.1206344 28.0022522,24.5011261 C28.0022522,25.8816178 26.8816178,27.0022522 25.5011261,27.0022522 Z M23.5011261,17.0022522 C22.1206344,17.0022522 21,15.8816178 21,14.5011261 C21,13.1206344 22.1206344,12 23.5011261,12 C24.8816178,12 26.0022522,13.1206344 26.0022522,14.5011261 C26.0022522,15.8816178 24.8816178,17.0022522 23.5011261,17.0022522 Z M31.5011261,12.0022522 C30.1206344,12.0022522 29,10.8816178 29,9.50112609 C29,8.12063442 30.1206344,7 31.5011261,7 C32.8816178,7 34.0022522,8.12063442 34.0022522,9.50112609 C34.0022522,10.8816178 32.8816178,12.0022522 31.5011261,12.0022522 Z" id="形状"></path>
            </g>
        </g>
</svg>