<?xml version="1.0" encoding="UTF-8"?>
<svg width="16px" height="16px" viewBox="0 0 16 16" version="1.1" xmlns="http://www.w3.org/2000/svg" xmlns:xlink="http://www.w3.org/1999/xlink">
    <!-- Generator: Sketch 58 (84663) - https://sketch.com -->
    <desc>Created with Sketch.</desc>
    <g id="最新版" stroke="none" stroke-width="1">
        <g id="工程设计-基础信息" transform="translate(-1868.000000, -714.000000)">
            <g id="icon/可见-2" transform="translate(1868.000000, 714.000000)">
                <g id="icon/可见">
                    <g>
                        <rect id="矩形" fill-rule="nonzero" opacity="0" x="0" y="0" width="16" height="16"></rect>
                        <path d="M8,3.27192564 C4.84794509,3.27192564 2.15610616,5.23250037 1.06548559,8 C2.15609016,10.7674996 4.84794509,12.7280744 8,12.7280744 C11.1552048,12.7280744 13.8439098,10.7674996 14.9345144,8 C13.8438938,5.23250036 11.1552048,3.27192564 8,3.27192564 Z M8,11.1520549 C6.26007567,11.1520549 4.84794509,9.73994031 4.84794509,8 C4.84794509,6.26005969 6.26005969,4.84794509 8,4.84794509 C9.73994031,4.84794509 11.1520549,6.26005969 11.1520549,8 C11.1520549,9.73994031 9.73992433,11.1520549 8,11.1520549 Z M8,6.10877025 C6.95667537,6.10877025 6.10877025,6.95667537 6.10877025,8 C6.10877025,9.04332463 6.95667537,9.89122975 8,9.89122975 C9.04332463,9.89122975 9.89122975,9.04332463 9.89122975,8 C9.89122975,6.95667537 9.04332463,6.10877025 8,6.10877025 Z" id="形状"></path>
                    </g>
                </g>
            </g>
        </g>
    </g>
</svg>