<?xml version="1.0" encoding="UTF-8"?>
<svg width="22px" height="22px" viewBox="0 0 22 22" version="1.1" xmlns="http://www.w3.org/2000/svg" xmlns:xlink="http://www.w3.org/1999/xlink">
    <!-- Generator: Sketch 58 (84663) - https://sketch.com -->
    <desc>Created with Sketch.</desc>
    <g id="页面-1" stroke="none" stroke-width="1" fill="none" fill-rule="evenodd">
        <g id="数据管理-展开" transform="translate(-24.000000, -440.000000)" fill="#FFFFFF">
            <g id="编组-18" transform="translate(24.000000, 440.000000)">
                <rect id="矩形" fill-opacity="0.01" x="0" y="0" width="22" height="22"></rect>
                <g id="分组-3" transform="translate(3.000000, 2.000000)" fill-rule="nonzero">
                    <path d="M15.6062822,15.9267389 C15.8156918,15.9267389 15.9854518,15.7569789 15.9854518,15.5475693 L15.9854518,6.63377317 C15.9854518,6.4243636 15.8156918,6.2546036 15.6062822,6.2546036 L10.1773246,6.2546036 L10.1773246,8.73450147 L10.1773246,16.0322941 C10.1773246,16.3463875 9.92270165,16.6010105 9.60860827,16.6010105 C9.29451238,16.6010105 9.03988497,16.34639 9.03987644,16.0322941 L9.03954506,3.82521606 L9.03954506,3.82521606 C9.03954505,3.61580649 8.86978505,3.44604649 8.66037547,3.44604649 L1.54695868,1.65052687 C1.3375491,1.65052687 1.16778909,1.82028687 1.16778909,2.02969644 L1.16778909,15.5456458 C1.16778909,15.7550554 1.33754909,15.9248154 1.54695868,15.9248154 L15.6062822,15.9267389 Z M10.1770538,5.06039005 L16.1750366,5.06013687 C16.6985605,5.06013688 17.1229606,5.48453689 17.1229606,6.00806084 L17.1226897,16.1141293 C17.1226897,16.6376533 16.6982897,17.0620533 16.1747658,17.0620533 L0.966921539,17.0620533 C0.443397598,17.0620533 0.018997583,16.6376533 0.018997583,16.1141293 L0.018997583,1.00201012 C0.018997583,0.478486169 0.443397591,0.0540861422 0.966921539,0.0540861422 L9.22912986,2.38349791 C9.7526538,2.38349792 10.1770538,2.80789793 10.1770538,3.33142188 L10.1770538,5.06039005 Z" id="形状" stroke="#FFFFFF" stroke-width="0.2"></path>
                    <path d="M14.2719413,12.099535 C14.5473981,12.099535 14.7635133,12.382463 14.7635133,12.7248996 C14.7635133,13.0672636 14.547185,13.3505351 14.2719413,13.3505351 L11.9080497,13.3505351 C11.6326219,13.3505351 11.4164777,13.0673826 11.4164777,12.7248996 C11.4164777,12.3825819 11.6327771,12.099535 11.9080497,12.099535 L14.2719413,12.099535 Z M14.2588069,9.24612175 C14.5342637,9.24612175 14.7503789,9.52904975 14.7503789,9.8714864 C14.7503789,10.1715924 14.5833671,10.4308804 14.3434517,10.4875729 L14.2588069,10.4971219 L11.8949153,10.4971219 C11.6194875,10.4971219 11.4033433,10.2139693 11.4033433,9.8714864 C11.4033433,9.57140841 11.5703379,9.31230317 11.8102773,9.25566071 L11.8949153,9.24612175 L14.2588069,9.24612175 Z M3.58475508,9.22961169 L6.71485876,9.23083045 C6.99071354,9.23083045 7.20643073,9.51267856 7.20643073,9.85619512 C7.20643073,10.1575108 7.03960369,10.4169407 6.79949839,10.4736434 L6.71483609,10.4831848 L3.58475508,10.481966 C3.30947117,10.481966 3.09318311,10.1976911 3.09318311,9.85497636 C3.09318311,9.51265861 3.30948249,9.22961169 3.58475508,9.22961169 Z M3.58475508,6.53238159 L6.71485876,6.53360035 C6.99071354,6.53360035 7.20643073,6.81544846 7.20643073,7.15896502 C7.20643073,7.46028071 7.03960369,7.71971062 6.79949839,7.77641332 L6.71483609,7.7859547 L3.58475508,7.78473594 C3.30947117,7.78473594 3.09318311,7.50046096 3.09318311,7.15774626 C3.09318311,6.81542852 3.30948249,6.53238159 3.58475508,6.53238159 Z" id="形状结合"></path>
                </g>
            </g>
        </g>
    </g>
</svg>