<?xml version="1.0" encoding="UTF-8"?>
<svg width="40px" height="40px" viewBox="0 0 40 40" version="1.1" xmlns="http://www.w3.org/2000/svg" xmlns:xlink="http://www.w3.org/1999/xlink">
    <!-- Generator: Sketch 58 (84663) - https://sketch.com -->
    <title>矩形</title>
    <desc>Created with Sketch.</desc>
        <g id="图标汇总" transform="translate(-971.000000, -470.000000)" fill-rule="nonzero">
            <g id="视频" transform="translate(971.000000, 470.000000)">
                <rect id="矩形" fill="#000000" opacity="0" x="0" y="0" width="40" height="40"></rect>
                <path d="M36.0163072,12.7117307 L3.96580747,12.7117307 C3.42924776,12.7117307 3,13.1409784 3,13.6775381 L3,33.6554445 C3,35.4976328 4.50236718,37 6.3445555,37 L33.6554445,37 C35.4976328,37 37,35.4976328 37,33.6554445 L37,13.6775381 C36.9821147,13.1409784 36.5528669,12.7117307 36.0163072,12.7117307 Z M25.9647554,26.0720673 L19.472383,31.1336139 C18.4529195,31.9384534 16.9505523,31.2051552 16.9505523,29.8995266 L16.9505523,19.7764335 C16.9505523,18.4708048 18.4529195,17.7553919 19.472383,18.5423461 L25.9647554,23.6038927 C26.769595,24.2477643 26.769595,25.446081 25.9647554,26.0720673 L25.9647554,26.0720673 Z M26.3940032,3 L21.7259337,3 L19.973172,10.8874277 L24.6412415,10.8874277 L26.3940032,3 Z M7.99000526,10.8874277 L12.6401894,10.8874277 L14.3929511,3 L9.74276696,3 L7.99000526,10.8874277 Z M20.4024198,3 L15.7343503,3 L13.9815886,10.8874277 L18.6496581,10.8874277 L20.4024198,3 Z M32.3855865,3 L27.7354024,3 L25.9826407,10.8874277 L30.6328248,10.8874277 L32.3855865,3 Z M8.4013677,3 L6.3445555,3 C4.50236718,3 3,4.50236718 3,6.3445555 L3,9.93950552 C3,10.4760652 3.42924776,10.905313 3.96580747,10.905313 L6.648606,10.905313 L8.4013677,3 Z M33.7269858,3 L31.9742241,10.8874277 L36.0163072,10.8874277 C36.5528669,10.8874277 36.9821147,10.4581799 36.9821147,9.9216202 L36.9821147,6.3445555 C36.9821147,4.5202525 35.5334035,3.05365597 33.7269858,3 Z" id="形状" ></path>
            </g>
    </g>
</svg>