<?xml version="1.0" encoding="UTF-8"?>
<svg width="40px" height="40px" viewBox="0 0 40 40" version="1.1" xmlns="http://www.w3.org/2000/svg" xmlns:xlink="http://www.w3.org/1999/xlink">
    <!-- Generator: Sketch 63.1 (92452) - https://sketch.com -->
    <title>天气</title>
    <desc>Created with Sketch.</desc>
        <g id="图标汇总" transform="translate(-865.000000, -807.000000)" fill-rule="nonzero">
            <g id="天气" transform="translate(865.000000, 807.000000)">
                <rect id="矩形" fill="#000000" opacity="0" x="0" y="0" width="40" height="40"></rect>
                <path d="M33.4584017,33.5893801 L7.40535896,33.5893801 C7.18786621,33.5575424 6.96998356,33.5279571 6.75301063,33.4936503 C4.0152268,33.0603542 1.73551625,30.9005873 1.16572938,28.1941214 C1.0954698,27.8605834 1.0544923,27.5209811 1,27.1839778 L1,26.221699 C1.02443059,26.0413286 1.04128075,25.8599186 1.07441796,25.6816273 C1.59742286,22.861282 3.22322569,20.9994903 5.94459248,20.0977248 C6.06743841,20.0569206 6.11772903,20.002255 6.14636134,19.8801454 C6.9121559,16.6123827 10.2009705,14.567275 13.4690364,15.3301674 C13.6376247,15.3693256 13.7165909,15.3375312 13.8108046,15.1925938 C16.2522594,11.4404646 20.7951768,9.53951456 25.1520927,10.4402838 C29.736854,11.3881381 33.1424936,14.988226 33.8406276,19.6362729 C33.8687834,19.8247002 33.9289935,19.8880291 34.1123961,19.9161848 C36.8327666,20.3349699 39.1253855,22.5031402 39.6951724,25.1936223 C39.766948,25.5329647 39.8083154,25.878718 39.863804,26.2216557 L39.863804,27.1839345 C39.8320096,27.4017738 39.8022511,27.6198296 39.7680309,27.8372791 C39.3358177,30.5727238 37.1753145,32.8527809 34.4678089,33.4238673 C34.1344875,33.4941701 33.7949285,33.5349311 33.4584017,33.5893801 L33.4584017,33.5893801 Z M17.1064632,9.78685251 C17.0646193,9.81418529 17.0249413,9.8426443 16.9830975,9.86733479 C15.4791443,10.7528565 14.2518978,11.9271702 13.3054728,13.3930047 C13.2451761,13.4861354 13.1952321,13.5132083 13.0805296,13.4863953 C9.72253839,12.7040104 6.48522726,14.7027694 5.66866561,18.0547829 C5.65415453,18.1137369 5.60628967,18.1900174 5.55504612,18.2104629 C5.23723204,18.336471 4.90737598,18.4328071 4.59484652,18.5698176 C4.282577,18.7066115 3.98637792,18.8800079 3.68251181,19.0372906 C2.07312603,16.2585292 2.26935032,11.5470235 5.93722866,8.71961756 C9.64097317,5.86453231 14.5658566,6.8026404 17.1064632,9.78685251 L17.1064632,9.78685251 Z" id="形状"></path>
            </g>
    </g>
</svg>